<svg width="36" height="36" viewBox="0 0 36 36" fill="none" xmlns="http://www.w3.org/2000/svg">
<mask id="path-1-outside-1_102_11265" maskUnits="userSpaceOnUse" x="2.94849" y="3" width="30" height="32" fill="black">
<rect fill="white" x="2.94849" y="3" width="30" height="32"/>
<path d="M32.0195 5.4534C32.0087 5.06549 31.8475 4.69699 31.57 4.42577C31.2924 4.15455 30.9203 4.00187 30.5323 4C30.3349 3.99997 30.1395 4.03924 29.9574 4.1155C29.7753 4.19176 29.6103 4.3035 29.4719 4.4442C29.3334 4.5849 29.2244 4.75175 29.1511 4.93502C29.0778 5.11829 29.0417 5.31432 29.045 5.51167C29.0674 6.77075 29.0991 9.03972 29.0647 10.0898C29.0379 10.9018 28.7022 11.9214 28.0524 13.1805C27.619 12.5805 27.111 12.038 26.5407 11.5662C23.8341 9.33499 20.3541 8.54014 18 8.54014C15.6459 8.54014 12.1659 9.33499 9.45807 11.5662C8.8884 12.0378 8.38093 12.58 7.94786 13.1795C7.2993 11.9219 6.96162 10.9013 6.9348 10.0898C6.90042 9.03972 6.93211 6.77075 6.95455 5.51167C6.95778 5.31432 6.9217 5.11829 6.84841 4.93502C6.77511 4.75175 6.66608 4.5849 6.52764 4.4442C6.38921 4.3035 6.22416 4.19176 6.04211 4.1155C5.86005 4.03924 5.66464 3.99997 5.46726 4C5.07929 4.002 4.70729 4.15474 4.42985 4.42594C4.15241 4.69715 3.99127 5.06558 3.98045 5.4534C3.95071 6.79001 3.91511 9.18382 4.0102 10.1925C4.24548 12.6911 5.32462 14.6141 6.43156 16.4428C6.21243 17.2886 6.13011 18.1641 6.18774 19.036C6.47642 22.6284 8.69053 25.4158 13.1556 27.8079C15.1171 28.8585 15.418 30.5618 15.3039 33.5376C15.2909 33.8373 15.3976 34.1298 15.6003 34.3508C15.803 34.5718 16.0853 34.7033 16.3849 34.7162C16.6846 34.7291 16.9771 34.6225 17.1982 34.4198C17.4192 34.217 17.5506 33.9348 17.5636 33.6351C17.5636 33.6122 17.5662 33.5864 17.5675 33.5634C17.8559 33.5293 18.1475 33.5306 18.4357 33.5673C18.4357 33.5893 18.4384 33.6134 18.4394 33.6351C18.4523 33.9348 18.5837 34.217 18.8048 34.4198C19.0258 34.6225 19.3183 34.7291 19.618 34.7162C19.9176 34.7033 20.1999 34.5718 20.4026 34.3508C20.6054 34.1298 20.712 33.8373 20.6991 33.5376C20.585 30.5618 20.8858 28.8585 22.8473 27.8079C27.3124 25.4158 29.5265 22.6284 29.8152 19.036C29.8724 18.1641 29.7897 17.2886 29.5701 16.4428C30.6771 14.6141 31.7562 12.6911 31.9915 10.1925C32.0851 9.18309 32.0495 6.79001 32.0195 5.4534V5.4534ZM4.738 10.124C4.64656 9.15115 4.68216 6.7905 4.71142 5.46974C4.71699 5.27257 4.79902 5.0853 4.94016 4.94752C5.08131 4.80975 5.2705 4.73226 5.46774 4.73145C5.56799 4.73144 5.66724 4.75137 5.75972 4.79009C5.85219 4.8288 5.93604 4.88553 6.00638 4.95696C6.07672 5.02839 6.13215 5.1131 6.16944 5.20615C6.20673 5.29921 6.22513 5.39876 6.22358 5.49899C6.20115 6.7649 6.16921 9.04752 6.20432 10.114C6.23723 11.1112 6.66587 12.3505 7.49046 13.8729C7.18289 14.3894 6.92507 14.934 6.72048 15.4992C5.78251 13.9076 4.93476 12.2123 4.738 10.124V10.124ZM18.394 32.8283C18.1317 32.805 17.8679 32.8058 17.6057 32.8308C17.6974 31.216 17.7642 29.234 16.6585 27.6075C17.1014 27.6849 17.5499 27.7257 17.9995 27.7294C18.4456 27.7268 18.8909 27.6909 19.3317 27.6221C18.2367 29.2444 18.3028 31.2184 18.394 32.8283V32.8283ZM13.1946 22.6592C15.1234 22.6592 16.7353 22.0133 18.2275 21.4157C20.8063 20.3819 23.0439 19.4895 26.381 21.6595C25.6915 22.95 24.3683 24.3105 21.5146 25.7605C21.0009 26.0164 20.5251 26.3421 20.1005 26.7282C19.4136 26.9017 18.7084 26.9919 18 26.9969C17.2748 26.9898 16.5539 26.8861 15.8561 26.6885C15.4421 26.3205 14.9812 26.009 14.4854 25.762C11.8802 24.4371 10.5489 23.1873 9.81258 21.9974C10.8896 22.4243 12.0361 22.6486 13.1946 22.6592V22.6592ZM9.31397 20.998C9.1442 20.5523 9.01088 20.0936 8.91533 19.6263C8.46402 17.5507 9.46636 14.855 11.1975 13.4899C13.1751 12.0405 15.5489 11.2309 18 11.17C20.4511 11.2309 22.8249 12.0405 24.8025 13.4899C26.5336 14.8553 27.535 17.5507 27.0837 19.627C26.9887 20.0906 26.8567 20.5458 26.6889 20.9883C23.0751 18.6857 20.473 19.7268 17.9544 20.7362C15.5243 21.7105 13.0107 22.7152 9.31397 20.998V20.998ZM29.0845 18.9773C28.9023 21.2448 27.9895 24.2225 22.5014 27.163C20.2122 28.3896 19.8438 30.3594 19.9676 33.5656C19.9699 33.6202 19.9611 33.6747 19.9418 33.7258C19.9224 33.7769 19.8929 33.8235 19.855 33.8629C19.8008 33.9189 19.7315 33.9579 19.6555 33.9749C19.5794 33.992 19.5001 33.9864 19.4272 33.9589C19.3543 33.9314 19.2911 33.8832 19.2453 33.8201C19.1995 33.7571 19.1732 33.682 19.1696 33.6042C19.1608 33.4055 19.1489 33.1977 19.1364 32.9832C19.0065 30.7359 18.8439 27.939 21.847 26.4135C26.5283 24.0353 27.3743 21.7436 27.8005 19.7816C28.3062 17.4551 27.1893 14.4388 25.2577 12.915C23.7444 11.7225 20.8283 10.4385 18 10.4385C15.1717 10.4385 12.2556 11.7225 10.7432 12.9157C8.81171 14.4396 7.69551 17.4558 8.20046 19.7824C8.62665 21.7436 9.47319 24.0353 14.154 26.4142C17.1566 27.9398 16.9945 30.7366 16.8645 32.9839C16.8521 33.1984 16.8402 33.4062 16.8314 33.6049C16.8275 33.6825 16.801 33.7572 16.7552 33.8199C16.7094 33.8827 16.6464 33.9307 16.5737 33.9581C16.501 33.9855 16.4219 33.991 16.3461 33.9741C16.2703 33.9572 16.2011 33.9185 16.147 33.8629C16.1091 33.8235 16.0795 33.7769 16.0602 33.7258C16.0408 33.6747 16.032 33.6202 16.0343 33.5656C16.1562 30.3594 15.7905 28.3896 13.5006 27.163C8.0115 24.2225 7.09864 21.2438 6.91749 18.9773C6.7534 16.938 7.61993 14.0299 9.92498 12.1306C12.4817 10.0226 15.773 9.27159 18 9.27159C20.227 9.27159 23.5183 10.0226 26.077 12.1306C28.382 14.0299 29.2485 16.938 29.0845 18.9773V18.9773ZM31.262 10.124C31.0652 12.2123 30.2172 13.9073 29.28 15.4992C29.0754 14.9339 28.8175 14.3893 28.51 13.8727C29.3344 12.3505 29.7632 11.111 29.7962 10.114C29.8313 9.04752 29.7993 6.7649 29.7769 5.49899C29.7754 5.39876 29.7938 5.29921 29.831 5.20615C29.8683 5.1131 29.9238 5.02839 29.9941 4.95696C30.0644 4.88553 30.1483 4.8288 30.2408 4.79009C30.3332 4.75137 30.4325 4.73144 30.5327 4.73145C30.7299 4.73239 30.919 4.80993 31.06 4.94769C31.201 5.08546 31.283 5.27266 31.2886 5.46974C31.3178 6.7905 31.3534 9.15115 31.262 10.124Z"/>
</mask>
<path d="M32.0195 5.4534C32.0087 5.06549 31.8475 4.69699 31.57 4.42577C31.2924 4.15455 30.9203 4.00187 30.5323 4C30.3349 3.99997 30.1395 4.03924 29.9574 4.1155C29.7753 4.19176 29.6103 4.3035 29.4719 4.4442C29.3334 4.5849 29.2244 4.75175 29.1511 4.93502C29.0778 5.11829 29.0417 5.31432 29.045 5.51167C29.0674 6.77075 29.0991 9.03972 29.0647 10.0898C29.0379 10.9018 28.7022 11.9214 28.0524 13.1805C27.619 12.5805 27.111 12.038 26.5407 11.5662C23.8341 9.33499 20.3541 8.54014 18 8.54014C15.6459 8.54014 12.1659 9.33499 9.45807 11.5662C8.8884 12.0378 8.38093 12.58 7.94786 13.1795C7.2993 11.9219 6.96162 10.9013 6.9348 10.0898C6.90042 9.03972 6.93211 6.77075 6.95455 5.51167C6.95778 5.31432 6.9217 5.11829 6.84841 4.93502C6.77511 4.75175 6.66608 4.5849 6.52764 4.4442C6.38921 4.3035 6.22416 4.19176 6.04211 4.1155C5.86005 4.03924 5.66464 3.99997 5.46726 4C5.07929 4.002 4.70729 4.15474 4.42985 4.42594C4.15241 4.69715 3.99127 5.06558 3.98045 5.4534C3.95071 6.79001 3.91511 9.18382 4.0102 10.1925C4.24548 12.6911 5.32462 14.6141 6.43156 16.4428C6.21243 17.2886 6.13011 18.1641 6.18774 19.036C6.47642 22.6284 8.69053 25.4158 13.1556 27.8079C15.1171 28.8585 15.418 30.5618 15.3039 33.5376C15.2909 33.8373 15.3976 34.1298 15.6003 34.3508C15.803 34.5718 16.0853 34.7033 16.3849 34.7162C16.6846 34.7291 16.9771 34.6225 17.1982 34.4198C17.4192 34.217 17.5506 33.9348 17.5636 33.6351C17.5636 33.6122 17.5662 33.5864 17.5675 33.5634C17.8559 33.5293 18.1475 33.5306 18.4357 33.5673C18.4357 33.5893 18.4384 33.6134 18.4394 33.6351C18.4523 33.9348 18.5837 34.217 18.8048 34.4198C19.0258 34.6225 19.3183 34.7291 19.618 34.7162C19.9176 34.7033 20.1999 34.5718 20.4026 34.3508C20.6054 34.1298 20.712 33.8373 20.6991 33.5376C20.585 30.5618 20.8858 28.8585 22.8473 27.8079C27.3124 25.4158 29.5265 22.6284 29.8152 19.036C29.8724 18.1641 29.7897 17.2886 29.5701 16.4428C30.6771 14.6141 31.7562 12.6911 31.9915 10.1925C32.0851 9.18309 32.0495 6.79001 32.0195 5.4534V5.4534ZM4.738 10.124C4.64656 9.15115 4.68216 6.7905 4.71142 5.46974C4.71699 5.27257 4.79902 5.0853 4.94016 4.94752C5.08131 4.80975 5.2705 4.73226 5.46774 4.73145C5.56799 4.73144 5.66724 4.75137 5.75972 4.79009C5.85219 4.8288 5.93604 4.88553 6.00638 4.95696C6.07672 5.02839 6.13215 5.1131 6.16944 5.20615C6.20673 5.29921 6.22513 5.39876 6.22358 5.49899C6.20115 6.7649 6.16921 9.04752 6.20432 10.114C6.23723 11.1112 6.66587 12.3505 7.49046 13.8729C7.18289 14.3894 6.92507 14.934 6.72048 15.4992C5.78251 13.9076 4.93476 12.2123 4.738 10.124V10.124ZM18.394 32.8283C18.1317 32.805 17.8679 32.8058 17.6057 32.8308C17.6974 31.216 17.7642 29.234 16.6585 27.6075C17.1014 27.6849 17.5499 27.7257 17.9995 27.7294C18.4456 27.7268 18.8909 27.6909 19.3317 27.6221C18.2367 29.2444 18.3028 31.2184 18.394 32.8283V32.8283ZM13.1946 22.6592C15.1234 22.6592 16.7353 22.0133 18.2275 21.4157C20.8063 20.3819 23.0439 19.4895 26.381 21.6595C25.6915 22.95 24.3683 24.3105 21.5146 25.7605C21.0009 26.0164 20.5251 26.3421 20.1005 26.7282C19.4136 26.9017 18.7084 26.9919 18 26.9969C17.2748 26.9898 16.5539 26.8861 15.8561 26.6885C15.4421 26.3205 14.9812 26.009 14.4854 25.762C11.8802 24.4371 10.5489 23.1873 9.81258 21.9974C10.8896 22.4243 12.0361 22.6486 13.1946 22.6592V22.6592ZM9.31397 20.998C9.1442 20.5523 9.01088 20.0936 8.91533 19.6263C8.46402 17.5507 9.46636 14.855 11.1975 13.4899C13.1751 12.0405 15.5489 11.2309 18 11.17C20.4511 11.2309 22.8249 12.0405 24.8025 13.4899C26.5336 14.8553 27.535 17.5507 27.0837 19.627C26.9887 20.0906 26.8567 20.5458 26.6889 20.9883C23.0751 18.6857 20.473 19.7268 17.9544 20.7362C15.5243 21.7105 13.0107 22.7152 9.31397 20.998V20.998ZM29.0845 18.9773C28.9023 21.2448 27.9895 24.2225 22.5014 27.163C20.2122 28.3896 19.8438 30.3594 19.9676 33.5656C19.9699 33.6202 19.9611 33.6747 19.9418 33.7258C19.9224 33.7769 19.8929 33.8235 19.855 33.8629C19.8008 33.9189 19.7315 33.9579 19.6555 33.9749C19.5794 33.992 19.5001 33.9864 19.4272 33.9589C19.3543 33.9314 19.2911 33.8832 19.2453 33.8201C19.1995 33.7571 19.1732 33.682 19.1696 33.6042C19.1608 33.4055 19.1489 33.1977 19.1364 32.9832C19.0065 30.7359 18.8439 27.939 21.847 26.4135C26.5283 24.0353 27.3743 21.7436 27.8005 19.7816C28.3062 17.4551 27.1893 14.4388 25.2577 12.915C23.7444 11.7225 20.8283 10.4385 18 10.4385C15.1717 10.4385 12.2556 11.7225 10.7432 12.9157C8.81171 14.4396 7.69551 17.4558 8.20046 19.7824C8.62665 21.7436 9.47319 24.0353 14.154 26.4142C17.1566 27.9398 16.9945 30.7366 16.8645 32.9839C16.8521 33.1984 16.8402 33.4062 16.8314 33.6049C16.8275 33.6825 16.801 33.7572 16.7552 33.8199C16.7094 33.8827 16.6464 33.9307 16.5737 33.9581C16.501 33.9855 16.4219 33.991 16.3461 33.9741C16.2703 33.9572 16.2011 33.9185 16.147 33.8629C16.1091 33.8235 16.0795 33.7769 16.0602 33.7258C16.0408 33.6747 16.032 33.6202 16.0343 33.5656C16.1562 30.3594 15.7905 28.3896 13.5006 27.163C8.0115 24.2225 7.09864 21.2438 6.91749 18.9773C6.7534 16.938 7.61993 14.0299 9.92498 12.1306C12.4817 10.0226 15.773 9.27159 18 9.27159C20.227 9.27159 23.5183 10.0226 26.077 12.1306C28.382 14.0299 29.2485 16.938 29.0845 18.9773V18.9773ZM31.262 10.124C31.0652 12.2123 30.2172 13.9073 29.28 15.4992C29.0754 14.9339 28.8175 14.3893 28.51 13.8727C29.3344 12.3505 29.7632 11.111 29.7962 10.114C29.8313 9.04752 29.7993 6.7649 29.7769 5.49899C29.7754 5.39876 29.7938 5.29921 29.831 5.20615C29.8683 5.1131 29.9238 5.02839 29.9941 4.95696C30.0644 4.88553 30.1483 4.8288 30.2408 4.79009C30.3332 4.75137 30.4325 4.73144 30.5327 4.73145C30.7299 4.73239 30.919 4.80993 31.06 4.94769C31.201 5.08546 31.283 5.27266 31.2886 5.46974C31.3178 6.7905 31.3534 9.15115 31.262 10.124Z" fill="#5F5F5F"/>
<path d="M32.0195 5.4534C32.0087 5.06549 31.8475 4.69699 31.57 4.42577C31.2924 4.15455 30.9203 4.00187 30.5323 4C30.3349 3.99997 30.1395 4.03924 29.9574 4.1155C29.7753 4.19176 29.6103 4.3035 29.4719 4.4442C29.3334 4.5849 29.2244 4.75175 29.1511 4.93502C29.0778 5.11829 29.0417 5.31432 29.045 5.51167C29.0674 6.77075 29.0991 9.03972 29.0647 10.0898C29.0379 10.9018 28.7022 11.9214 28.0524 13.1805C27.619 12.5805 27.111 12.038 26.5407 11.5662C23.8341 9.33499 20.3541 8.54014 18 8.54014C15.6459 8.54014 12.1659 9.33499 9.45807 11.5662C8.8884 12.0378 8.38093 12.58 7.94786 13.1795C7.2993 11.9219 6.96162 10.9013 6.9348 10.0898C6.90042 9.03972 6.93211 6.77075 6.95455 5.51167C6.95778 5.31432 6.9217 5.11829 6.84841 4.93502C6.77511 4.75175 6.66608 4.5849 6.52764 4.4442C6.38921 4.3035 6.22416 4.19176 6.04211 4.1155C5.86005 4.03924 5.66464 3.99997 5.46726 4C5.07929 4.002 4.70729 4.15474 4.42985 4.42594C4.15241 4.69715 3.99127 5.06558 3.98045 5.4534C3.95071 6.79001 3.91511 9.18382 4.0102 10.1925C4.24548 12.6911 5.32462 14.6141 6.43156 16.4428C6.21243 17.2886 6.13011 18.1641 6.18774 19.036C6.47642 22.6284 8.69053 25.4158 13.1556 27.8079C15.1171 28.8585 15.418 30.5618 15.3039 33.5376C15.2909 33.8373 15.3976 34.1298 15.6003 34.3508C15.803 34.5718 16.0853 34.7033 16.3849 34.7162C16.6846 34.7291 16.9771 34.6225 17.1982 34.4198C17.4192 34.217 17.5506 33.9348 17.5636 33.6351C17.5636 33.6122 17.5662 33.5864 17.5675 33.5634C17.8559 33.5293 18.1475 33.5306 18.4357 33.5673C18.4357 33.5893 18.4384 33.6134 18.4394 33.6351C18.4523 33.9348 18.5837 34.217 18.8048 34.4198C19.0258 34.6225 19.3183 34.7291 19.618 34.7162C19.9176 34.7033 20.1999 34.5718 20.4026 34.3508C20.6054 34.1298 20.712 33.8373 20.6991 33.5376C20.585 30.5618 20.8858 28.8585 22.8473 27.8079C27.3124 25.4158 29.5265 22.6284 29.8152 19.036C29.8724 18.1641 29.7897 17.2886 29.5701 16.4428C30.6771 14.6141 31.7562 12.6911 31.9915 10.1925C32.0851 9.18309 32.0495 6.79001 32.0195 5.4534V5.4534ZM4.738 10.124C4.64656 9.15115 4.68216 6.7905 4.71142 5.46974C4.71699 5.27257 4.79902 5.0853 4.94016 4.94752C5.08131 4.80975 5.2705 4.73226 5.46774 4.73145C5.56799 4.73144 5.66724 4.75137 5.75972 4.79009C5.85219 4.8288 5.93604 4.88553 6.00638 4.95696C6.07672 5.02839 6.13215 5.1131 6.16944 5.20615C6.20673 5.29921 6.22513 5.39876 6.22358 5.49899C6.20115 6.7649 6.16921 9.04752 6.20432 10.114C6.23723 11.1112 6.66587 12.3505 7.49046 13.8729C7.18289 14.3894 6.92507 14.934 6.72048 15.4992C5.78251 13.9076 4.93476 12.2123 4.738 10.124V10.124ZM18.394 32.8283C18.1317 32.805 17.8679 32.8058 17.6057 32.8308C17.6974 31.216 17.7642 29.234 16.6585 27.6075C17.1014 27.6849 17.5499 27.7257 17.9995 27.7294C18.4456 27.7268 18.8909 27.6909 19.3317 27.6221C18.2367 29.2444 18.3028 31.2184 18.394 32.8283V32.8283ZM13.1946 22.6592C15.1234 22.6592 16.7353 22.0133 18.2275 21.4157C20.8063 20.3819 23.0439 19.4895 26.381 21.6595C25.6915 22.95 24.3683 24.3105 21.5146 25.7605C21.0009 26.0164 20.5251 26.3421 20.1005 26.7282C19.4136 26.9017 18.7084 26.9919 18 26.9969C17.2748 26.9898 16.5539 26.8861 15.8561 26.6885C15.4421 26.3205 14.9812 26.009 14.4854 25.762C11.8802 24.4371 10.5489 23.1873 9.81258 21.9974C10.8896 22.4243 12.0361 22.6486 13.1946 22.6592V22.6592ZM9.31397 20.998C9.1442 20.5523 9.01088 20.0936 8.91533 19.6263C8.46402 17.5507 9.46636 14.855 11.1975 13.4899C13.1751 12.0405 15.5489 11.2309 18 11.17C20.4511 11.2309 22.8249 12.0405 24.8025 13.4899C26.5336 14.8553 27.535 17.5507 27.0837 19.627C26.9887 20.0906 26.8567 20.5458 26.6889 20.9883C23.0751 18.6857 20.473 19.7268 17.9544 20.7362C15.5243 21.7105 13.0107 22.7152 9.31397 20.998V20.998ZM29.0845 18.9773C28.9023 21.2448 27.9895 24.2225 22.5014 27.163C20.2122 28.3896 19.8438 30.3594 19.9676 33.5656C19.9699 33.6202 19.9611 33.6747 19.9418 33.7258C19.9224 33.7769 19.8929 33.8235 19.855 33.8629C19.8008 33.9189 19.7315 33.9579 19.6555 33.9749C19.5794 33.992 19.5001 33.9864 19.4272 33.9589C19.3543 33.9314 19.2911 33.8832 19.2453 33.8201C19.1995 33.7571 19.1732 33.682 19.1696 33.6042C19.1608 33.4055 19.1489 33.1977 19.1364 32.9832C19.0065 30.7359 18.8439 27.939 21.847 26.4135C26.5283 24.0353 27.3743 21.7436 27.8005 19.7816C28.3062 17.4551 27.1893 14.4388 25.2577 12.915C23.7444 11.7225 20.8283 10.4385 18 10.4385C15.1717 10.4385 12.2556 11.7225 10.7432 12.9157C8.81171 14.4396 7.69551 17.4558 8.20046 19.7824C8.62665 21.7436 9.47319 24.0353 14.154 26.4142C17.1566 27.9398 16.9945 30.7366 16.8645 32.9839C16.8521 33.1984 16.8402 33.4062 16.8314 33.6049C16.8275 33.6825 16.801 33.7572 16.7552 33.8199C16.7094 33.8827 16.6464 33.9307 16.5737 33.9581C16.501 33.9855 16.4219 33.991 16.3461 33.9741C16.2703 33.9572 16.2011 33.9185 16.147 33.8629C16.1091 33.8235 16.0795 33.7769 16.0602 33.7258C16.0408 33.6747 16.032 33.6202 16.0343 33.5656C16.1562 30.3594 15.7905 28.3896 13.5006 27.163C8.0115 24.2225 7.09864 21.2438 6.91749 18.9773C6.7534 16.938 7.61993 14.0299 9.92498 12.1306C12.4817 10.0226 15.773 9.27159 18 9.27159C20.227 9.27159 23.5183 10.0226 26.077 12.1306C28.382 14.0299 29.2485 16.938 29.0845 18.9773V18.9773ZM31.262 10.124C31.0652 12.2123 30.2172 13.9073 29.28 15.4992C29.0754 14.9339 28.8175 14.3893 28.51 13.8727C29.3344 12.3505 29.7632 11.111 29.7962 10.114C29.8313 9.04752 29.7993 6.7649 29.7769 5.49899C29.7754 5.39876 29.7938 5.29921 29.831 5.20615C29.8683 5.1131 29.9238 5.02839 29.9941 4.95696C30.0644 4.88553 30.1483 4.8288 30.2408 4.79009C30.3332 4.75137 30.4325 4.73144 30.5327 4.73145C30.7299 4.73239 30.919 4.80993 31.06 4.94769C31.201 5.08546 31.283 5.27266 31.2886 5.46974C31.3178 6.7905 31.3534 9.15115 31.262 10.124Z" stroke="#5F5F5F" stroke-width="0.2" mask="url(#path-1-outside-1_102_11265)"/>
</svg>
