<svg width="36" height="36" viewBox="0 0 36 36" fill="none" xmlns="http://www.w3.org/2000/svg">
<path d="M30.8813 11.712L32 10.5933L26.4067 5L25.288 6.11865L26.4067 7.23731L24.7287 8.91532L23.61 7.79666L22.4914 8.91532L21.093 7.51701C19.7051 6.12915 17.4469 6.12915 16.059 7.51701C14.6712 8.90488 14.6712 11.1631 16.059 12.551L17.4573 13.9493L14.1013 17.3053L15.22 18.424L12.9826 20.6613L14.1013 21.78L5 30.8813L6.11865 32L15.22 22.8986L16.3387 24.0173L18.576 21.7799L19.6947 22.8986L23.0507 19.5426L24.449 20.9409C25.8369 22.3287 28.0951 22.3287 29.483 20.9409C30.8709 19.553 30.8709 17.2948 29.483 15.9069L28.0846 14.5085L29.2033 13.3899L28.0846 12.2712L29.7626 10.5932L30.8813 11.712ZM26.966 13.39L24.449 15.907L21.932 18.424L20.8134 17.3053L23.3304 14.7883L22.2117 13.6696L19.6947 16.1866L18.576 15.068L21.093 12.551L23.61 10.034L26.966 13.39ZM17.1777 8.63567C17.9487 7.86464 19.2033 7.86464 19.9743 8.63567C20.7454 9.4067 20.7454 10.6613 19.9743 11.4323C19.2033 12.2034 17.9487 12.2034 17.1777 11.4323C16.4067 10.6612 16.4067 9.4067 17.1777 8.63567ZM16.3387 21.78L15.22 20.6613L16.3387 19.5427L17.4573 20.6613L16.3387 21.78ZM16.3387 17.3053L17.4573 16.1866L20.8134 19.5427L19.6947 20.6613L16.3387 17.3053ZM28.3643 19.8223C27.5933 20.5933 26.3387 20.5933 25.5677 19.8223C24.7966 19.0513 24.7966 17.7967 25.5677 17.0257C26.3387 16.2546 27.5933 16.2546 28.3643 17.0257C29.1354 17.7967 29.1354 19.0513 28.3643 19.8223ZM26.966 11.1527L25.8473 10.034L27.5253 8.35602L28.644 9.47467L26.966 11.1527Z" fill="#5F5F5F"/>
</svg>
