<svg width="36" height="36" viewBox="0 0 36 36" fill="none" xmlns="http://www.w3.org/2000/svg">
<path d="M34.2217 15.8634C33.8217 14.4634 32.6217 13.3634 30.8217 12.7634C29.1217 12.2634 26.9217 12.2634 24.8217 12.7634C22.7217 13.2634 20.8217 14.2634 19.6217 15.5634C18.3217 16.9634 17.7217 18.4634 18.1217 19.9634C18.2217 20.5634 18.5217 21.0634 18.9217 21.4634C19.1217 21.7634 19.5217 21.7634 19.8217 21.5634C20.1217 21.3634 20.1217 20.9634 19.9217 20.6634C19.6217 20.3634 19.4217 19.9634 19.3217 19.6634C19.0217 18.6634 19.5217 17.4634 20.5217 16.4634C21.6217 15.3634 23.3217 14.4634 25.2217 13.9634C27.1217 13.4634 29.0217 13.4634 30.5217 13.9634C31.9217 14.3634 32.8217 15.1634 33.1217 16.2634C33.4217 17.2634 32.9217 18.4634 31.9217 19.4634C30.8217 20.5634 29.1217 21.4634 27.2217 21.9634C25.1217 22.4634 23.0217 22.4634 21.5217 21.8634C21.3217 21.7634 21.2217 21.7634 21.0217 21.8634C20.9217 21.9634 20.7217 22.0634 20.7217 22.1634C20.6217 22.4634 20.7217 22.8634 21.0217 22.9634C22.0217 23.3634 23.1217 23.5634 24.4217 23.5634C25.4217 23.5634 26.5217 23.4634 27.5217 23.1634C29.6217 22.6634 31.5217 21.6634 32.7217 20.3634C34.0217 18.8634 34.5217 17.3634 34.2217 15.8634Z" fill="#5F5F5F"/>
<path d="M22.1217 18.3634C22.3217 18.2634 22.4217 18.1634 22.4217 18.0634C22.4217 17.9634 22.5217 17.7634 22.4217 17.5634C22.3217 17.3634 22.2217 17.2634 22.1217 17.2634C22.0217 17.1634 21.8217 17.1634 21.6217 17.2634C21.2217 17.4634 20.9217 17.8634 20.8217 18.2634C20.7217 18.7634 20.7217 19.9634 22.6217 20.3634C23.0217 20.4634 23.4217 20.4634 23.9217 20.4634C25.0217 20.4634 26.3217 20.2634 27.5217 19.8634C28.4217 19.5634 30.7217 18.6634 31.1217 17.1634C31.2217 16.8634 31.2217 16.6634 31.1217 16.3634C31.0217 15.9634 30.7217 15.5634 30.4217 15.4634C30.0217 15.2634 29.6217 15.3634 29.3217 15.4634C29.0217 15.6634 28.9217 15.9634 29.1217 16.2634C29.2217 16.3634 29.3217 16.4634 29.5217 16.5634C29.7217 16.5634 29.8217 16.5634 30.0217 16.4634C30.0217 16.4634 30.0217 16.4634 30.1217 16.4634C30.1217 16.4634 30.1217 16.4634 30.1217 16.5634C30.1217 16.6634 30.1217 16.6634 30.1217 16.7634C30.0217 17.3634 28.8217 18.0634 27.3217 18.5634C25.7217 19.0634 24.1217 19.2634 23.0217 18.9634C22.1217 18.7634 22.2217 18.3634 22.2217 18.2634C22.0217 18.3634 22.1217 18.3634 22.1217 18.3634Z" fill="#5F5F5F"/>
<path d="M10.9216 20.2633C8.72163 19.9633 6.62163 20.1633 4.92163 20.9633C3.12163 21.7633 2.02163 23.0633 1.72163 24.6633C1.52163 26.2633 2.12163 27.7633 3.62163 29.1633C5.02163 30.4633 6.92163 31.2633 9.12163 31.6633C9.72163 31.7633 10.4216 31.8633 11.0216 31.8633C12.5216 31.8633 13.9216 31.5633 15.0216 31.0633C16.8216 30.2633 17.9216 28.9633 18.1216 27.3633C18.3216 25.7633 17.7216 24.2633 16.2216 22.8633C15.0216 21.4633 13.0216 20.5633 10.9216 20.2633ZM17.0216 26.9633C16.8216 28.0633 15.9216 29.0633 14.5216 29.6633C13.0216 30.3633 11.1216 30.5633 9.22163 30.2633C7.32163 29.9633 5.62163 29.1633 4.42163 28.0633C3.32163 27.0633 2.72163 25.8633 2.92163 24.6633C3.12163 23.5633 4.02163 22.5633 5.42163 21.9633C6.42163 21.4633 7.62163 21.2633 8.92163 21.2633C9.52163 21.2633 10.1216 21.2633 10.6216 21.3633C12.5216 21.6633 14.2216 22.4633 15.4216 23.5633C16.6216 24.6633 17.2216 25.8633 17.0216 26.9633Z" fill="#5F5F5F"/>
<path d="M13.5216 25.5634C13.2216 25.5634 12.9216 25.8634 12.9216 26.2634C12.9216 26.4634 13.0216 26.5634 13.1216 26.6634C13.2216 26.7634 13.4216 26.8634 13.5216 26.8634C13.5216 26.8634 13.5216 26.9634 13.4216 26.9634C13.2216 27.3634 12.1216 27.5634 10.7216 27.3634C9.3216 27.1634 7.9216 26.7634 7.1216 26.1634C6.5216 25.7634 6.7216 25.5634 6.7216 25.4634C7.0216 25.4634 7.3216 25.2634 7.3216 24.8634C7.3216 24.5634 7.1216 24.2634 6.7216 24.2634C6.3216 24.2634 5.9216 24.4634 5.6216 24.7634C5.0216 25.5634 5.3216 26.4634 6.2216 27.2634C7.3216 28.1634 9.5216 28.7634 11.4216 28.7634C12.4216 28.7634 13.6216 28.5634 14.3216 27.7634C14.5216 27.5634 14.6216 27.3634 14.6216 27.1634C14.7216 26.7634 14.6216 26.3634 14.3216 26.0634C14.3216 25.6634 13.9216 25.5634 13.5216 25.5634Z" fill="#5F5F5F"/>
<path d="M4.62165 15.6634C5.52165 15.9634 6.62165 16.1634 7.72165 16.1634C8.62165 16.1634 9.62165 16.0634 10.5217 15.8634C12.0217 15.5634 13.4216 14.9634 14.5217 14.1634C14.6217 14.0634 14.7217 13.9634 14.8217 13.7634C14.9217 13.5634 14.8217 13.4634 14.7217 13.2634C14.6216 13.1634 14.5217 13.0634 14.3217 12.9634C14.1217 12.9634 14.0217 12.9634 13.8217 13.0634C12.8217 13.7634 11.5217 14.2634 10.2217 14.5634C8.32165 14.9634 6.42165 14.9634 4.92165 14.4634C3.52165 13.9634 2.62165 13.1634 2.42165 12.1634C2.22165 11.1634 2.62165 10.0634 3.72165 8.96335C4.82165 7.86335 6.52165 6.96335 8.42165 6.56335C10.3216 6.16335 12.2217 6.16335 13.7217 6.66335C15.1216 7.16335 16.0217 7.96335 16.2217 8.96335C16.4216 10.0634 15.9217 11.0634 15.3217 11.6634C15.2217 11.7634 15.1216 11.9634 15.2217 12.0634C15.3217 12.1634 15.3216 12.3634 15.4216 12.4634C15.5217 12.5634 15.7217 12.6634 15.8217 12.5634C16.0217 12.5634 16.1216 12.4634 16.2217 12.3634C17.2216 11.1634 17.6216 9.86335 17.3216 8.66335C17.0217 7.26335 15.8217 6.06335 14.0217 5.46335C12.3217 4.86335 10.2217 4.86335 8.02165 5.36335C5.92165 5.86335 4.02165 6.76335 2.72165 8.06335C1.32165 9.36335 0.72165 10.9634 1.12165 12.3634C1.52165 13.8634 2.72165 14.9634 4.62165 15.6634Z" fill="#5F5F5F"/>
<path d="M5.82166 11.0633C6.12166 10.9633 6.32166 10.5633 6.12166 10.2633C6.12166 10.1633 6.02166 9.96327 5.82166 9.96327C5.72166 9.86327 5.52166 9.86327 5.32166 9.96327C4.92166 10.0633 4.62166 10.4633 4.52166 10.8633C4.32166 11.8633 4.92166 12.5633 6.12166 12.8633C6.42166 12.9633 6.82166 12.9633 7.32166 12.9633C9.72166 12.9633 13.3217 11.8633 13.7217 9.96327C13.8217 9.76327 13.8217 9.46327 13.7217 9.26327C13.7217 8.86327 13.4217 8.56327 13.1217 8.36327C12.8217 8.16327 12.4217 8.26327 12.0217 8.36327C11.7217 8.66327 11.6217 8.96327 11.7217 9.26327C11.8217 9.36327 11.9217 9.46327 12.1217 9.56327C12.3217 9.56327 12.4217 9.56327 12.5217 9.56327C12.5217 9.56327 12.5217 9.66327 12.5217 9.76327C12.4217 10.2633 11.4217 10.8633 10.1217 11.3633C8.72166 11.7633 7.32166 11.9633 6.32166 11.7633C5.72166 11.4633 5.72166 11.2633 5.82166 11.0633Z" fill="#5F5F5F"/>
</svg>
