<svg width="36" height="36" viewBox="0 0 36 36" fill="none" xmlns="http://www.w3.org/2000/svg">
<g clip-path="url(#clip0_102_11388)">
<path d="M15.9258 31.7812C9.62564 31.7812 4.5 26.6557 4.5 20.3555C4.5 18.8167 4.8008 17.3235 5.39409 15.9173C5.50737 15.649 5.8166 15.5233 6.08498 15.6364C6.3533 15.7496 6.47909 16.059 6.36588 16.3273C5.82764 17.603 5.55469 18.9583 5.55469 20.3555C5.55469 26.0741 10.2071 30.7266 15.9258 30.7266C21.6445 30.7266 26.2969 26.0741 26.2969 20.3555C26.2969 14.6368 21.6444 9.98438 15.9258 9.98438C12.6076 9.98438 9.46399 11.5917 7.51655 14.2841C7.34583 14.5201 7.0162 14.573 6.78016 14.4024C6.5442 14.2317 6.49125 13.902 6.6619 13.666C8.80713 10.7003 12.2702 8.92969 15.9258 8.92969C22.226 8.92969 27.3516 14.0553 27.3516 20.3555C27.3516 26.6557 22.226 31.7812 15.9258 31.7812Z" fill="#5F5F5F"/>
<path d="M15.927 36C15.2184 36 14.5467 35.7235 14.03 35.2176C13.5905 34.7873 13.3041 34.22 13.214 33.6183C11.5139 33.2736 9.92214 32.6146 8.47181 31.655C7.99495 32.0224 7.41374 32.2214 6.80195 32.2214C6.09159 32.2214 5.41792 31.9506 4.90513 31.4591C4.37821 30.9539 4.08374 30.2668 4.07594 29.5241C4.06947 28.9088 4.26817 28.3049 4.63028 27.8156C3.66988 26.3657 3.01 24.7744 2.66435 23.0745C2.06746 22.997 1.516 22.727 1.08386 22.2949C0.581548 21.7925 0.296712 21.1246 0.281736 20.4142C0.266337 19.6844 0.544001 18.9903 1.06361 18.4596C1.49399 18.0201 2.06113 17.7338 2.6628 17.6437C3.00761 15.9434 3.66658 14.3518 4.62606 12.9015C4.25868 12.4246 4.0597 11.8434 4.0597 11.2316C4.0597 10.5213 4.3304 9.84769 4.82202 9.33483C5.32722 8.80791 6.01438 8.51344 6.75709 8.50563C7.37198 8.49593 7.97624 8.69787 8.46555 9.05998C9.91546 8.09958 11.5067 7.4397 13.2066 7.09404C13.284 6.49716 13.554 5.94577 13.9861 5.51355C14.4884 5.01131 15.1563 4.72648 15.8667 4.71143C16.5973 4.69547 17.2908 4.9737 17.8215 5.4933C18.2609 5.92362 18.5473 6.49083 18.6374 7.09249C20.249 7.41973 21.7715 8.03341 23.1684 8.91949C23.1907 8.93363 23.2544 8.97138 23.3975 9.0424C23.4046 9.03712 23.4116 9.03185 23.4187 9.02651C23.488 8.97525 23.5123 8.88757 23.4792 8.80826C23.4357 8.70391 23.3939 8.59549 23.3554 8.4863C23.1145 7.80659 22.9922 7.092 22.9922 6.36328C22.9922 4.66355 23.654 3.06562 24.8559 1.86377C26.0578 0.661922 27.6557 0 29.3555 0C31.0552 0 32.6531 0.661922 33.855 1.86384C33.9805 1.98935 34.1028 2.12224 34.2181 2.25865C34.4061 2.48105 34.3781 2.81384 34.1556 3.00178C33.9332 3.18973 33.6004 3.16181 33.4125 2.93934C33.3162 2.82544 33.2142 2.71448 33.1093 2.60965C32.1066 1.60692 30.7735 1.05469 29.3555 1.05469C27.9375 1.05469 26.6043 1.60692 25.6017 2.60958C24.5991 3.61216 24.0469 4.94529 24.0469 6.36328C24.0469 6.97162 24.1488 7.56766 24.3499 8.13473C24.3821 8.226 24.4166 8.31586 24.4529 8.40263C24.6724 8.92976 24.5052 9.53494 24.0464 9.87448C24.022 9.89255 23.998 9.91132 23.9744 9.93094C23.7151 10.1456 23.3487 10.1892 23.041 10.0419C22.8437 9.94746 22.7008 9.87181 22.6041 9.81063C21.2079 8.92491 19.6762 8.33463 18.0515 8.05584C17.7984 8.01246 17.6134 7.79295 17.6134 7.53609V7.50087C17.6134 7.03357 17.4204 6.57654 17.0838 6.24705C16.7574 5.92741 16.3315 5.75887 15.8892 5.76598C15.4521 5.77526 15.0411 5.95048 14.7322 6.2595C14.4136 6.57788 14.2383 7.00179 14.2383 7.45312V7.53609C14.2383 7.79287 14.0533 8.01239 13.8002 8.05584C11.9638 8.37098 10.2586 9.07748 8.73189 10.1557C8.52194 10.3039 8.2357 10.2793 8.05429 10.0974L8.02919 10.0722C7.69921 9.74222 7.24183 9.55638 6.76834 9.56046C6.31159 9.56524 5.89085 9.7444 5.58351 10.065C5.2811 10.3804 5.11452 10.7949 5.11452 11.2319C5.11452 11.6827 5.29017 12.1066 5.6091 12.4256L5.66809 12.4846C5.84964 12.6662 5.87404 12.9521 5.72596 13.1617C4.64779 14.6884 3.94129 16.3936 3.62615 18.23C3.5827 18.4831 3.36325 18.6681 3.1064 18.6681H3.07117C2.60388 18.6681 2.14685 18.8611 1.81736 19.1977C1.49779 19.5241 1.32693 19.9483 1.33635 20.3922C1.34556 20.8294 1.52078 21.2403 1.82981 21.5493C2.14818 21.8676 2.5721 22.043 3.02343 22.043H3.1064C3.36325 22.043 3.5827 22.228 3.62615 22.4811C3.94129 24.3174 4.64779 26.0227 5.72596 27.5494C5.87404 27.7591 5.84957 28.045 5.66809 28.2265L5.64292 28.2517C5.31245 28.5822 5.12577 29.0419 5.1307 29.513C5.13548 29.9697 5.3147 30.3904 5.63519 30.6977C5.95061 31.0001 6.36503 31.1667 6.80209 31.1667C7.25294 31.1667 7.67685 30.9911 7.99586 30.6722L8.05485 30.6131C8.2364 30.4317 8.52229 30.4071 8.73196 30.5554C10.2587 31.6335 11.9639 32.34 13.8002 32.6552C14.0534 32.6985 14.2383 32.9181 14.2383 33.1749V33.2101C14.2383 33.6774 14.4314 34.1345 14.768 34.464C15.0943 34.7835 15.52 34.9538 15.9625 34.945C16.3996 34.9357 16.8105 34.7605 17.1195 34.4515C17.438 34.1331 17.6133 33.7091 17.6133 33.2578V33.1748C17.6133 32.9181 17.7983 32.6985 18.0515 32.6551C19.8878 32.34 21.593 31.6335 23.1197 30.5553C23.329 30.4073 23.6146 30.4314 23.7963 30.6126L23.8214 30.6377C24.1525 30.9688 24.6144 31.1573 25.0832 31.1505C25.54 31.1458 25.9607 30.9666 26.268 30.6461C26.5705 30.3306 26.737 29.9161 26.737 29.4791C26.737 29.0282 26.5614 28.6044 26.2425 28.2855L26.1837 28.2266C26.0019 28.0451 25.9774 27.7591 26.1256 27.5493C27.2038 26.0225 27.9103 24.3173 28.2255 22.4809C28.2689 22.2278 28.4884 22.0428 28.7452 22.0428H28.7804C29.2477 22.0428 29.7048 21.8498 30.0343 21.5132C30.3538 21.1868 30.5247 20.7626 30.5153 20.3188C30.5061 19.8816 30.3308 19.4707 30.0218 19.1616C29.7034 18.8433 29.2794 18.6679 28.8281 18.6679H28.7452C28.4884 18.6679 28.2689 18.4829 28.2254 18.2299C27.9248 16.4789 27.2667 14.8441 26.2694 13.3709C26.2379 13.3236 26.2128 13.275 26.19 13.2183C26.0684 12.9168 26.1258 12.5726 26.3393 12.3202C26.407 12.2401 26.4671 12.1539 26.5182 12.0637C26.7997 11.567 27.3763 11.325 27.9207 11.4754C28.3882 11.6063 28.8688 11.6719 29.3554 11.6719C30.7734 11.6719 32.1065 11.1197 33.1091 10.1171C34.1119 9.1144 34.6641 7.78127 34.6641 6.36328C34.6641 5.87088 34.5968 5.38341 34.4641 4.91456C34.3848 4.63437 34.5477 4.34285 34.828 4.26354C35.1082 4.18409 35.3997 4.34721 35.479 4.62741C35.6381 5.18977 35.7187 5.77378 35.7187 6.36328C35.7187 8.06302 35.0568 9.66094 33.855 10.8629C32.6531 12.0647 31.0552 12.7266 29.3555 12.7266C28.7726 12.7266 28.1963 12.6478 27.6424 12.4926C27.5628 12.4707 27.4786 12.5082 27.4359 12.5835C27.3734 12.6939 27.3025 12.8007 27.2246 12.902C28.182 14.3481 28.8417 15.9394 29.1871 17.6363C29.7839 17.7138 30.3353 17.9838 30.7675 18.416C31.2699 18.9184 31.5547 19.5863 31.5697 20.2966C31.5851 21.0265 31.3074 21.7206 30.7878 22.2513C30.3575 22.6908 29.7903 22.9771 29.1886 23.0672C28.8439 24.7674 28.1849 26.359 27.2253 27.8094C27.5928 28.2863 27.7917 28.8675 27.7917 29.4792C27.7917 30.1897 27.5209 30.8633 27.0294 31.3761C26.5241 31.903 25.837 32.1976 25.0942 32.2053C25.0846 32.2054 25.0749 32.2054 25.0653 32.2054C24.46 32.2054 23.8676 32.0073 23.3859 31.6509C21.9359 32.6114 20.3448 33.2712 18.6449 33.6169C18.5674 34.2137 18.2974 34.7652 17.8652 35.1974C17.3629 35.6997 16.695 35.9845 15.9846 35.9994C15.9654 35.9998 15.9462 36 15.927 36Z" fill="#5F5F5F"/>
<path d="M20.6367 26.6484C18.6013 26.6484 16.9453 24.9924 16.9453 22.957C16.9453 20.9216 18.6013 19.2656 20.6367 19.2656C22.6721 19.2656 24.3281 20.9216 24.3281 22.957C24.3281 24.9924 22.6721 26.6484 20.6367 26.6484ZM20.6367 20.3203C19.1828 20.3203 18 21.5031 18 22.957C18 24.411 19.1828 25.5938 20.6367 25.5938C22.0906 25.5938 23.2734 24.411 23.2734 22.957C23.2734 21.5031 22.0906 20.3203 20.6367 20.3203Z" fill="#5F5F5F"/>
<path d="M13.5703 17.9297C12.4072 17.9297 11.4609 16.9834 11.4609 15.8203C11.4609 14.6572 12.4072 13.7109 13.5703 13.7109C14.7334 13.7109 15.6797 14.6572 15.6797 15.8203C15.6797 16.9834 14.7334 17.9297 13.5703 17.9297ZM13.5703 14.7656C12.9888 14.7656 12.5156 15.2388 12.5156 15.8203C12.5156 16.4019 12.9888 16.875 13.5703 16.875C14.1519 16.875 14.625 16.4019 14.625 15.8203C14.625 15.2388 14.1519 14.7656 13.5703 14.7656Z" fill="#5F5F5F"/>
<path d="M13.7812 21.8672C13.3935 21.8672 13.0781 21.5518 13.0781 21.1641C13.0781 20.7764 13.3935 20.4609 13.7812 20.4609C14.169 20.4609 14.4844 20.7764 14.4844 21.1641C14.4844 21.5518 14.169 21.8672 13.7812 21.8672Z" fill="#5F5F5F"/>
<path d="M20.1094 16.2422C19.7217 16.2422 19.4062 15.9268 19.4062 15.5391C19.4062 15.1514 19.7217 14.8359 20.1094 14.8359C20.4971 14.8359 20.8125 15.1514 20.8125 15.5391C20.8125 15.9268 20.4971 16.2422 20.1094 16.2422Z" fill="#5F5F5F"/>
<path d="M20.1094 23.2734C19.7217 23.2734 19.4062 22.958 19.4062 22.5703C19.4062 22.1826 19.7217 21.8672 20.1094 21.8672C20.4971 21.8672 20.8125 22.1826 20.8125 22.5703C20.8125 22.958 20.4971 23.2734 20.1094 23.2734Z" fill="#5F5F5F"/>
<path d="M8.54297 21.9375C7.6706 21.9375 6.96094 21.2278 6.96094 20.3555C6.96094 19.4832 7.6706 18.7734 8.54297 18.7734C9.41534 18.7734 10.125 19.4832 10.125 20.3555C10.125 21.2278 9.41534 21.9375 8.54297 21.9375ZM8.54297 19.8281C8.25216 19.8281 8.01562 20.0647 8.01562 20.3555C8.01562 20.6463 8.25216 20.8828 8.54297 20.8828C8.83378 20.8828 9.07031 20.6463 9.07031 20.3555C9.07031 20.0647 8.83378 19.8281 8.54297 19.8281Z" fill="#5F5F5F"/>
<path d="M12.832 28.6172C11.572 28.6172 10.5469 27.5921 10.5469 26.332C10.5469 25.072 11.572 24.0469 12.832 24.0469C14.092 24.0469 15.1172 25.072 15.1172 26.332C15.1172 27.5921 14.0921 28.6172 12.832 28.6172ZM12.832 25.1016C12.1536 25.1016 11.6016 25.6536 11.6016 26.332C11.6016 27.0105 12.1536 27.5625 12.832 27.5625C13.5105 27.5625 14.0625 27.0105 14.0625 26.332C14.0625 25.6536 13.5105 25.1016 12.832 25.1016Z" fill="#5F5F5F"/>
<path d="M28.2656 6.01172C27.3933 6.01172 26.6836 5.30198 26.6836 4.42969C26.6836 3.55739 27.3933 2.84766 28.2656 2.84766C29.1379 2.84766 29.8477 3.55739 29.8477 4.42969C29.8477 5.30198 29.1379 6.01172 28.2656 6.01172ZM28.2656 3.90234C27.9748 3.90234 27.7383 4.13888 27.7383 4.42969C27.7383 4.7205 27.9748 4.95703 28.2656 4.95703C28.5564 4.95703 28.793 4.7205 28.793 4.42969C28.793 4.13888 28.5564 3.90234 28.2656 3.90234Z" fill="#5F5F5F"/>
<path d="M29.6719 10.2305C28.7996 10.2305 28.0898 9.52073 28.0898 8.64844C28.0898 7.77614 28.7996 7.06641 29.6719 7.06641C30.5442 7.06641 31.2539 7.77614 31.2539 8.64844C31.2539 9.52073 30.5442 10.2305 29.6719 10.2305ZM29.6719 8.12109C29.3811 8.12109 29.1445 8.35763 29.1445 8.64844C29.1445 8.93925 29.3811 9.17578 29.6719 9.17578C29.9627 9.17578 30.1992 8.93925 30.1992 8.64844C30.1992 8.35763 29.9627 8.12109 29.6719 8.12109Z" fill="#5F5F5F"/>
</g>
<defs>
<clipPath id="clip0_102_11388">
<rect width="36" height="36" fill="white"/>
</clipPath>
</defs>
</svg>
