<svg width="36" height="36" viewBox="0 0 36 36" fill="none" xmlns="http://www.w3.org/2000/svg">
<path d="M33.1866 17.2974H31.7405C32.1924 16.3032 32.4636 15.2187 32.4636 14.0437C32.4636 11.965 31.6501 9.97668 30.1137 8.44023C27.0408 5.36735 21.9796 5.36735 18.9067 8.44023L18.3644 8.98251L17.7318 8.34985C16.1953 6.81341 14.207 6 12.1283 6C10.0496 6 7.97085 6.81341 6.4344 8.34985C3.99417 10.7901 3.45189 14.586 4.98834 17.6589H3.72303C3.36152 17.6589 3 18.0204 3 18.3819C3 18.7434 3.36152 19.105 3.72303 19.105H5.89213C6.07289 19.2857 6.25364 19.4665 6.4344 19.6472L15.5627 28.7755C16.2857 29.4985 17.1895 29.8601 18.1837 29.8601C19.1778 29.8601 20.172 29.4985 20.895 28.7755L23.6064 26.0641C23.8776 25.793 23.8776 25.3411 23.6064 25.07C23.3353 24.7988 22.8834 24.7988 22.6122 25.07L19.9009 27.7813C19.449 28.2332 18.9067 28.5044 18.2741 28.5044C17.6414 28.5044 17.0991 28.2332 16.6472 27.7813L7.97085 19.105H10.5015C10.7726 19.105 11.0437 18.9242 11.1341 18.6531L12.4898 15.3994L15.5627 23.9854C15.6531 24.2566 15.9242 24.4373 16.2857 24.4373C16.5569 24.4373 16.828 24.2566 16.9184 23.895L18.7259 17.93L19.8105 20.7318C19.9009 21.0029 20.172 21.1837 20.4431 21.1837C20.7143 21.1837 20.9854 21.0029 21.0758 20.7318L23.6064 15.1283L24.9621 18.2012C25.0525 18.4723 25.3236 18.6531 25.5948 18.6531H29.1195C28.6676 19.105 27.312 20.4606 26.4985 21.2741C26.4082 21.3644 26.3178 21.5452 26.3178 21.8163C26.3178 21.9971 26.4082 22.1778 26.4985 22.3586C26.7697 22.6297 27.2216 22.6297 27.4927 22.3586L30.2041 19.6472C30.4752 19.3761 30.7464 19.0146 31.0175 18.7434H33.277C33.6385 18.7434 34 18.3819 34 18.0204C34 17.6589 33.5481 17.2974 33.1866 17.2974ZM16.7376 9.34402L17.8222 10.4286C18.0933 10.6997 18.5452 10.6997 18.8163 10.4286L19.9009 9.34402C21.1662 8.07872 22.793 7.44606 24.5102 7.44606C26.2274 7.44606 27.8542 8.07872 29.1195 9.34402C30.3848 10.6093 31.0175 12.2362 31.0175 13.9534C31.0175 15.1283 30.7464 16.2128 30.1137 17.207H25.9563L24.2391 13.0496C24.1487 12.7784 23.8776 12.5977 23.6064 12.5977C23.3353 12.5977 23.0641 12.7784 22.9738 13.0496L20.4431 18.6531L19.1778 15.4898C18.9971 15.1283 18.7259 15.0379 18.4548 15.0379C18.1837 15.0379 17.9125 15.2187 17.8222 15.5802L16.105 21.3644L13.1224 13.1399C13.0321 12.8688 12.7609 12.688 12.4898 12.688C12.2187 12.688 11.9475 12.8688 11.8571 13.1399L9.95918 17.6589H6.61516C4.89796 15.0379 5.25948 11.6035 7.42857 9.34402C10.0496 6.81341 14.207 6.81341 16.7376 9.34402Z" fill="#5F5F5F"/>
<path d="M25.0525 22.9912C24.691 22.9912 24.3295 23.3527 24.3295 23.7142C24.3295 24.0758 24.691 24.4373 25.0525 24.4373C25.414 24.4373 25.7755 24.0758 25.7755 23.7142C25.7755 23.2623 25.414 22.9912 25.0525 22.9912Z" fill="#5F5F5F"/>
</svg>
