<svg width="36" height="36" viewBox="0 0 36 36" fill="none" xmlns="http://www.w3.org/2000/svg">
<path d="M25.9531 12.3733C26.2552 12.3733 26.5 12.1284 26.5 11.8264C26.5 11.5244 26.2552 11.2795 25.9531 11.2795C25.6511 11.2795 25.4062 11.5244 25.4062 11.8264C25.4062 12.1284 25.6511 12.3733 25.9531 12.3733Z" fill="#5F5F5F"/>
<path d="M26.285 5.67016C26.1472 5.34422 25.9498 5.05219 25.6988 4.80117C25.4478 4.55016 25.1557 4.35273 24.8298 4.21492C24.493 4.07219 24.1348 4 23.7656 4H11.7344C11.3652 4 11.007 4.07219 10.6702 4.21492C10.3442 4.35273 10.0522 4.55016 9.80112 4.80117C9.54955 5.05219 9.35273 5.34422 9.21487 5.67016C9.07213 6.00703 9 6.36523 9 6.73438V22.1814C9 23.7151 9.57788 25.1761 10.6272 26.2955L12.9252 28.7472C13.2341 29.0767 13.6704 29.2656 14.122 29.2656H14.7422V31.4531C14.7422 31.7551 14.9871 32 15.2891 32H20.2109C20.5129 32 20.7578 31.7551 20.7578 31.4531V29.2656H21.378C21.8296 29.2656 22.2658 29.0767 22.5749 28.7471L24.8729 26.2955C25.9221 25.1761 26.5 23.7151 26.5 22.1814V14.2873C26.5 13.9854 26.2545 13.7404 25.9531 13.7404C25.6518 13.7404 25.4062 13.9854 25.4062 14.2873V20.0267L22.3738 23.2757C22.0648 23.6066 21.6279 23.7969 21.1745 23.7969H14.3255C13.8721 23.7969 13.4352 23.6066 13.1262 23.2757L10.0938 20.0267V6.73438C10.0954 5.83148 10.8315 5.09539 11.7344 5.09375H23.7656C24.6685 5.09539 25.4046 5.83148 25.4062 6.73438V9.36539C25.4062 9.66672 25.6518 9.91227 25.9531 9.91227C26.2545 9.91227 26.5 9.66672 26.5 9.36539C26.5 9.36484 26.5 9.36484 26.5 9.3643V6.73438C26.5 6.36523 26.4273 6.00703 26.285 5.67016ZM19.6641 30.9062H15.8359V29.2656H16.6562C16.9582 29.2656 17.2031 29.0207 17.2031 28.7188V27.0781H18.2969V28.7188C18.2969 29.0207 18.5418 29.2656 18.8438 29.2656H19.6641V30.9062ZM12.3266 24.0216C12.5837 24.2978 12.8894 24.5138 13.2355 24.6642C13.5811 24.8146 13.9481 24.8906 14.3255 24.8906H21.1745C21.5518 24.8906 21.9183 24.8146 22.2645 24.6642C22.6106 24.5138 22.9163 24.2973 23.1734 24.0216L25.4062 21.6293V22.1814C25.4062 23.4362 24.9334 24.6316 24.0748 25.5475L21.7769 27.9991C21.6739 28.1089 21.5285 28.1719 21.3779 28.1719H19.3906V26.5312C19.3906 26.2293 19.1457 25.9844 18.8438 25.9844H16.6562C16.3543 25.9844 16.1094 26.2293 16.1094 26.5312V28.1719H14.122C13.9715 28.1719 13.8261 28.1089 13.7231 27.9991L11.4251 25.5474C10.5666 24.6316 10.0938 23.4362 10.0938 22.1814V21.6294L12.3266 24.0216Z" fill="#5F5F5F"/>
<path d="M24.3125 17.7812V6.73438C24.3125 6.43234 24.0676 6.1875 23.7656 6.1875H11.7344C11.4324 6.1875 11.1875 6.43234 11.1875 6.73438V17.7812C11.1875 18.0833 11.4324 18.3281 11.7344 18.3281H23.7656C24.0676 18.3281 24.3125 18.0833 24.3125 17.7812ZM23.2188 17.2344H12.2812V7.28125H23.2188V17.2344Z" fill="#5F5F5F"/>
<path d="M14.8554 19.582C14.6418 19.3685 14.2956 19.3685 14.082 19.582L12.9882 20.6758C12.7747 20.8893 12.7747 21.2356 12.9882 21.4492L14.082 22.543C14.1888 22.6497 14.3287 22.7031 14.4687 22.7031C14.6087 22.7031 14.7486 22.6497 14.8554 22.5429C15.069 22.3294 15.069 21.9831 14.8554 21.7695L14.1484 21.0625L14.8555 20.3554C15.069 20.1419 15.069 19.7956 14.8554 19.582Z" fill="#5F5F5F"/>
<path d="M20.6445 22.543C20.7513 22.6498 20.8912 22.7032 21.0312 22.7032C21.1712 22.7032 21.3111 22.6498 21.4179 22.543L22.5117 21.4492C22.7252 21.2357 22.7252 20.8894 22.5117 20.6758L21.4179 19.582C21.2043 19.3685 20.8581 19.3685 20.6445 19.582C20.4309 19.7956 20.4309 20.1419 20.6445 20.3555L21.3515 21.0625L20.6445 21.7696C20.4309 21.9831 20.4309 22.3294 20.6445 22.543Z" fill="#5F5F5F"/>
<path d="M16.6562 19.4219C16.3543 19.4219 16.1094 19.6667 16.1094 19.9688V22.1562C16.1094 22.4583 16.3543 22.7031 16.6562 22.7031H18.8438C19.1457 22.7031 19.3906 22.4583 19.3906 22.1562V19.9688C19.3906 19.6667 19.1457 19.4219 18.8438 19.4219H16.6562ZM18.2969 21.6094H17.2031V20.5156H18.2969V21.6094Z" fill="#5F5F5F"/>
</svg>
