<svg width="36" height="36" viewBox="0 0 36 36" fill="none" xmlns="http://www.w3.org/2000/svg">
<path d="M29.8808 15.8104C29.7352 14.7183 29.5224 13.4519 29.0483 12.3403C28.2107 10.3766 26.952 9.9644 26.0435 9.9644C24.7447 9.9644 23.6362 10.648 23.2852 11.6656C22.8438 12.9459 22.4702 14.2894 21.3716 15.4669C21.3269 15.233 21.2315 15.017 21.0972 14.8305C21.2878 14.5659 21.4005 14.2419 21.4005 13.8918V12.8133C21.4005 12.6408 21.3674 12.4742 21.3069 12.3199C21.8226 11.6813 21.6175 11.1705 21.7817 10.5893C21.8794 10.2436 22.1189 9.8502 22.6444 8.8705C23.0916 8.03657 22.5105 7 21.571 7H20.2651C19.8077 7 19.3915 7.25897 19.1783 7.67706L18.8003 8.42196C18.6629 8.69234 18.3372 8.69306 18.1996 8.42232L17.8208 7.67589C17.6082 7.25897 17.192 7 16.7347 7H15.4288C14.4902 7 13.9078 8.03581 14.3554 8.87055C14.8803 9.84931 15.1203 10.2435 15.2181 10.5892C15.3843 11.1777 15.1747 11.6785 15.6929 12.32C15.6324 12.4742 15.5993 12.6408 15.5993 12.8133V13.8913C15.5993 14.2415 15.712 14.5656 15.9027 14.8303C15.7683 15.0169 15.6728 15.2332 15.6282 15.4672C14.5301 14.2906 14.1561 12.9463 13.7146 11.6655C13.3636 10.648 12.2552 9.96435 10.9563 9.96435C10.0478 9.96435 8.78908 10.3766 7.95155 12.3402C7.4774 13.4519 7.26456 14.7183 7.11897 15.8103C6.78731 18.2926 7.14673 20.6927 8.21776 23.1477C9.09113 25.1486 10.1349 27.0356 12.3288 27.0356C13.6156 27.0356 14.7207 26.3591 15.0787 25.3521C15.2747 24.8005 15.5489 24.1306 15.9032 23.4949C15.9316 23.5464 15.963 23.5959 15.9968 23.6437C15.8141 23.9023 15.7064 24.2174 15.7064 24.5573V25.5712C15.7064 25.9112 15.8142 26.2263 15.9969 26.4849C15.8142 26.7435 15.7064 27.0586 15.7064 27.3986V28.4125C15.7064 29.2879 16.4185 30.0001 17.2938 30.0001H19.7059C20.5812 30.0001 21.2933 29.2879 21.2933 28.4125V27.3986C21.2933 27.0586 21.1855 26.7435 21.0028 26.4849C21.1855 26.2263 21.2933 25.9112 21.2933 25.5712V24.5573C21.2933 24.2174 21.1855 23.9023 21.0029 23.6437C21.0367 23.5959 21.0681 23.5463 21.0966 23.4948C21.4509 24.1305 21.725 24.8003 21.921 25.3522C22.2432 26.2583 23.225 27.0356 24.7723 27.0356C27.0849 27.0356 28.1889 24.5064 28.7819 23.1477C28.7819 23.1477 28.7819 23.1476 28.782 23.1476C29.853 20.6927 30.2124 18.2926 29.8808 15.8104ZM16.9468 16.5212V15.7693C16.9468 15.6232 17.0673 15.5042 17.2153 15.5042H19.7844C19.9324 15.5042 20.0528 15.6232 20.0528 15.7693V16.5212C19.1339 16.984 17.9008 16.9993 16.9468 16.5212ZM16.9468 13.8914L16.9475 12.9582C17.0193 12.9617 17.1189 12.9601 17.202 12.952C18.7716 12.7951 19.7453 12.973 20.0529 12.9582V13.8918C20.0529 14.0366 19.9341 14.1566 19.7845 14.1566H17.2153C17.0673 14.1565 16.9468 14.0376 16.9468 13.8914ZM16.6505 8.34766L16.9981 9.03254C17.6341 10.2839 19.3657 10.2839 20.0019 9.03218L20.3492 8.34766H21.3955C20.8778 9.30876 20.625 9.72734 20.4849 10.2228C20.2499 11.0547 20.4872 11.4349 20.1071 11.5863C19.9126 11.6638 19.7891 11.5398 18.4999 11.5398C17.1894 11.5398 17.0904 11.6655 16.8927 11.5863H16.8927C16.5143 11.4355 16.7491 11.0516 16.5149 10.2226C16.3748 9.72721 16.1218 9.3084 15.6043 8.34766H16.6505ZM19.9413 21.9713L19.9456 22.7328C19.9449 22.8635 19.837 22.9697 19.7043 22.9697H17.2954C17.1624 22.9697 17.0541 22.8629 17.0541 22.7316V21.975C17.9624 21.1574 18.9752 21.1076 19.9413 21.9713ZM19.7059 24.3174C19.8382 24.3174 19.9458 24.425 19.9458 24.5573V25.5712C19.9458 25.7034 19.8382 25.811 19.7059 25.811H17.2939C17.1616 25.811 17.054 25.7034 17.054 25.5712V24.5573C17.054 24.425 17.1616 24.3174 17.2939 24.3174H17.2954H19.7044H19.7059ZM19.9458 28.4125C19.9458 28.5447 19.8382 28.6524 19.7059 28.6524H17.2939C17.1616 28.6524 17.054 28.5447 17.054 28.4125V27.3986C17.054 27.2663 17.1616 27.1587 17.2939 27.1587H19.7059C19.8382 27.1587 19.9458 27.2663 19.9458 27.3986V28.4125ZM27.5468 22.6087L27.5469 22.6086C26.8966 24.0984 26.0923 25.688 24.7724 25.688C23.8247 25.688 23.3243 25.2763 23.1909 24.9009C22.7985 23.7962 22.1165 22.2596 21.096 21.2128C20.3106 20.4071 19.4371 19.9986 18.4999 19.9986C17.4798 19.9986 16.6142 20.4818 15.8972 21.2193C15.8972 21.2194 15.8971 21.2194 15.8971 21.2194C14.8808 22.2655 14.2006 23.7987 13.809 24.9007C13.6766 25.2731 13.1802 25.6879 12.2274 25.6879C10.9075 25.6879 10.1031 24.0984 9.45289 22.6086C8.48307 20.3856 8.15658 18.2202 8.45472 15.9885C8.72241 13.981 9.27302 11.3121 10.9562 11.3121C11.6578 11.3121 12.2821 11.6455 12.4406 12.1049C13.0202 13.7855 13.5515 15.7781 15.7811 17.3862C17.3227 18.5112 19.7159 18.4843 21.2155 17.3885C23.4481 15.7783 23.9791 13.7867 24.5592 12.105C24.7177 11.6455 25.3419 11.3121 26.0435 11.3121C27.7268 11.3121 28.2773 13.981 28.5451 15.9887C28.8432 18.2203 28.5167 20.3857 27.5468 22.6087Z" fill="#5F5F5F"/>
<path d="M10.6115 15.6239C10.9592 15.4912 11.1334 15.1017 11.0007 14.7541C10.9522 14.6267 11.0796 14.5061 11.2063 14.5542C11.5543 14.686 11.9433 14.5109 12.0752 14.1629C12.2071 13.8149 12.0319 13.4259 11.6839 13.294C11.1309 13.0843 10.5033 13.2184 10.0849 13.6354C9.66524 14.0536 9.53052 14.6813 9.74169 15.2346C9.87448 15.5825 10.264 15.7565 10.6115 15.6239Z" fill="#5F5F5F"/>
<path d="M14.4791 18.2276C14.1315 18.3603 13.9572 18.7497 14.0899 19.0974C14.1385 19.2248 14.011 19.3452 13.8843 19.2973C13.5363 19.1655 13.1473 19.3406 13.0154 19.6886C12.8835 20.0366 13.0587 20.4256 13.4067 20.5575C13.958 20.7665 14.5862 20.6343 15.0058 20.2161C15.4254 19.7979 15.5601 19.1702 15.3489 18.6169C15.2162 18.2692 14.8268 18.0949 14.4791 18.2276Z" fill="#5F5F5F"/>
<path d="M11.8922 18.68C11.7603 18.332 11.3713 18.1569 11.0233 18.2887C10.8965 18.337 10.7692 18.216 10.8176 18.0889C10.9503 17.7412 10.7761 17.3518 10.4284 17.2191C10.0808 17.0863 9.69136 17.2606 9.55866 17.6083C9.34748 18.1616 9.48216 18.7893 9.90182 19.2076C10.3217 19.626 10.9498 19.7578 11.5009 19.549C11.8489 19.417 12.0241 19.028 11.8922 18.68Z" fill="#5F5F5F"/>
<path d="M13.0107 22.0159C12.4577 21.8063 11.83 21.9403 11.4116 22.3573C10.992 22.7755 10.8572 23.4032 11.0684 23.9565C11.2012 24.3044 11.5907 24.4784 11.9382 24.3458C12.2858 24.2131 12.4601 23.8236 12.3274 23.476C12.2788 23.3486 12.4063 23.228 12.533 23.2761C12.881 23.4079 13.2699 23.2328 13.4019 22.8848C13.5338 22.5368 13.3586 22.1478 13.0107 22.0159Z" fill="#5F5F5F"/>
<path d="M24.9552 16.0418C25.1287 16.1076 25.3094 16.1395 25.4888 16.1395C25.8813 16.1395 26.2672 15.9866 26.5543 15.7004C26.9739 15.2822 27.1086 14.6545 26.8975 14.1012C26.7648 13.7535 26.3754 13.5793 26.0277 13.7119C25.68 13.8446 25.5058 14.2341 25.6385 14.5818C25.6557 14.6269 25.6554 14.6937 25.6031 14.7458C25.5492 14.7995 25.4777 14.7987 25.4328 14.7816C25.0848 14.6498 24.6958 14.8249 24.5639 15.1729C24.4321 15.5209 24.6072 15.9099 24.9552 16.0418Z" fill="#5F5F5F"/>
<path d="M22.3062 18.1414C21.7144 18.1414 21.1752 18.4895 20.9324 19.0285C20.7796 19.3678 20.9307 19.7668 21.27 19.9196C21.6092 20.0724 22.0083 19.9213 22.1611 19.582C22.2169 19.4581 22.3953 19.458 22.4512 19.582C22.5636 19.8315 22.809 19.9792 23.066 19.9792C23.1585 19.9792 23.2525 19.96 23.3423 19.9195C23.6816 19.7667 23.8328 19.3677 23.6799 19.0284C23.4371 18.4895 22.8979 18.1414 22.3062 18.1414Z" fill="#5F5F5F"/>
<path d="M26.5759 18.1714C26.2283 18.3041 26.054 18.6936 26.1867 19.0413C26.2353 19.1687 26.1078 19.289 25.9811 19.2411C25.633 19.1092 25.2441 19.2844 25.1122 19.6324C24.9803 19.9804 25.1555 20.3694 25.5035 20.5013C26.0548 20.7103 26.683 20.5781 27.1026 20.1599C27.5222 19.7417 27.6569 19.114 27.4457 18.5607C27.313 18.213 26.9236 18.0387 26.5759 18.1714Z" fill="#5F5F5F"/>
<path d="M25.8204 22.1728C25.2674 21.9633 24.6398 22.0973 24.2214 22.5143C23.8017 22.9325 23.667 23.5602 23.8782 24.1135C24.011 24.4614 24.4006 24.6354 24.748 24.5028C25.0956 24.3701 25.2699 23.9806 25.1372 23.6329C25.0887 23.5058 25.2158 23.385 25.3428 23.4331C25.6908 23.5651 26.0798 23.3898 26.2117 23.0418C26.3436 22.6937 26.1684 22.3047 25.8204 22.1728Z" fill="#5F5F5F"/>
</svg>
