<svg width="36" height="36" viewBox="0 0 36 36" fill="none" xmlns="http://www.w3.org/2000/svg">
<path d="M29.8125 18C29.8125 17.3722 29.2342 16.4093 28.2825 14.8978C27.8781 14.2549 27.3234 13.3751 27.2756 13.1389C27.2419 12.9015 27.297 12.7367 27.3802 12.4869C27.4809 12.1854 27.6058 11.8103 27.5608 11.2736C27.5293 10.899 27.378 10.4518 27.1868 9.88537C26.8937 9.01912 26.5331 7.94587 26.5208 6.83831C26.8172 6.37425 27 5.79825 27 5.0625C27 2.93344 24.6763 2.25 17.4375 2.25C10.4377 2.25 6.1875 2.93119 6.1875 12.375C6.1875 19.8636 9.01463 23.3719 10.6875 24.0548V27.5625C10.6875 28.3118 9.79594 29.5037 8.93306 30.6562C8.37956 31.3965 7.80694 32.1621 7.38506 32.9113C7.23262 33.1819 7.32825 33.525 7.59881 33.6774C7.686 33.7264 7.78106 33.75 7.87444 33.75C8.07075 33.75 8.26144 33.6471 8.36494 33.4637C8.75138 32.778 9.30206 32.0423 9.83419 31.3307C10.8517 29.9706 11.8125 28.6858 11.8125 27.5625V24.0812C12.6371 23.8073 13.5 22.9466 13.5 21.375C13.5 21.0516 13.4055 20.6893 13.2863 20.2309C13.1327 19.6425 12.9487 18.9377 12.9381 18.1614C13.4083 19.0536 14.1666 19.6875 15.1875 19.6875C15.498 19.6875 15.75 19.4355 15.75 19.125C15.75 18.8145 15.498 18.5625 15.1875 18.5625C14.1339 18.5625 13.5034 17.1399 13.5 15.7607C13.5 15.7534 13.5 15.7466 13.5 15.7387C13.5011 15.3411 13.5636 13.5 14.625 13.5C14.9254 13.5 15.0795 13.6547 15.4125 14.0631C15.7984 14.5378 16.3271 15.1875 17.4375 15.1875C18.6441 15.1875 18.9579 13.9703 19.2622 12.7935C19.5621 11.6319 19.9024 10.3151 20.9616 9.432C21.2805 9.1665 21.9915 8.9955 22.7447 8.81381C23.6194 8.60344 24.6499 8.35256 25.479 7.83787C25.6174 8.74856 25.8981 9.58556 26.1208 10.2459C26.2744 10.7004 26.4195 11.1291 26.4392 11.367C26.4645 11.6736 26.3976 11.8755 26.3121 12.1309C26.2131 12.4279 26.0899 12.7974 26.1613 13.2981C26.2215 13.7216 26.6243 14.3764 27.3302 15.4974C27.8342 16.2973 28.6774 17.6361 28.6892 17.9899C28.6093 18.1766 27.7937 18.4618 26.9556 18.5287C26.6631 18.5524 26.4375 18.7965 26.4375 19.0901C26.4375 19.9626 26.5663 20.4547 26.6602 20.8142C26.7165 21.0296 26.7542 21.1719 26.7576 21.3142C26.6743 21.5274 26.2822 21.4881 26.2626 21.9673C26.2552 22.1383 26.3267 22.302 26.4533 22.4128C26.4667 22.4387 26.4999 22.5197 26.5067 22.6862C26.4465 22.7751 26.2716 22.9382 26.1174 23.0456C25.9312 23.1744 25.8407 23.4017 25.8868 23.6227C25.9942 24.138 26.1191 25.0031 26.0606 25.3142C26.0213 25.5234 25.9622 25.8396 24.6448 25.8396C24.4339 25.8396 24.219 25.8306 24.0041 25.8221C23.0608 25.7833 22.0843 25.7439 21.4228 26.379C21.0122 26.7733 20.8125 27.3442 20.8125 28.125V29.2151C20.8125 30.1129 21.1573 30.9617 21.7839 31.6052C23.8703 33.75 23.8877 33.75 24.1875 33.75C24.498 33.75 24.75 33.498 24.75 33.1875C24.75 32.9811 24.6392 32.8005 24.4732 32.7032C24.3872 32.6295 24.0249 32.2959 22.59 30.8211C22.1692 30.3885 21.9375 29.8187 21.9375 29.2151V28.125C21.9375 27.6733 22.0264 27.3594 22.2019 27.1907C22.5169 26.8881 23.2498 26.9179 23.9586 26.946C24.1886 26.955 24.4193 26.9646 24.6448 26.9646C25.6927 26.9646 26.9269 26.8003 27.1665 25.5212C27.2565 25.0419 27.1401 24.2229 27.0551 23.7397C27.3403 23.4906 27.6334 23.139 27.6334 22.7453C27.6334 22.4944 27.5991 22.2907 27.5473 22.1259C27.7222 21.9352 27.8792 21.6709 27.8792 21.339C27.8792 21.0263 27.8162 20.7844 27.7493 20.5284C27.6846 20.2809 27.6131 20.0081 27.5811 19.5868C28.4552 19.4501 29.8125 19.0654 29.8125 18ZM22.4814 7.72031C21.5589 7.9425 20.7619 8.13375 20.2416 8.568C18.9039 9.68288 18.4984 11.2517 18.1727 12.5122C17.9235 13.4769 17.7497 14.0625 17.4375 14.0625C16.8885 14.0625 16.6534 13.806 16.2849 13.3532C15.93 12.9173 15.489 12.375 14.625 12.375C13.2671 12.375 12.4127 13.6125 12.3761 15.615C11.4278 17.5669 11.8896 19.3365 12.1972 20.5155C12.2889 20.8654 12.375 21.1956 12.375 21.375C12.375 22.7762 11.4874 23.0625 11.2528 23.0625C10.7848 23.0327 7.3125 20.6089 7.3125 12.375C7.3125 3.7755 10.7842 3.375 17.4375 3.375C24.8529 3.375 25.875 4.18613 25.875 5.0625C25.875 6.77531 24.5312 7.227 22.4814 7.72031Z" fill="#5F5F5F"/>
<path d="M25.875 20.8125C25.875 20.502 25.623 20.25 25.3125 20.25C17.4532 20.25 15.1875 20.8012 15.1875 33.1875C15.1875 33.498 15.4395 33.75 15.75 33.75C16.0605 33.75 16.3125 33.498 16.3125 33.1875C16.3125 21.375 18.0405 21.375 25.3125 21.375C25.623 21.375 25.875 21.123 25.875 20.8125Z" fill="#5F5F5F"/>
<path d="M25.3125 23.0625C25.3125 22.752 25.0605 22.5 24.75 22.5C18.5625 22.5 18.5625 23.7167 18.5625 33.1875C18.5625 33.498 18.8145 33.75 19.125 33.75C19.4355 33.75 19.6875 33.498 19.6875 33.1875C19.6875 23.625 19.6875 23.625 24.75 23.625C25.0605 23.625 25.3125 23.373 25.3125 23.0625Z" fill="#5F5F5F"/>
</svg>
