<svg width="36" height="36" viewBox="0 0 36 36" fill="none" xmlns="http://www.w3.org/2000/svg">
<path d="M17.838 32.7301H20.8717C21.0898 32.7301 21.2688 32.5651 21.2883 32.347L21.2939 32.305C21.2996 32.252 21.3052 32.1961 21.3052 32.1429L21.3024 31.4691C21.2996 31.0552 21.2968 30.6414 21.2968 30.2275C21.2968 30.071 21.2996 29.9005 21.3219 29.7466C21.3331 29.6739 21.3442 29.6347 21.3526 29.6152C21.3751 29.6096 21.4169 29.6068 21.4952 29.6068L22.4402 29.6264C22.9073 29.6375 23.3742 29.6459 23.8413 29.6544L24.0285 29.66C24.269 29.6654 24.5207 29.6739 24.775 29.6487C25.4657 29.5816 25.9942 29.2462 26.3074 28.6728C26.4388 28.4295 26.4947 28.1555 26.478 27.8397C26.4555 27.4566 26.436 27.0735 26.4191 26.6904C26.4947 26.6653 26.5758 26.6345 26.657 26.5925C26.97 26.4332 27.1853 26.1592 27.2496 25.8404C27.3139 25.5272 27.2245 25.2002 27.0063 24.94C26.9477 24.8701 26.8862 24.8086 26.8219 24.7499C27.0399 24.6856 27.2386 24.6045 27.423 24.5066C27.5713 24.4283 27.7111 24.3248 27.8284 24.2103C28.1472 23.9 28.2115 23.4889 28.0018 23.0805L27.7026 22.4989C27.3979 21.9035 27.0931 21.3078 26.7827 20.7149C26.6905 20.539 26.573 20.3823 26.4444 20.2621C25.5105 19.3896 24.4536 18.962 23.3155 18.9899C22.7787 19.0037 22.2697 19.1213 21.8056 19.3394C20.2622 20.0663 19.0682 21.1121 18.2573 22.4543C17.8716 23.0945 17.6534 23.83 17.5947 24.7051C17.4716 26.5085 17.4549 28.3372 17.4352 30.1071C17.4298 30.5963 17.4242 31.0857 17.4185 31.5751C17.4157 31.7428 17.4157 31.9106 17.4185 32.0811V32.3131C17.4185 32.5426 17.6058 32.7298 17.838 32.7298L17.838 32.7301ZM20.4663 31.8913H18.2546C18.2546 31.7879 18.2546 31.687 18.2572 31.5836C18.2657 31.0944 18.2685 30.6022 18.2741 30.1128C18.291 28.357 18.3105 26.5395 18.4306 24.7611C18.481 24.023 18.66 23.408 18.976 22.885C19.7084 21.6716 20.7515 20.76 22.1635 20.0972C22.5241 19.9295 22.9185 19.8373 23.3378 19.826C24.2633 19.8066 25.0966 20.1449 25.8738 20.8719C25.9355 20.9277 25.9941 21.0089 26.0416 21.0983C26.3519 21.6911 26.6541 22.284 26.9588 22.8766L27.2551 23.461C27.2999 23.5478 27.2915 23.5562 27.2411 23.6064C27.1796 23.6679 27.1041 23.7211 27.0259 23.7631C26.7742 23.8973 26.4807 23.9867 26.1004 24.0454C26.0361 24.0566 25.9716 24.0735 25.9102 24.0902L25.8543 24.1042C25.681 24.1488 25.5552 24.2971 25.5411 24.4733L25.5383 24.5181C25.5271 24.6523 25.5803 24.7837 25.681 24.8731L25.8684 25.0352C25.9271 25.0884 25.9913 25.1386 26.0528 25.1891C26.1703 25.2869 26.282 25.3765 26.366 25.4743C26.4052 25.5189 26.4472 25.5888 26.4303 25.6672C26.4164 25.7343 26.3632 25.7958 26.2794 25.8406C26.2262 25.8685 26.1675 25.8882 26.1087 25.9076C26.0389 25.9328 25.969 25.9581 25.8991 25.9888C25.7286 26.0641 25.5634 26.2628 25.5719 26.4921C25.5887 26.9561 25.6139 27.4204 25.639 27.8844C25.6474 28.0439 25.6251 28.1669 25.5691 28.2703C25.3929 28.5976 25.105 28.7736 24.6939 28.8128C24.4898 28.8324 24.2745 28.8268 24.0509 28.8212L23.8578 28.8156C23.391 28.8071 22.9267 28.7961 22.4598 28.7876L21.5146 28.7682C20.9163 28.7569 20.5836 29.0281 20.4969 29.6238C20.4661 29.8307 20.4605 30.0348 20.4605 30.2249C20.4605 30.6415 20.4633 31.0553 20.4661 31.472L20.4663 31.8913ZM8.62225 32.7244H15.3609C15.5845 32.7244 15.7692 32.5511 15.7804 32.3275L15.7832 32.277C15.786 32.2268 15.7888 32.1764 15.7888 32.1262L15.7748 29.7745C15.7607 27.7557 15.7497 25.7342 15.7412 23.7152V23.4327C15.7412 22.9154 15.744 22.3815 15.6629 21.8447C15.5594 21.165 15.3666 20.2843 14.7878 19.5071C14.4213 19.0177 13.9265 18.6682 13.317 18.4697C12.8164 18.3075 12.4082 18.0894 12.0699 17.8013C11.8125 17.5833 11.7316 17.1416 11.8965 16.8368C12.0028 16.6381 12.2991 16.5208 12.506 16.5963C12.6907 16.6634 12.8919 16.7641 13.1156 16.9093C13.7532 17.3203 14.4549 17.737 15.2798 17.9944C16.3564 18.3298 17.3769 18.2768 18.3137 17.8377C18.5569 17.7231 18.9148 17.5442 19.2223 17.2868C19.7649 16.834 20.4108 16.6214 20.9727 16.476C21.9934 16.2076 22.9748 16.2942 23.8919 16.7305C25.3068 17.4071 26.2966 18.3242 26.923 19.5322C27.2751 20.2172 27.4961 20.9553 27.6807 21.6488L27.7225 21.7999C27.7701 21.9704 27.9212 22.0934 28.0974 22.1046C28.6006 22.141 29.0647 21.9563 29.3778 21.6014C29.6966 21.2378 29.8196 20.7345 29.7105 20.2228C29.6462 19.9124 29.5399 19.6077 29.4058 19.3421C28.8354 18.2097 28.2006 16.8507 27.8008 15.3743C27.703 15.0109 27.6415 14.625 27.5883 14.2588C27.566 14.1161 27.5716 13.9568 27.5772 13.7863L27.58 13.6938C27.6387 11.3368 26.9229 9.28446 25.4522 7.59544C24.3897 6.3736 23.0531 5.47042 21.3727 4.82735C19.5944 4.15354 17.7713 3.88775 15.9511 4.04168C13.0178 4.28777 10.5516 5.41739 8.61992 7.39981C7.18815 8.87056 6.34102 10.6601 6.10614 12.718C6.03061 13.3806 6.03342 14.0656 6.11739 14.7563C6.12844 14.8403 6.12282 14.9381 6.11739 15.0444C6.11177 15.1535 6.10896 15.2626 6.11458 15.3714C6.17324 16.4396 6.50873 17.4406 6.79117 18.1928C6.99247 18.7296 7.23575 19.2524 7.46777 19.7613L7.61321 20.0773C7.67468 20.2087 7.75866 20.3037 7.82857 20.3821C7.85368 20.41 7.8816 20.4408 7.9039 20.4717L7.95151 20.5416C7.99631 20.6031 8.05497 20.6897 8.06341 20.7288C8.1277 20.9972 8.1948 21.2741 8.1948 21.5314C8.20324 24.3023 8.20042 27.0759 8.20042 29.8469V32.302C8.20324 32.5368 8.39328 32.724 8.6227 32.724L8.62225 32.7244ZM14.95 31.8857H9.04448V29.85C9.04448 27.0763 9.04448 24.3055 9.03885 21.5315C9.03885 21.1763 8.9579 20.8352 8.88517 20.5361C8.83756 20.343 8.73129 20.1893 8.64752 20.0662L8.60553 20.0075C8.56354 19.9432 8.5105 19.8846 8.45727 19.8257C8.42935 19.795 8.38736 19.7476 8.37912 19.7307L8.23368 19.4119C8.00707 18.9199 7.76942 18.4082 7.57935 17.9022C7.29971 17.1611 7.00901 16.2775 6.95578 15.3297C6.95016 15.2486 6.95578 15.1702 6.95859 15.0892C6.96422 14.9605 6.96984 14.8152 6.95297 14.6613C6.87743 14.0378 6.87482 13.417 6.94192 12.8188C7.15426 10.948 7.92045 9.32362 9.22067 7.98987C11.0074 6.15269 13.2946 5.10705 16.0211 4.87762C17.7154 4.73519 19.4127 4.98389 21.0681 5.6131C22.6198 6.20314 23.8446 7.03361 24.8148 8.14637C26.1626 9.69262 26.7918 11.5017 26.7385 13.6744L26.7357 13.761C26.7301 13.9597 26.7247 14.1664 26.7554 14.3818C26.8141 14.7705 26.8783 15.1843 26.9874 15.5925C27.4069 17.1416 28.0638 18.5481 28.6538 19.7197C28.7545 19.921 28.8356 20.1558 28.8861 20.3963C28.9391 20.6506 28.8887 20.8854 28.7434 21.0506C28.6623 21.1428 28.5588 21.2071 28.4359 21.2435C28.2484 20.5612 28.022 19.8398 27.664 19.1491C26.9538 17.7706 25.8353 16.7306 24.25 15.9728C23.1512 15.447 21.9739 15.3436 20.7577 15.6624C20.1452 15.8217 19.3595 16.0791 18.6829 16.641C18.5067 16.7892 18.2747 16.9262 17.9558 17.0773C17.2037 17.4295 16.4096 17.4686 15.5289 17.1946C14.8018 16.9682 14.1588 16.5851 13.5716 16.2048C13.2919 16.023 13.0376 15.8944 12.7887 15.805C12.1902 15.5925 11.4606 15.8778 11.1558 16.4397C10.8062 17.0912 10.9684 17.9693 11.5277 18.4418C11.9525 18.8024 12.4532 19.0736 13.0599 19.2695C13.5073 19.4147 13.854 19.6552 14.1168 20.0104C14.4832 20.5025 14.704 21.1064 14.8354 21.9733C14.9081 22.4486 14.9053 22.9267 14.9053 23.4328V23.7237C14.9109 25.7453 14.925 27.764 14.9388 29.7855L14.95 31.8857Z" fill="#5F5F5F"/>
</svg>
