<svg width="36" height="36" viewBox="0 0 36 36" fill="none" xmlns="http://www.w3.org/2000/svg">
<path d="M24.0091 6.66552L23.5591 7.45299C26.3663 8.99667 28.4759 11.5566 29.4548 14.6072C30.4338 17.6576 30.2078 20.9669 28.8232 23.8561C27.4389 26.7454 25.0009 28.9948 22.01 30.1428C19.0191 31.2909 15.7023 31.2503 12.74 30.0295C9.778 28.8086 7.39603 26.5002 6.08255 23.5777C4.76911 20.6556 4.62429 17.3415 5.67775 14.316C6.731 11.2903 8.90268 8.78277 11.7468 7.30832C14.5909 5.83355 17.8915 5.50369 20.9716 6.38641L21.2191 5.52236C17.9023 4.57196 14.3477 4.92733 11.2846 6.51596C8.22179 8.10443 5.88359 10.8054 4.74959 14.0641C3.61595 17.3228 3.77286 20.8918 5.18834 24.0387C6.6038 27.1853 9.17045 29.6701 12.3611 30.9836C15.5515 32.2971 19.1239 32.339 22.3444 31.1011C25.5649 29.863 28.1892 27.4389 29.6781 24.3265C31.1673 21.214 31.4082 17.6495 30.3513 14.3653C29.2946 11.0809 27.0203 8.32548 23.9958 6.66588L24.0091 6.66552Z" fill="#5F5F5F"/>
<path d="M23.1091 6.21552C22.7985 6.0761 22.4791 5.9411 22.1596 5.82398L21.849 6.66992C22.1506 6.77801 22.4475 6.90397 22.749 7.03434L23.1091 6.21552Z" fill="#5F5F5F"/>
<path d="M5.81568 18.5049C5.81568 21.6079 7.04837 24.5838 9.24252 26.7783C11.4367 28.9724 14.4126 30.2051 17.5158 30.2051C20.619 30.2051 23.5947 28.9724 25.7891 26.7783C27.9833 24.5841 29.216 21.6081 29.216 18.5049C29.216 15.4017 27.9833 12.4261 25.7891 10.2316C23.595 8.03748 20.619 6.80479 17.5158 6.80479C14.4126 6.80479 11.437 8.03748 9.24252 10.2316C7.04837 12.4258 5.81568 15.4017 5.81568 18.5049ZM28.3157 18.5049C28.3157 21.3693 27.1778 24.1163 25.1524 26.1416C23.127 28.167 20.38 29.3048 17.5158 29.3048C14.6516 29.3048 11.9044 28.167 9.87916 26.1416C7.85374 24.1162 6.71589 21.3692 6.71589 18.5049C6.71589 15.6407 7.85374 12.8936 9.87916 10.8683C11.9046 8.8429 14.6516 7.70504 17.5158 7.70504C20.38 7.70504 23.1272 8.8429 25.1524 10.8683C27.1778 12.8937 28.3157 15.6407 28.3157 18.5049Z" fill="#5F5F5F"/>
<path d="M18.4157 14.9049H19.3607C19.4189 15.186 19.5304 15.4534 19.6891 15.6924L19.0186 16.363C18.9233 16.4446 18.8665 16.5621 18.8617 16.6874C18.8568 16.8126 18.9045 16.9343 18.9933 17.0229C19.0818 17.1115 19.2034 17.1591 19.3287 17.1543C19.4541 17.1495 19.5716 17.0926 19.6532 16.9974L20.3238 16.3268C20.5638 16.4877 20.8328 16.6008 21.1157 16.6599V17.6049C21.1157 17.8534 21.3172 18.0549 21.5657 18.0549C21.8142 18.0549 22.0157 17.8534 22.0157 17.6049V16.6599C22.2967 16.6017 22.5641 16.4902 22.8031 16.3315L23.4737 17.002C23.6521 17.1551 23.9183 17.1445 24.0846 16.9783C24.2508 16.8122 24.261 16.546 24.1081 16.3674L23.4376 15.6968C23.5985 15.4568 23.7116 15.1878 23.7706 14.9049H24.7156C24.9641 14.9049 25.1656 14.7034 25.1656 14.4549C25.1656 14.2064 24.9641 14.0049 24.7156 14.0049H23.7706C23.7124 13.7239 23.6009 13.4565 23.4422 13.2175L24.1128 12.5469C24.2658 12.3685 24.2552 12.1023 24.0891 11.936C23.9229 11.7698 23.6567 11.7596 23.4781 11.9125L22.8076 12.583C22.5675 12.4221 22.2985 12.309 22.0157 12.25V11.305C22.0157 11.0564 21.8142 10.855 21.5657 10.855C21.3172 10.855 21.1157 11.0564 21.1157 11.305V12.25C20.8346 12.3082 20.5672 12.4197 20.3282 12.5784L19.6576 11.9078C19.4792 11.7548 19.213 11.7654 19.0467 11.9315C18.8805 12.0977 18.8703 12.3639 19.0232 12.5425L19.6938 13.213C19.5328 13.4531 19.4197 13.7221 19.3607 14.0049H18.4157C18.1672 14.0049 17.9657 14.2064 17.9657 14.4549C17.9657 14.7034 18.1672 14.9049 18.4157 14.9049ZM21.5657 13.1049C21.9237 13.1049 22.2672 13.2472 22.5203 13.5003C22.7734 13.7534 22.9157 14.097 22.9157 14.4549C22.9157 14.8129 22.7734 15.1565 22.5203 15.4095C22.2672 15.6626 21.9236 15.8049 21.5657 15.8049C21.2077 15.8049 20.8641 15.6627 20.6111 15.4095C20.358 15.1564 20.2157 14.8129 20.2157 14.4549C20.2157 14.097 20.3579 13.7534 20.6111 13.5003C20.8642 13.2472 21.2077 13.1049 21.5657 13.1049Z" fill="#5F5F5F"/>
<path d="M11.6657 14.0049C12.0237 14.0049 12.3672 13.8627 12.6203 13.6096C12.8734 13.3565 13.0157 13.0129 13.0157 12.655C13.0157 12.297 12.8734 11.9534 12.6203 11.7003C12.3672 11.4473 12.0236 11.305 11.6657 11.305C11.3077 11.305 10.9641 11.4472 10.7111 11.7003C10.458 11.9535 10.3157 12.297 10.3157 12.655C10.3157 13.0129 10.4579 13.3565 10.7111 13.6096C10.9642 13.8627 11.3077 14.0049 11.6657 14.0049ZM11.6657 12.2049C11.8477 12.2049 12.0118 12.3146 12.0813 12.4828C12.151 12.6509 12.1127 12.8444 11.9839 12.9732C11.8551 13.1019 11.6617 13.1403 11.4935 13.0706C11.3254 13.0011 11.2157 12.8369 11.2157 12.6549C11.2157 12.4064 11.4172 12.2049 11.6657 12.2049Z" fill="#5F5F5F"/>
<path d="M22.9157 22.5549C22.5577 22.5549 22.2141 22.6972 21.9611 22.9503C21.708 23.2034 21.5657 23.547 21.5657 23.9049C21.5657 24.2629 21.7079 24.6065 21.9611 24.8595C22.2142 25.1126 22.5577 25.2549 22.9157 25.2549C23.2736 25.2549 23.6172 25.1127 23.8703 24.8595C24.1234 24.6064 24.2657 24.2629 24.2657 23.9049C24.2657 23.547 24.1234 23.2034 23.8703 22.9503C23.6172 22.6972 23.2736 22.5549 22.9157 22.5549ZM22.9157 24.3549C22.7337 24.3549 22.5695 24.2453 22.5 24.0771C22.4303 23.909 22.4687 23.7155 22.5975 23.5867C22.7262 23.4579 22.9197 23.4196 23.0879 23.4893C23.256 23.5588 23.3657 23.7229 23.3657 23.9049C23.3657 24.0243 23.3183 24.1388 23.2339 24.2232C23.1495 24.3075 23.035 24.3549 22.9157 24.3549Z" fill="#5F5F5F"/>
<path d="M13.9157 20.3049C13.4384 20.3049 12.9805 20.4946 12.6428 20.8321C12.3053 21.1698 12.1157 21.6276 12.1157 22.1049C12.1157 22.5822 12.3053 23.0401 12.6428 23.3778C12.9805 23.7153 13.4384 23.9049 13.9157 23.9049C14.393 23.9049 14.8509 23.7153 15.1885 23.3778C15.526 23.0401 15.7157 22.5822 15.7157 22.1049C15.7157 21.6276 15.526 21.1698 15.1885 20.8321C14.8508 20.4946 14.393 20.3049 13.9157 20.3049ZM13.9157 23.0049C13.677 23.0049 13.448 22.9101 13.2793 22.7414C13.1105 22.5726 13.0157 22.3436 13.0157 22.1049C13.0157 21.8663 13.1105 21.6373 13.2793 21.4685C13.448 21.2998 13.677 21.2049 13.9157 21.2049C14.1543 21.2049 14.3834 21.2998 14.5521 21.4685C14.7209 21.6373 14.8157 21.8663 14.8157 22.1049C14.8157 22.3436 14.7209 22.5726 14.5521 22.7414C14.3834 22.9101 14.1543 23.0049 13.9157 23.0049Z" fill="#5F5F5F"/>
<path d="M18.8657 24.8049C18.6172 24.8049 18.4157 25.0064 18.4157 25.2549V25.9299C18.4157 25.9896 18.392 26.0469 18.3498 26.0891C18.3076 26.1312 18.2503 26.1549 18.1907 26.1549C17.8924 26.1549 17.6061 26.2735 17.3951 26.4844C17.1842 26.6953 17.0657 26.9816 17.0657 27.28V27.955C17.0657 28.2035 17.2672 28.405 17.5157 28.405C17.7642 28.405 17.9657 28.2035 17.9657 27.955V27.28C17.9657 27.1556 18.0663 27.055 18.1907 27.055C18.489 27.055 18.7753 26.9364 18.9862 26.7255C19.1972 26.5146 19.3157 26.2283 19.3157 25.9299V25.2549C19.3157 25.1356 19.2683 25.0211 19.1839 24.9367C19.0995 24.8524 18.985 24.8049 18.8657 24.8049Z" fill="#5F5F5F"/>
<path d="M11.2157 17.7083L10.7388 18.1852C10.6964 18.2278 10.6389 18.2519 10.5789 18.2519C10.519 18.2519 10.4613 18.228 10.4191 18.1854C10.2048 17.9801 9.91952 17.8656 9.62261 17.8656C9.3259 17.8656 9.04065 17.9801 8.82629 18.1854L8.34938 18.6623C8.24049 18.7373 8.16998 18.8564 8.15672 18.988C8.14366 19.1196 8.18886 19.2502 8.28067 19.3454C8.37248 19.4404 8.50146 19.4904 8.63344 19.482C8.76523 19.4735 8.88677 19.4075 8.96572 19.3014L9.44264 18.8245C9.48502 18.7819 9.54248 18.7578 9.60255 18.7578C9.66242 18.7578 9.72007 18.7817 9.76226 18.8243C9.97661 19.0296 10.2619 19.1441 10.5588 19.1441C10.8555 19.1441 11.1407 19.0296 11.3551 18.8243L11.832 18.3473C11.9634 18.1706 11.9477 17.9249 11.7949 17.7664C11.642 17.6081 11.3969 17.5834 11.2157 17.7083Z" fill="#5F5F5F"/>
<path d="M17.1871 12.4209L16.7101 11.944C16.6675 11.9018 16.6434 11.8442 16.6434 11.7843C16.6434 11.7242 16.6673 11.6668 16.7099 11.6244C16.9217 11.4135 17.0406 11.1268 17.0406 10.8281C17.0406 10.5292 16.9217 10.2425 16.7099 10.0316L16.233 9.55464C16.0544 9.40175 15.7882 9.4118 15.6221 9.57814C15.456 9.74428 15.4455 10.0105 15.5986 10.1891L16.0755 10.666C16.1181 10.7082 16.142 10.7658 16.142 10.8257C16.142 10.8858 16.1181 10.9432 16.0755 10.9856C15.864 11.1965 15.745 11.4832 15.745 11.7819C15.745 12.0808 15.864 12.3675 16.0755 12.5784L16.5524 13.0554C16.731 13.2082 16.9972 13.1982 17.1633 13.0319C17.3297 12.8657 17.3399 12.5995 17.1871 12.4209Z" fill="#5F5F5F"/>
<path d="M13.9157 14.9049H14.8157V15.8049H13.9157V14.9049Z" fill="#5F5F5F"/>
<path d="M25.1657 18.9549H26.0657V19.8549H25.1657V18.9549Z" fill="#5F5F5F"/>
<path d="M17.9657 19.8549H18.8657V20.7549H17.9657V19.8549Z" fill="#5F5F5F"/>
<path d="M8.96568 21.6549H9.86568V22.5549H8.96568V21.6549Z" fill="#5F5F5F"/>
</svg>
