<svg width="36" height="36" viewBox="0 0 36 36" xmlns="http://www.w3.org/2000/svg">
<path d="M26.2132 31.1593L26.2229 31.1612H26.2328H26.2332H26.2336H26.234H26.2345H26.2349H26.2353H26.2357H26.2362H26.2366H26.237H26.2374H26.2379H26.2383H26.2387H26.2391H26.2395H26.24H26.2404H26.2408H26.2412H26.2417H26.2421H26.2425H26.2429H26.2434H26.2438H26.2442H26.2446H26.245H26.2455H26.2459H26.2463H26.2467H26.2472H26.2476H26.248H26.2484H26.2489H26.2493H26.2497H26.2501H26.2505H26.251H26.2514H26.2518H26.2522H26.2527H26.2531H26.2535H26.2539H26.2544H26.2548H26.2552H26.2556H26.256H26.2565H26.2569H26.2573H26.2577H26.2582H26.2586H26.259H26.2594H26.2599H26.2603H26.2607H26.2611H26.2615H26.262H26.2624H26.2628H26.2632H26.2637H26.2641H26.2645H26.2649H26.2654H26.2658H26.2662H26.2666H26.2671H26.2675H26.2679H26.2683H26.2687H26.2692H26.2696H26.27H26.2704H26.2709H26.2713H26.2717H26.2721H26.2726H26.273H26.2734H26.2738H26.2742H26.2747H26.2751H26.2755H26.2759H26.2764H26.2768H26.2772H26.2776H26.2781H26.2785H26.2789H26.2793H26.2797H26.2802H26.2806H26.281H26.2814H26.2819H26.2823H26.2827H26.2831H26.2836H26.284H26.2844H26.2848H26.2852H26.2857H26.2861H26.2865H26.2869H26.2874H26.2878H26.2882H26.2886H26.2891H26.2895H26.2899H26.2903H26.2907H26.2912H26.2916H26.292H26.2924H26.2929H26.2933H26.2937H26.2941H26.2946H26.295H26.2954H26.2958H26.2963H26.2967H26.2971H26.2975H26.2979H26.2984H26.2988H26.2992H26.2996H26.3001H26.3005H26.3009H26.3013H26.3018H26.3022H26.3026H26.303H26.3034H26.3039H26.3043H26.3047H26.3051H26.3056H26.306H26.3064H26.3068H26.3073H26.3077H26.3081H26.3085H26.3089H26.3094H26.3098H26.3102H26.3106H26.3111H26.3115H26.3119H26.3123H26.3128H26.3132H26.3136H26.314H26.3144H26.3149H26.3153H26.3157H26.3161H26.3166H26.317H26.3174H26.3178H26.3183H26.3187H26.3191H26.3195H26.3199H26.3204H26.3208H26.3212H26.3216H26.3221H26.3225H26.3229H26.3233H26.3238H26.3242H26.3246H26.325H26.3254H26.3259H26.3263H26.3267H26.3271H26.3276H26.328H26.3284H26.3288H26.3293H26.3297H26.3301H26.3305H26.331H26.3314H26.3318H26.3322H26.3326H26.3331H26.3335H26.3339H26.3343H26.3348H26.3352H26.3356H26.336H26.3365H26.3369H26.3373H26.3377H26.3381H26.3386H26.339H26.3394H26.3398H26.3403H26.3407H26.3411H26.3415H26.342H26.3424H26.3428H26.3432H26.3436H26.3441H26.3445H26.3449H26.3453H26.3458H26.3462H26.3466H26.347H26.3475H26.3479H26.3483H26.3487H26.3491H26.3496H26.35H26.3504H26.3508H26.3513H26.3517H26.3521H26.3525H26.353H26.3534H26.3538H26.3542H26.3546H26.3551H26.3555H26.3559H26.3563H26.3568H26.3572H26.3576H26.358H26.3585H26.3589H26.3593H26.3597H26.3602H26.3606H26.361H26.3614H26.3618H26.3623H26.3627H26.3631H26.3635H26.364H26.3644H26.3648H26.3652H26.3657H26.3661H26.3665H26.3669H26.3673H26.3678H26.3682H26.3686H26.369H26.3695H26.3699H26.3703H26.3707H26.3712H26.3716H26.372H26.3724H26.3728H26.3733H26.3737H26.3741H26.3745H26.375H26.3754H26.3758H26.3762H26.3767H26.3771H26.3775H26.3779H26.3783H26.3788H26.3792H26.3796H26.38H26.3805H26.3809H26.3813H26.3817H26.3822H26.3826H26.383H26.3834H26.3838H26.3843H26.3847H26.3851H26.3855H26.386H26.3864H26.3868H26.3872H26.3877H26.3881H26.3885H26.3889H26.3893H26.3898H26.3902H26.3906H26.391H26.3915H26.3919H26.3923H26.3927H26.3932H26.3936H26.394H26.3944H26.3949H26.3953H26.3957H26.3961H26.3965H26.397H26.3974H26.3978H26.3982H26.3987H26.3991H26.3995H26.3999H26.4004H26.4008H26.4012H26.4016H26.402H26.4025H26.4029H26.4033H26.4037H26.4042H26.4046H26.405H26.4054H26.4059H26.4063H26.4067H26.4071H26.4075H26.408H26.4084H26.4088H26.4092H26.4097H26.4101H26.4105H26.4109H26.4114H26.4118H26.4122H26.4126H26.413H26.4135H26.4139H26.4143H26.4147H26.4152H26.4156H26.416H26.4164H26.4169H26.4173H26.4177H26.4181H26.4185H26.419H26.4194H26.4198H26.4202H26.4207H26.4211H26.4215H26.4219H26.4224H26.4228H26.4232H26.4236H26.4241H26.4245H26.4249H26.4253H26.4257H26.4262H26.4266H26.427H26.4274H26.4279H26.4283H26.4287H26.4291H26.4296H26.43H26.4304H26.4308H26.4312H26.4317H26.4321H26.4325H26.4329H26.4334H26.4338H26.4342H26.4346H26.4351H26.4355H26.4359H26.4363H26.4367H26.4372H26.4376H26.438H26.4384H26.4389H26.4393H26.4397H26.4401H26.4406H26.441H26.4414H26.4418H26.4422H26.4427H26.4431H26.4435H26.4439H26.4444H26.4448H26.4452H26.4456H26.4461H26.4465H26.4469H26.4473H26.4477H26.4482H26.4486H26.449H26.4494C27.0833 31.1612 27.6688 30.7707 27.7638 30.1C28.2773 30.3727 28.8574 30.4359 29.4348 30.2916C30.0481 30.1382 30.5004 29.6805 30.7974 29.1608L30.7978 29.1611L30.8019 29.1518C31.1075 28.4642 30.8847 27.5434 30.2617 27.1509L29.9761 26.9368L29.9764 26.9363L29.9676 26.931C27.8144 25.6392 25.9487 23.9173 24.5131 21.8374C24.4562 21.7311 24.3342 21.667 24.2194 21.6462C24.1039 21.6252 23.9643 21.642 23.8623 21.7352C23.7606 21.7937 23.6992 21.9126 23.6788 22.0246C23.6575 22.1418 23.6752 22.2839 23.7721 22.3863C25.2955 24.5606 27.2546 26.4469 29.5782 27.7539L29.5865 27.7586L29.5956 27.7616L29.7962 27.8285C30.0304 28.0149 30.0925 28.3801 29.9749 28.6254C29.7621 28.9075 29.4943 29.1658 29.1743 29.2298C28.8266 29.2994 28.4938 29.2968 28.162 29.0977L27.8493 28.91C27.8451 28.2725 27.7683 27.6275 27.4816 26.9804C27.4357 26.8471 27.3434 26.7539 27.2269 26.7073C27.1109 26.6609 26.9778 26.663 26.8512 26.7052C26.7153 26.7505 26.6205 26.8436 26.5733 26.9616C26.5269 27.0775 26.529 27.2106 26.5712 27.3373L26.5735 27.344L26.5767 27.3504C26.9262 28.0495 26.998 28.8934 26.8566 29.6711L26.855 29.68V29.689C26.855 29.976 26.5641 30.1563 26.3293 30.0975L26.3173 30.0945H26.305C26.1929 30.0945 26.0863 30.039 26.0333 29.9332C25.9748 29.8161 25.9718 29.6983 25.9717 29.5567C26.1902 28.6692 26.041 27.7852 25.6759 26.9799C25.63 26.8469 25.5378 26.7538 25.4213 26.7073C25.3053 26.6609 25.1723 26.663 25.0456 26.7052C24.9098 26.7505 24.8149 26.8436 24.7677 26.9616C24.7213 27.0775 24.7235 27.2106 24.7657 27.3373L24.7652 27.3374L24.7692 27.3463C25.0527 27.9843 25.1905 28.6127 25.0514 29.3083L25.0494 29.318V29.3279C25.0494 29.44 24.9939 29.5466 24.8881 29.5996C24.7676 29.6598 24.6464 29.6612 24.4994 29.6612C24.2125 29.6612 24.0322 29.3704 24.0909 29.1355L24.0927 29.1284L24.0934 29.1212C24.1667 28.3882 24.0949 27.5717 23.7212 26.8977C23.6183 26.6954 23.3407 26.6235 23.0956 26.7052L23.0889 26.7075L23.0825 26.7107C22.8785 26.8127 22.8059 27.0913 22.8879 27.3373L22.891 27.3467L22.896 27.3553C23.1716 27.8377 23.2427 28.3925 23.1724 28.9544L23.1717 28.9543V28.9668C23.1717 29.0789 23.1161 29.1855 23.0103 29.2384C22.8899 29.2986 22.7686 29.3001 22.6217 29.3001C22.5096 29.3001 22.4029 29.2446 22.35 29.1387C22.2905 29.0198 22.2884 28.9001 22.2883 28.7556C22.3615 28.0863 22.2124 27.4172 21.8421 26.8229C21.7857 26.7153 21.6627 26.6505 21.5472 26.6295C21.4317 26.6085 21.2921 26.6253 21.1901 26.7185C21.0884 26.7771 21.027 26.896 21.0066 27.0079C20.9851 27.126 21.0032 27.2695 21.1022 27.372C21.3659 27.7046 21.4362 28.1767 21.3675 28.5892L21.3661 28.5974V28.6057C21.3661 28.8926 21.0752 29.0729 20.8404 29.0142L20.8284 29.0112H20.8161C20.5291 29.0112 20.3488 28.7204 20.4076 28.4855L20.4106 28.4735V28.4612C20.4106 28.2854 20.3225 28.1041 20.1414 28.0121L15.0161 25.0524L15.0162 25.0522L15.0108 25.0496C14.9188 25.0036 14.7885 24.9827 14.6684 25.0045C14.5472 25.0265 14.4206 25.0964 14.368 25.2451C14.3242 25.3367 14.3047 25.4638 14.3261 25.5812C14.3479 25.7013 14.4167 25.8267 14.5627 25.8801L19.4172 28.7357C19.4423 29.4083 19.905 29.926 20.5777 30.0755L20.5777 30.0755L20.5798 30.0759C20.9342 30.1468 21.2918 30.0881 21.5903 29.8969C21.8113 30.1635 22.1002 30.3656 22.4576 30.4371C22.812 30.5079 23.1695 30.4492 23.468 30.258C23.6891 30.5247 23.978 30.7267 24.3354 30.7982C24.6897 30.869 25.0473 30.8103 25.3458 30.6192C25.5669 30.8858 25.8557 31.0878 26.2132 31.1593Z" stroke="#5F5F5F" stroke-width="0.2"/>
<path d="M8.63031 22.5518L8.6303 22.5518L8.63208 22.5529L13.1719 25.2191C13.2706 25.3112 13.3744 25.3111 13.4457 25.3111H13.4494C13.5403 25.3111 13.6176 25.2877 13.6834 25.235C13.7456 25.1852 13.7896 25.1154 13.8277 25.0392C13.8737 24.9472 13.8946 24.8168 13.8728 24.6967C13.8509 24.5766 13.7821 24.4512 13.6361 24.3977L9.09528 21.7309C9.09517 21.7308 9.09505 21.7308 9.09494 21.7307C8.39312 21.3095 7.83677 20.6105 7.69803 19.778C7.55827 18.9394 7.76725 18.0996 8.25802 17.3978L10.0624 15.0159L10.068 15.0086L10.0722 15.0003C10.1604 14.8237 10.1547 14.6497 10.0776 14.4184L10.0744 14.4087L10.0693 14.3999L5.80817 7.03326L5.8016 7.0219L5.79232 7.01262C5.70961 6.92991 5.60239 6.86362 5.48844 6.84083C5.37773 6.81868 5.2594 6.83822 5.16272 6.92402C5.03918 6.97146 4.94833 7.062 4.91263 7.18098C4.87545 7.30491 4.90308 7.44271 4.98652 7.56929L9.06833 14.6588L7.4478 16.7725L7.44771 16.7724L7.44494 16.7764C6.7795 17.7376 6.55712 18.8486 6.77911 19.9585L6.7791 19.9585L6.77938 19.9598C7.00181 20.9978 7.66831 21.9598 8.63031 22.5518Z" stroke="#5F5F5F" stroke-width="0.2"/>
<path d="M15.1601 7.54815L15.1633 7.55765L15.1683 7.56634L22.9669 21.1417C23.0589 21.3229 23.2402 21.411 23.4161 21.411L23.4198 21.411C23.4893 21.411 23.5897 21.411 23.6862 21.3258C23.8161 21.2751 23.8878 21.1774 23.9114 21.0597C23.9344 20.9444 23.9104 20.8165 23.8721 20.7016L23.8688 20.6919L23.8637 20.683L15.9963 7.11357C15.9471 6.97636 15.8471 6.90102 15.726 6.8768C15.6107 6.85374 15.4827 6.8778 15.3678 6.9161C15.2241 6.964 15.1456 7.06589 15.1208 7.18997C15.0978 7.30528 15.1218 7.43326 15.1601 7.54815Z" stroke="#5F5F5F" stroke-width="0.2"/>
<path d="M10.8958 16.7084L10.8958 16.7084L10.8962 16.7105C11.0455 17.382 11.4908 18.0535 12.1616 18.4309C12.2601 18.5222 12.3635 18.5222 12.4346 18.5221L12.4383 18.5221C12.6151 18.5221 12.7974 18.4332 12.8889 18.2502C12.9349 18.1582 12.9558 18.0279 12.9339 17.9077C12.9119 17.7867 12.8422 17.6603 12.6939 17.6076C12.2879 17.4023 11.9539 16.9963 11.8873 16.5302L11.8882 16.5301L11.8845 16.5169C11.7513 16.0508 11.8806 15.5784 12.1554 15.163C12.2446 15.0689 12.2895 14.9319 12.2659 14.8022C12.2415 14.6683 12.1467 14.554 11.9829 14.5045C11.8868 14.421 11.7699 14.4022 11.6604 14.4241C11.5464 14.4469 11.4392 14.5132 11.3565 14.5959L11.3515 14.6009L11.3472 14.6066C10.8955 15.2089 10.7462 15.9606 10.8958 16.7084Z" stroke="#5F5F5F" stroke-width="0.2"/>
</svg>
