<svg width="36" height="36" viewBox="0 0 36 36" fill="none" xmlns="http://www.w3.org/2000/svg">
<mask id="path-1-outside-1_102_11272" maskUnits="userSpaceOnUse" x="3.68042" y="2" width="28" height="33" fill="black">
<rect fill="white" x="3.68042" y="2" width="28" height="33"/>
<path d="M30.6595 12.0187C30.656 12.007 30.6522 11.9955 30.6478 11.9842L30.5641 11.7667C29.9673 10.2159 29.536 9.09541 28.4177 7.67092C28.2616 7.47215 27.974 7.43751 27.7752 7.5936C27.5765 7.74963 27.5418 8.03723 27.6979 8.23607C28.7312 9.55241 29.1207 10.564 29.71 12.0954L29.7874 12.2963C30.3766 14.2906 30.5428 16.3095 30.3112 18.2297C28.1566 16.5715 26.3008 16.461 23.6051 16.8575C23.355 16.8943 23.1821 17.1268 23.2189 17.3768C23.2557 17.6268 23.4887 17.7996 23.7382 17.7629C26.3917 17.3725 28.0558 17.5008 30.1442 19.271C29.7171 21.4035 28.7839 23.38 27.376 25.0186C24.9237 27.8727 21.3367 29.2081 17.5346 28.6827C15.6842 28.4272 14.46 28.1418 12.9044 27.2915C12.1791 26.8948 11.9044 26.8839 11.3001 26.8963C11.1968 26.8983 11.0805 26.9008 10.945 26.9008C8.83181 26.9008 7.11259 28.6224 7.11259 30.7386V32.7102L7.11277 32.7773C7.11325 32.8675 7.11392 33.0075 7.09969 33.0848C7.0983 33.0848 7.09678 33.0848 7.09533 33.0848H5.59643C5.59437 33.0242 5.59577 32.9463 5.59698 32.8829C5.59801 32.8276 5.59898 32.77 5.59898 32.7102V30.7386C5.59898 27.8647 7.84381 25.5157 10.7084 25.391C10.7844 25.3879 10.8632 25.3848 10.9378 25.3862C11.1234 25.3893 11.3334 25.3925 11.5076 25.2197C11.6701 25.0585 11.6788 24.8623 11.6874 24.6726C11.6894 24.6257 11.6919 24.5704 11.6965 24.5041C11.7145 24.2304 11.7751 23.9353 11.8758 23.6296C12.0623 23.0745 12.4009 22.5342 12.8824 22.0234C13.3051 21.5748 13.8232 21.0983 14.5132 20.5239C15.6128 19.6086 16.1392 18.8932 16.3301 18.0543C16.3701 17.8789 16.3941 17.6988 16.4035 17.5111C17.7025 17.9988 18.8499 18.1715 19.9932 18.1715C20.5528 18.1715 21.1116 18.1303 21.687 18.0651C21.9381 18.0366 22.1185 17.81 22.09 17.5589C22.0615 17.3078 21.8347 17.1269 21.5838 17.1558C19.4848 17.394 18.0308 17.2147 16.3192 16.4938C16.2246 16.0102 16.0536 15.4605 15.799 14.8059L15.7651 14.7185C15.2314 13.3443 14.9635 12.6545 15.1838 11.1901C15.2555 10.7209 14.8904 10.5306 14.753 10.459C14.7354 10.4499 14.7168 10.4403 14.7002 10.4311C12.994 9.482 11.934 7.68709 11.934 5.74686V3.91538H13.4477V5.74686C13.4477 6.93619 13.9886 8.03965 14.9318 8.77427L14.9651 8.80018C15.253 9.02469 15.4268 9.16037 15.6906 9.12199C15.9384 9.08614 16.0645 8.90983 16.1659 8.76815C16.2009 8.71929 16.2406 8.66383 16.2911 8.6008C16.5915 8.22777 16.9551 7.87944 17.4018 7.53651C19.6708 5.80487 23.5664 5.00087 26.3168 6.92159C26.524 7.06636 26.8092 7.01556 26.9539 6.80843C27.0986 6.60124 27.0479 6.316 26.8407 6.1713C25.3455 5.12711 23.4875 4.70982 21.4684 4.9643C19.79 5.17585 18.1054 5.84822 16.8455 6.80976C16.3394 7.19823 15.9249 7.59639 15.5777 8.02754C15.5623 8.04674 15.5477 8.06538 15.5339 8.08331C15.5319 8.08173 15.5299 8.0801 15.5278 8.07852L15.4942 8.05231C14.7752 7.49225 14.3628 6.65198 14.3628 5.74686V3.62948C14.3628 3.54678 14.3628 3.32717 14.1937 3.15946C14.0307 2.99768 13.8327 2.99919 13.7258 3.00016L11.5999 3.00034C11.2795 3.00034 11.0189 3.28255 11.0189 3.62948V5.74686C11.0189 8.01755 12.2573 10.1176 14.254 11.2301C14.0462 12.8204 14.3767 13.6715 14.912 15.0498L14.946 15.1373C15.2056 15.8046 15.3781 16.3501 15.4535 16.8221C15.4541 16.8613 15.4593 16.9001 15.4696 16.9375C15.617 18.0826 15.1573 18.7972 13.9279 19.8205C13.2088 20.4191 12.665 20.9197 12.2165 21.3957C11.6437 22.0033 11.2373 22.6568 11.0076 23.3406C10.8819 23.722 10.8064 24.0932 10.7835 24.4426C10.7828 24.4528 10.7821 24.4628 10.7815 24.4725C10.7429 24.4737 10.7055 24.4752 10.6699 24.4767C9.06141 24.5466 7.55645 25.2308 6.43228 26.4031C5.30484 27.5788 4.68399 29.1185 4.68399 30.7386V32.7102C4.68399 32.7641 4.68296 32.8162 4.68212 32.8661C4.67654 33.1662 4.67037 33.5064 4.91613 33.7567C5.07688 33.9204 5.29915 34 5.59571 34H7.09551C7.43367 34 7.63928 33.8647 7.75226 33.7512C8.03144 33.4706 8.02951 33.0675 8.02811 32.773L8.02787 30.7388C8.02787 29.1271 9.33659 27.816 10.9452 27.816C11.0877 27.816 11.2102 27.8136 11.3188 27.8113C11.8205 27.8013 11.9252 27.799 12.4654 28.0946C14.1364 29.0079 15.4921 29.3246 17.4095 29.5895C19.5324 29.8826 21.5638 29.6582 23.4472 28.9218C25.2026 28.2355 26.8011 27.092 28.0702 25.6152C29.538 23.907 30.5614 21.7778 31.03 19.4578C31.5165 17.0479 31.3885 14.4755 30.6595 12.0187Z"/>
</mask>
<path d="M30.6595 12.0187C30.656 12.007 30.6522 11.9955 30.6478 11.9842L30.5641 11.7667C29.9673 10.2159 29.536 9.09541 28.4177 7.67092C28.2616 7.47215 27.974 7.43751 27.7752 7.5936C27.5765 7.74963 27.5418 8.03723 27.6979 8.23607C28.7312 9.55241 29.1207 10.564 29.71 12.0954L29.7874 12.2963C30.3766 14.2906 30.5428 16.3095 30.3112 18.2297C28.1566 16.5715 26.3008 16.461 23.6051 16.8575C23.355 16.8943 23.1821 17.1268 23.2189 17.3768C23.2557 17.6268 23.4887 17.7996 23.7382 17.7629C26.3917 17.3725 28.0558 17.5008 30.1442 19.271C29.7171 21.4035 28.7839 23.38 27.376 25.0186C24.9237 27.8727 21.3367 29.2081 17.5346 28.6827C15.6842 28.4272 14.46 28.1418 12.9044 27.2915C12.1791 26.8948 11.9044 26.8839 11.3001 26.8963C11.1968 26.8983 11.0805 26.9008 10.945 26.9008C8.83181 26.9008 7.11259 28.6224 7.11259 30.7386V32.7102L7.11277 32.7773C7.11325 32.8675 7.11392 33.0075 7.09969 33.0848C7.0983 33.0848 7.09678 33.0848 7.09533 33.0848H5.59643C5.59437 33.0242 5.59577 32.9463 5.59698 32.8829C5.59801 32.8276 5.59898 32.77 5.59898 32.7102V30.7386C5.59898 27.8647 7.84381 25.5157 10.7084 25.391C10.7844 25.3879 10.8632 25.3848 10.9378 25.3862C11.1234 25.3893 11.3334 25.3925 11.5076 25.2197C11.6701 25.0585 11.6788 24.8623 11.6874 24.6726C11.6894 24.6257 11.6919 24.5704 11.6965 24.5041C11.7145 24.2304 11.7751 23.9353 11.8758 23.6296C12.0623 23.0745 12.4009 22.5342 12.8824 22.0234C13.3051 21.5748 13.8232 21.0983 14.5132 20.5239C15.6128 19.6086 16.1392 18.8932 16.3301 18.0543C16.3701 17.8789 16.3941 17.6988 16.4035 17.5111C17.7025 17.9988 18.8499 18.1715 19.9932 18.1715C20.5528 18.1715 21.1116 18.1303 21.687 18.0651C21.9381 18.0366 22.1185 17.81 22.09 17.5589C22.0615 17.3078 21.8347 17.1269 21.5838 17.1558C19.4848 17.394 18.0308 17.2147 16.3192 16.4938C16.2246 16.0102 16.0536 15.4605 15.799 14.8059L15.7651 14.7185C15.2314 13.3443 14.9635 12.6545 15.1838 11.1901C15.2555 10.7209 14.8904 10.5306 14.753 10.459C14.7354 10.4499 14.7168 10.4403 14.7002 10.4311C12.994 9.482 11.934 7.68709 11.934 5.74686V3.91538H13.4477V5.74686C13.4477 6.93619 13.9886 8.03965 14.9318 8.77427L14.9651 8.80018C15.253 9.02469 15.4268 9.16037 15.6906 9.12199C15.9384 9.08614 16.0645 8.90983 16.1659 8.76815C16.2009 8.71929 16.2406 8.66383 16.2911 8.6008C16.5915 8.22777 16.9551 7.87944 17.4018 7.53651C19.6708 5.80487 23.5664 5.00087 26.3168 6.92159C26.524 7.06636 26.8092 7.01556 26.9539 6.80843C27.0986 6.60124 27.0479 6.316 26.8407 6.1713C25.3455 5.12711 23.4875 4.70982 21.4684 4.9643C19.79 5.17585 18.1054 5.84822 16.8455 6.80976C16.3394 7.19823 15.9249 7.59639 15.5777 8.02754C15.5623 8.04674 15.5477 8.06538 15.5339 8.08331C15.5319 8.08173 15.5299 8.0801 15.5278 8.07852L15.4942 8.05231C14.7752 7.49225 14.3628 6.65198 14.3628 5.74686V3.62948C14.3628 3.54678 14.3628 3.32717 14.1937 3.15946C14.0307 2.99768 13.8327 2.99919 13.7258 3.00016L11.5999 3.00034C11.2795 3.00034 11.0189 3.28255 11.0189 3.62948V5.74686C11.0189 8.01755 12.2573 10.1176 14.254 11.2301C14.0462 12.8204 14.3767 13.6715 14.912 15.0498L14.946 15.1373C15.2056 15.8046 15.3781 16.3501 15.4535 16.8221C15.4541 16.8613 15.4593 16.9001 15.4696 16.9375C15.617 18.0826 15.1573 18.7972 13.9279 19.8205C13.2088 20.4191 12.665 20.9197 12.2165 21.3957C11.6437 22.0033 11.2373 22.6568 11.0076 23.3406C10.8819 23.722 10.8064 24.0932 10.7835 24.4426C10.7828 24.4528 10.7821 24.4628 10.7815 24.4725C10.7429 24.4737 10.7055 24.4752 10.6699 24.4767C9.06141 24.5466 7.55645 25.2308 6.43228 26.4031C5.30484 27.5788 4.68399 29.1185 4.68399 30.7386V32.7102C4.68399 32.7641 4.68296 32.8162 4.68212 32.8661C4.67654 33.1662 4.67037 33.5064 4.91613 33.7567C5.07688 33.9204 5.29915 34 5.59571 34H7.09551C7.43367 34 7.63928 33.8647 7.75226 33.7512C8.03144 33.4706 8.02951 33.0675 8.02811 32.773L8.02787 30.7388C8.02787 29.1271 9.33659 27.816 10.9452 27.816C11.0877 27.816 11.2102 27.8136 11.3188 27.8113C11.8205 27.8013 11.9252 27.799 12.4654 28.0946C14.1364 29.0079 15.4921 29.3246 17.4095 29.5895C19.5324 29.8826 21.5638 29.6582 23.4472 28.9218C25.2026 28.2355 26.8011 27.092 28.0702 25.6152C29.538 23.907 30.5614 21.7778 31.03 19.4578C31.5165 17.0479 31.3885 14.4755 30.6595 12.0187Z" fill="#5F5F5F"/>
<path d="M30.6595 12.0187C30.656 12.007 30.6522 11.9955 30.6478 11.9842L30.5641 11.7667C29.9673 10.2159 29.536 9.09541 28.4177 7.67092C28.2616 7.47215 27.974 7.43751 27.7752 7.5936C27.5765 7.74963 27.5418 8.03723 27.6979 8.23607C28.7312 9.55241 29.1207 10.564 29.71 12.0954L29.7874 12.2963C30.3766 14.2906 30.5428 16.3095 30.3112 18.2297C28.1566 16.5715 26.3008 16.461 23.6051 16.8575C23.355 16.8943 23.1821 17.1268 23.2189 17.3768C23.2557 17.6268 23.4887 17.7996 23.7382 17.7629C26.3917 17.3725 28.0558 17.5008 30.1442 19.271C29.7171 21.4035 28.7839 23.38 27.376 25.0186C24.9237 27.8727 21.3367 29.2081 17.5346 28.6827C15.6842 28.4272 14.46 28.1418 12.9044 27.2915C12.1791 26.8948 11.9044 26.8839 11.3001 26.8963C11.1968 26.8983 11.0805 26.9008 10.945 26.9008C8.83181 26.9008 7.11259 28.6224 7.11259 30.7386V32.7102L7.11277 32.7773C7.11325 32.8675 7.11392 33.0075 7.09969 33.0848C7.0983 33.0848 7.09678 33.0848 7.09533 33.0848H5.59643C5.59437 33.0242 5.59577 32.9463 5.59698 32.8829C5.59801 32.8276 5.59898 32.77 5.59898 32.7102V30.7386C5.59898 27.8647 7.84381 25.5157 10.7084 25.391C10.7844 25.3879 10.8632 25.3848 10.9378 25.3862C11.1234 25.3893 11.3334 25.3925 11.5076 25.2197C11.6701 25.0585 11.6788 24.8623 11.6874 24.6726C11.6894 24.6257 11.6919 24.5704 11.6965 24.5041C11.7145 24.2304 11.7751 23.9353 11.8758 23.6296C12.0623 23.0745 12.4009 22.5342 12.8824 22.0234C13.3051 21.5748 13.8232 21.0983 14.5132 20.5239C15.6128 19.6086 16.1392 18.8932 16.3301 18.0543C16.3701 17.8789 16.3941 17.6988 16.4035 17.5111C17.7025 17.9988 18.8499 18.1715 19.9932 18.1715C20.5528 18.1715 21.1116 18.1303 21.687 18.0651C21.9381 18.0366 22.1185 17.81 22.09 17.5589C22.0615 17.3078 21.8347 17.1269 21.5838 17.1558C19.4848 17.394 18.0308 17.2147 16.3192 16.4938C16.2246 16.0102 16.0536 15.4605 15.799 14.8059L15.7651 14.7185C15.2314 13.3443 14.9635 12.6545 15.1838 11.1901C15.2555 10.7209 14.8904 10.5306 14.753 10.459C14.7354 10.4499 14.7168 10.4403 14.7002 10.4311C12.994 9.482 11.934 7.68709 11.934 5.74686V3.91538H13.4477V5.74686C13.4477 6.93619 13.9886 8.03965 14.9318 8.77427L14.9651 8.80018C15.253 9.02469 15.4268 9.16037 15.6906 9.12199C15.9384 9.08614 16.0645 8.90983 16.1659 8.76815C16.2009 8.71929 16.2406 8.66383 16.2911 8.6008C16.5915 8.22777 16.9551 7.87944 17.4018 7.53651C19.6708 5.80487 23.5664 5.00087 26.3168 6.92159C26.524 7.06636 26.8092 7.01556 26.9539 6.80843C27.0986 6.60124 27.0479 6.316 26.8407 6.1713C25.3455 5.12711 23.4875 4.70982 21.4684 4.9643C19.79 5.17585 18.1054 5.84822 16.8455 6.80976C16.3394 7.19823 15.9249 7.59639 15.5777 8.02754C15.5623 8.04674 15.5477 8.06538 15.5339 8.08331C15.5319 8.08173 15.5299 8.0801 15.5278 8.07852L15.4942 8.05231C14.7752 7.49225 14.3628 6.65198 14.3628 5.74686V3.62948C14.3628 3.54678 14.3628 3.32717 14.1937 3.15946C14.0307 2.99768 13.8327 2.99919 13.7258 3.00016L11.5999 3.00034C11.2795 3.00034 11.0189 3.28255 11.0189 3.62948V5.74686C11.0189 8.01755 12.2573 10.1176 14.254 11.2301C14.0462 12.8204 14.3767 13.6715 14.912 15.0498L14.946 15.1373C15.2056 15.8046 15.3781 16.3501 15.4535 16.8221C15.4541 16.8613 15.4593 16.9001 15.4696 16.9375C15.617 18.0826 15.1573 18.7972 13.9279 19.8205C13.2088 20.4191 12.665 20.9197 12.2165 21.3957C11.6437 22.0033 11.2373 22.6568 11.0076 23.3406C10.8819 23.722 10.8064 24.0932 10.7835 24.4426C10.7828 24.4528 10.7821 24.4628 10.7815 24.4725C10.7429 24.4737 10.7055 24.4752 10.6699 24.4767C9.06141 24.5466 7.55645 25.2308 6.43228 26.4031C5.30484 27.5788 4.68399 29.1185 4.68399 30.7386V32.7102C4.68399 32.7641 4.68296 32.8162 4.68212 32.8661C4.67654 33.1662 4.67037 33.5064 4.91613 33.7567C5.07688 33.9204 5.29915 34 5.59571 34H7.09551C7.43367 34 7.63928 33.8647 7.75226 33.7512C8.03144 33.4706 8.02951 33.0675 8.02811 32.773L8.02787 30.7388C8.02787 29.1271 9.33659 27.816 10.9452 27.816C11.0877 27.816 11.2102 27.8136 11.3188 27.8113C11.8205 27.8013 11.9252 27.799 12.4654 28.0946C14.1364 29.0079 15.4921 29.3246 17.4095 29.5895C19.5324 29.8826 21.5638 29.6582 23.4472 28.9218C25.2026 28.2355 26.8011 27.092 28.0702 25.6152C29.538 23.907 30.5614 21.7778 31.03 19.4578C31.5165 17.0479 31.3885 14.4755 30.6595 12.0187Z" stroke="#5F5F5F" stroke-width="0.4" mask="url(#path-1-outside-1_102_11272)"/>
<path d="M17.6423 24.2098C17.8477 23.2357 17.2227 22.276 16.2487 22.0701L16.2281 22.1679L16.2487 22.0701C15.7773 21.9704 15.2946 22.0609 14.8906 22.3246L14.8906 22.3246C14.4871 22.588 14.2098 22.9933 14.1103 23.4649L14.1103 23.4649C13.9049 24.4389 14.5299 25.3986 15.5038 25.6046C15.6288 25.631 15.7546 25.6441 15.8797 25.6441C16.2261 25.6441 16.5654 25.5437 16.862 25.35L16.862 25.35C17.2655 25.0866 17.5428 24.6814 17.6423 24.2098ZM17.6423 24.2098L17.5444 24.1892M17.6423 24.2098C17.6423 24.2098 17.6423 24.2098 17.6423 24.2098L17.5444 24.1892M17.5444 24.1892C17.4504 24.6348 17.1886 25.0173 16.8074 25.2663C16.5269 25.4494 16.2066 25.5441 15.8797 25.5441C15.7616 25.5441 15.6428 25.5317 15.5245 25.5067C14.6046 25.3122 14.0142 24.4055 14.2082 23.4856C14.3022 23.0398 14.564 22.6573 14.9453 22.4084C15.327 22.1592 15.7827 22.0738 16.2281 22.1679C17.148 22.3624 17.7385 23.2691 17.5444 24.1892ZM16.2524 24.4163C16.407 24.3153 16.5129 24.1605 16.5511 23.9797L16.2524 24.4163ZM16.2524 24.4163C16.0979 24.5171 15.9142 24.5515 15.7346 24.5135M16.2524 24.4163L15.7346 24.5135M15.7346 24.5135C15.3622 24.4347 15.1229 24.0674 15.2015 23.6951L15.7346 24.5135ZM15.8747 23.146C15.7432 23.146 15.6139 23.1841 15.5002 23.2583L15.8747 23.146ZM15.8747 23.146C15.9222 23.146 15.9702 23.151 16.018 23.1611M15.8747 23.146L16.018 23.1611M16.018 23.1611C16.3905 23.2399 16.6297 23.6071 16.5511 23.9797L16.018 23.1611ZM15.2015 23.695C15.2397 23.5142 15.3456 23.3594 15.5002 23.2583L15.2015 23.695Z" fill="#5F5F5F" stroke="#5F5F5F" stroke-width="0.2"/>
<path d="M20.715 20.227L20.715 20.227C21.1188 19.9638 21.6014 19.8735 22.073 19.9733M20.715 20.227L22.073 19.9733M20.715 20.227C20.3113 20.4903 20.0339 20.8959 19.9345 21.3681M20.715 20.227L19.9345 21.3681M22.073 19.9733C23.0469 20.1793 23.6719 21.1391 23.4665 22.113M22.073 19.9733L23.4665 22.113M19.9345 21.3681C19.7292 22.3422 20.3542 23.3019 21.3281 23.5078L21.3488 23.4099L19.9345 21.3681ZM23.4665 22.113C23.367 22.5845 23.0897 22.9898 22.6863 23.2532L22.6316 23.1695L23.4665 22.113ZM23.4665 22.113C23.4665 22.113 23.4665 22.113 23.4665 22.113L23.3686 22.0924L23.4665 22.113ZM21.5587 22.4167L21.5588 22.4167C21.7387 22.4548 21.9222 22.4203 22.0766 22.3195C22.2312 22.2185 22.3371 22.0637 22.3753 21.8829C22.4539 21.5104 22.2148 21.1431 21.8422 21.0643C21.8422 21.0643 21.8422 21.0643 21.8422 21.0643L21.5587 22.4167ZM21.5587 22.4167C21.1863 22.338 20.9471 21.9707 21.0256 21.598L21.0256 21.598M21.5587 22.4167L21.0256 21.598M21.0256 21.598C21.0639 21.4166 21.1697 21.2618 21.3242 21.1611L21.0256 21.598Z" fill="#5F5F5F" stroke="#5F5F5F" stroke-width="0.2"/>
</svg>
