<svg width="36" height="36" viewBox="0 0 36 36" fill="none" xmlns="http://www.w3.org/2000/svg">
<path d="M19.7346 12.843C19.1432 12.4052 18.3496 12.1641 17.5 12.1641C16.6504 12.1641 15.8568 12.4052 15.2654 12.8431C14.4674 13.4339 13.601 13.7461 12.7597 13.7461H11.9629V15.3281C14.5799 15.3281 16.709 17.4572 16.709 20.0742V24.0293H18.291V20.0742C18.291 17.4572 20.4201 15.3281 23.0371 15.3281V13.7461H22.2403C21.399 13.7461 20.5326 13.4339 19.7346 12.843ZM17.5 17.0128C16.9721 16.0618 16.2058 15.261 15.2832 14.6899C15.5984 14.5276 15.9073 14.3362 16.2067 14.1146C16.523 13.8804 16.9944 13.7461 17.5 13.7461C18.0056 13.7461 18.477 13.8804 18.7933 14.1145C19.0926 14.3362 19.4016 14.5276 19.7168 14.6899C18.7942 15.261 18.0279 16.0618 17.5 17.0128Z" fill="#5F5F5F"/>
<path d="M28.627 9C27.3185 9 26.2539 10.0645 26.2539 11.373V12.9551C26.2539 13.1451 26.1732 13.3242 26.044 13.4641C25.7066 12.3289 24.8328 11.3023 23.5003 10.5028C21.8851 9.53372 19.7542 9 17.5 9C15.2458 9 13.1149 9.53372 11.4997 10.5028C10.1672 11.3023 9.29337 12.3289 8.95603 13.4641C8.82678 13.3242 8.74609 13.1451 8.74609 12.9551V11.373C8.74609 10.0645 7.68155 9 6.37305 9C5.06455 9 4 10.0645 4 11.373V20.8652C4 23.9184 6.48395 26.4023 9.53711 26.4023C10.8456 26.4023 11.9102 25.3378 11.9102 24.0293C11.9102 22.7208 10.8456 21.6562 9.53711 21.6562C8.22935 21.6562 7.16528 22.7196 7.16412 24.0272C6.20409 23.3049 5.58203 22.1564 5.58203 20.8652V11.373C5.58203 10.9369 5.93688 10.582 6.37305 10.582C6.80921 10.582 7.16406 10.9369 7.16406 11.373V12.9551C7.16406 13.5926 7.42478 14.193 7.89818 14.6455C8.17561 14.9108 8.5042 15.1036 8.85931 15.2154C9.13063 16.7853 10.3 18.5087 11.9918 19.7693C13.0607 20.5658 13.6692 21.8249 13.5799 23.0554C13.5567 23.3759 13.5449 23.7036 13.5449 24.0293C13.5449 26.3537 14.1321 28.4762 15.127 29.7899V36H19.873V29.7899C20.8679 28.4762 21.4551 26.3537 21.4551 24.0293C21.4551 23.7036 21.4433 23.3759 21.4201 23.0554C21.3308 21.8249 21.9393 20.5658 23.0082 19.7693C24.6999 18.5087 25.8693 16.7853 26.1406 15.2154C26.4957 15.1036 26.8243 14.9107 27.1018 14.6455C27.5752 14.193 27.8359 13.5926 27.8359 12.9551V11.373C27.8359 10.9369 28.1908 10.582 28.627 10.582C29.0631 10.582 29.418 10.9369 29.418 11.373V20.8652C29.418 22.1564 28.7959 23.3049 27.8359 24.0272C27.8347 22.7196 26.7707 21.6562 25.4629 21.6562C24.1544 21.6562 23.0898 22.7208 23.0898 24.0293C23.0898 25.3378 24.1544 26.4023 25.4629 26.4023C28.5161 26.4023 31 23.9184 31 20.8652V11.373C31 10.0645 29.9355 9 28.627 9ZM8.74609 24.0293C8.74609 23.5931 9.10094 23.2383 9.53711 23.2383C9.97328 23.2383 10.3281 23.5931 10.3281 24.0293C10.3281 24.4655 9.97328 24.8203 9.53711 24.8203C9.10094 24.8203 8.74609 24.4655 8.74609 24.0293ZM22.0629 18.5008C20.5424 19.6337 19.7123 21.3792 19.8421 23.1699C19.8627 23.4524 19.873 23.7416 19.873 24.0293C19.873 26.0998 19.3406 28.002 18.4836 28.9936L18.291 29.2164V34.418H16.709V29.2164L16.5164 28.9936C15.6594 28.002 15.127 26.0998 15.127 24.0293C15.127 23.7416 15.1373 23.4524 15.1579 23.1699C15.2877 21.3791 14.4575 19.6337 12.9371 18.5007C11.4081 17.3615 10.3809 15.7686 10.3809 14.5371C10.3809 12.3932 13.641 10.582 17.5 10.582C21.359 10.582 24.6191 12.3932 24.6191 14.5371C24.6191 15.7686 23.5919 17.3615 22.0629 18.5008ZM24.6719 24.0293C24.6719 23.5931 25.0267 23.2383 25.4629 23.2383C25.8991 23.2383 26.2539 23.5931 26.2539 24.0293C26.2539 24.4655 25.8991 24.8203 25.4629 24.8203C25.0267 24.8203 24.6719 24.4655 24.6719 24.0293Z" fill="#5F5F5F"/>
</svg>
