<svg width="36" height="36" viewBox="0 0 36 36" fill="none" xmlns="http://www.w3.org/2000/svg">
<path d="M10.4005 28.745C12.1454 28.745 13.565 27.3263 13.565 25.5825C13.565 24.1202 13.1051 23.3369 12.6992 22.6458C12.3641 22.0753 12.0746 21.5823 12.036 20.7307C12.0367 18.411 12.3245 15.1154 13.6887 12.5691C14.4982 11.0581 15.3163 10.5221 15.3221 10.5183C15.3223 10.5181 15.3226 10.518 15.3228 10.5179C15.5202 10.3944 15.5803 10.1344 15.457 9.93686C15.3338 9.73935 15.0737 9.67902 14.8761 9.80207C14.8759 9.80221 14.8756 9.80235 14.8754 9.80249C14.2282 10.2072 13.5502 10.8719 12.8603 11.7783C12.2444 12.5873 11.6209 13.593 11.0573 14.6866C9.93431 16.8654 9.12438 19.2157 8.89088 20.9737C8.81817 21.5209 8.60667 22.0639 8.27923 22.544C7.55761 23.6019 7.23466 24.8324 7.23466 25.5826C7.23466 27.3263 8.65484 28.745 10.4005 28.745ZM8.97624 23.0193C9.37765 22.4309 9.63731 21.7619 9.72731 21.0847C9.9488 19.4177 10.7263 17.1703 11.8073 15.073C11.8273 15.0342 11.8473 14.9956 11.8674 14.9571C11.4674 16.4567 11.1921 18.3553 11.1921 20.74C11.1921 20.7461 11.1923 20.7522 11.1925 20.7582C11.2386 21.8251 11.6112 22.4595 11.9716 23.0731C12.3571 23.7296 12.7213 24.3497 12.7213 25.5825C12.7213 26.8611 11.6802 27.9013 10.4005 27.9013C9.12009 27.9013 8.07834 26.8611 8.07834 25.5825C8.07841 24.982 8.35938 23.9238 8.97624 23.0193Z" fill="#5F5F5F"/>
<path d="M34.1923 21.6014C31.8968 21.3648 29.9955 21.2632 27.6137 21.4868C27.4702 21.5002 27.3435 21.5861 27.2777 21.7144C27.2119 21.8427 27.2162 21.9957 27.2891 22.1201C28.4548 24.11 28.5979 26.1679 27.6819 27.7661C26.9096 29.1135 25.5098 29.918 23.9375 29.918C22.4222 29.918 21.0016 29.1217 20.23 27.84C19.7158 26.9859 19.0594 25.1639 20.4398 22.5572C20.5104 22.4239 20.5045 22.263 20.4242 22.1353C20.3439 22.0075 20.2016 21.9325 20.0507 21.9382C18.4984 21.9982 16.3408 22.0317 14.4202 22.0253C14.4198 22.0253 14.4193 22.0253 14.4188 22.0253C14.2717 22.0253 14.1351 22.102 14.0585 22.2278C13.9817 22.3539 13.9764 22.5111 14.0447 22.6421C14.9695 24.417 14.9802 26.3695 14.0732 27.8648C13.2817 29.1696 11.9431 29.918 10.4004 29.918C8.82443 29.918 7.37416 29.0678 6.61563 27.6991C5.73532 26.1108 5.93311 24.0757 7.15823 22.1156C7.23459 21.9934 7.24331 21.8407 7.18137 21.7106C7.11942 21.5805 6.99532 21.491 6.85238 21.4733C5.02988 21.2474 2.88858 21.7864 2.08252 21.9893C1.95877 22.0204 1.83073 22.0526 1.79508 22.0585C1.56509 22.0892 1.4028 22.2999 1.43234 22.5303C1.46194 22.7614 1.67323 22.9249 1.90441 22.8951C1.97473 22.8861 2.06733 22.8631 2.28846 22.8075C2.95566 22.6395 4.58747 22.2291 6.09975 22.2645C5.02348 24.3094 4.93615 26.4092 5.8777 28.1081C6.78488 29.7448 8.51787 30.7616 10.4004 30.7616C12.2179 30.7616 13.8606 29.8422 14.7947 28.3022C15.7499 26.7274 15.8449 24.7379 15.0798 22.8695C16.5515 22.8676 18.1029 22.8444 19.3836 22.8052C18.2335 25.4436 18.9456 27.3424 19.507 28.275C20.4303 29.8088 22.1279 30.7616 23.9374 30.7616C25.8159 30.7616 27.4893 29.7986 28.4138 28.1855C29.3929 26.4772 29.3557 24.352 28.3302 22.274C30.3561 22.1293 32.0711 22.2309 34.1059 22.4405C34.3375 22.4643 34.5449 22.2959 34.5687 22.0641C34.5926 21.8325 34.4241 21.6253 34.1923 21.6014Z" fill="#5F5F5F"/>
<path d="M23.9378 28.7451C25.6827 28.7451 27.1023 27.3264 27.1023 25.5826C27.1023 24.1203 26.6423 23.3369 26.2365 22.6459C25.9002 22.0733 25.6099 21.5789 25.5728 20.7219C25.3847 16.3694 26.8538 12.589 28.1194 10.1841C29.4982 7.56421 30.9425 5.95975 30.9568 5.944C31.1026 5.78361 31.1032 5.53878 30.958 5.37777C30.8129 5.21668 30.5694 5.19186 30.3948 5.32032C27.7167 7.28936 25.8526 10.6772 24.7605 13.1724C23.3871 16.3103 22.6458 19.3361 22.4282 20.9736C22.3555 21.5208 22.144 22.0638 21.8166 22.5439C21.0949 23.6019 20.772 24.8323 20.772 25.5826C20.7719 27.3264 22.1922 28.7451 23.9378 28.7451ZM22.5136 23.0194C22.9149 22.4309 23.1746 21.762 23.2646 21.0847C23.5498 18.9379 24.7255 14.6292 26.8048 10.9413C25.6582 13.4218 24.5616 16.8656 24.7299 20.7583C24.7759 21.8252 25.1486 22.4596 25.509 23.0732C25.8945 23.7297 26.2586 24.3497 26.2586 25.5826C26.2586 26.8612 25.2175 27.9014 23.9379 27.9014C22.6574 27.9014 21.6158 26.8612 21.6158 25.5826C21.6157 24.9821 21.8967 23.9238 22.5136 23.0194Z" fill="#5F5F5F"/>
</svg>
