<svg width="36" height="36" viewBox="0 0 36 36" fill="none" xmlns="http://www.w3.org/2000/svg">
<path d="M31.3061 9.42283L27.5772 5.69394C26.6519 4.76871 25.1464 4.76866 24.2212 5.69394C23.2959 6.61921 23.2959 8.12467 24.2212 9.04995L24.4076 9.23642L22.5432 11.1008L21.611 10.1686C20.6857 9.24338 19.1802 9.24333 18.255 10.1686C17.5258 10.8978 17.3717 11.9871 17.7918 12.869L9.67856 20.9824C8.9494 21.7115 8.79532 22.8009 9.21545 23.6828L8.18702 24.7112C7.46741 25.4308 7.46741 26.6018 8.18702 27.3214L8.37349 27.5079L5.23169 30.6497C4.92277 30.9586 4.92277 31.4594 5.23169 31.7683C5.54061 32.0772 6.04142 32.0772 6.35034 31.7683L9.49209 28.6266L9.67851 28.813C10.3981 29.5326 11.5691 29.5326 12.2887 28.813L13.3171 27.7846C14.1991 28.2047 15.2884 28.0506 16.0176 27.3215L24.1309 19.2082C25.0128 19.6283 26.1021 19.4743 26.8313 18.7451C27.7566 17.8198 27.7566 16.3144 26.8313 15.3891L25.8991 14.4569L27.7635 12.5924L27.9499 12.7789C28.8752 13.7042 30.3807 13.7042 31.306 12.7789C32.2313 11.8536 32.2313 10.3481 31.3061 9.42283ZM11.1701 27.6943C11.0673 27.7971 10.9 27.7971 10.7972 27.6943L9.30568 26.2028C9.2029 26.1 9.2029 25.9327 9.30568 25.8299L10.2379 24.8977L12.1023 26.7621L11.1701 27.6943ZM14.899 26.2028C14.5906 26.5112 14.0888 26.5112 13.7803 26.2028L10.7972 23.2197C10.4888 22.9113 10.4888 22.4095 10.7972 22.1011L11.4909 21.4073L12.4232 22.3395C12.7321 22.6484 13.2329 22.6484 13.5418 22.3395C13.8507 22.0306 13.8507 21.5298 13.5418 21.2209L12.6096 20.2886L13.7282 19.17L14.6605 20.1022C14.9694 20.4111 15.4702 20.4111 15.7791 20.1022C16.088 19.7933 16.088 19.2925 15.7791 18.9836L14.8469 18.0513L15.9655 16.9327L20.0673 21.0345L14.899 26.2028ZM21.186 19.9157L17.0842 15.814L18.8143 14.0839L22.916 18.1857L21.186 19.9157ZM25.7127 17.6263C25.4043 17.9348 24.9025 17.9348 24.5941 17.6263L19.3737 12.4059C19.0653 12.0975 19.0652 11.5956 19.3737 11.2873C19.6821 10.9788 20.1839 10.9788 20.4923 11.2873L25.7127 16.5077C26.0212 16.8161 26.0212 17.318 25.7127 17.6263ZM24.7805 13.3381L23.6619 12.2195L25.5263 10.3551L26.6449 11.4737L24.7805 13.3381ZM30.1874 11.6601C29.8789 11.9686 29.3771 11.9686 29.0687 11.6601L25.3398 7.93124C25.0314 7.6228 25.0314 7.12103 25.3398 6.81259C25.6483 6.50415 26.1501 6.5042 26.4585 6.81259L30.1874 10.5415C30.4958 10.8499 30.4958 11.3517 30.1874 11.6601Z" fill="#5F5F5F"/>
</svg>
