<svg width="36" height="36" viewBox="0 0 36 36" fill="none" xmlns="http://www.w3.org/2000/svg">
<g clip-path="url(#clip0_102_11460)">
<path d="M18.0845 17.1242C17.7617 17.2161 17.5747 17.5523 17.6666 17.875C17.8717 18.5951 17.6958 19.3439 17.2288 19.7382C16.5922 20.2758 15.4461 20.1883 14.915 19.5616C14.5429 19.1226 14.5647 18.5337 14.5914 18.3009C14.6408 17.869 14.2322 17.525 13.8146 17.6494C13.6595 17.6955 12.8534 17.9017 12.2053 17.432C11.507 16.9259 11.2965 15.8717 11.7359 15.0818C12.0515 14.5145 12.6629 14.1519 13.3313 14.1355C14.1639 14.115 14.9298 13.8433 15.5463 13.3497L24.9879 5.79064C25.2499 5.58095 25.2922 5.19854 25.0825 4.9366C24.8727 4.67465 24.4904 4.63234 24.2284 4.84204L14.7868 12.4011C14.3797 12.7271 13.866 12.9068 13.3014 12.9207C12.2046 12.9476 11.1979 13.5494 10.674 14.491C9.60763 16.4077 10.8279 19.0735 13.39 18.9403C13.6952 21.3415 16.5398 21.9105 18.0128 20.6666C18.8386 19.9693 19.1691 18.7137 18.8353 17.542C18.7433 17.2193 18.407 17.0324 18.0845 17.1242Z" fill="#5F5F5F"/>
<path d="M27.8825 8.53204C27.7289 8.23363 27.3623 8.11629 27.0642 8.26994C24.0826 9.80494 21.2495 11.7909 18.7021 14.2164C18.459 14.4478 18.4496 14.8323 18.681 15.0754C18.9122 15.3182 19.2967 15.3281 19.5401 15.0965C21.8917 12.8573 24.6044 10.903 27.6205 9.35031C27.9187 9.19674 28.0361 8.83036 27.8825 8.53204Z" fill="#5F5F5F"/>
<path d="M14.7082 25.9202C14.02 26.4076 13.5456 27.1741 13.4066 28.0231C13.0373 30.2795 13.1228 32.6043 13.6607 34.933C13.7358 35.2576 14.0602 35.4641 14.3895 35.3882C14.7165 35.3126 14.9203 34.9863 14.8448 34.6594C14.3426 32.4856 14.2622 30.3189 14.6058 28.2194C14.6927 27.6892 14.9859 27.2126 15.4105 26.9118C15.6844 26.7179 15.7491 26.3387 15.5552 26.0648C15.3613 25.791 14.982 25.7262 14.7082 25.9202Z" fill="#5F5F5F"/>
<path d="M14.5966 23.0017C14.9261 23.068 15.2459 22.8549 15.3122 22.526C15.3784 22.197 15.1654 21.8766 14.8365 21.8104C13.8521 21.6123 12.8396 22.0891 12.2441 22.9615C11.5192 22.5832 10.6614 22.5557 9.93573 22.9245C8.3926 23.7088 7.96379 26.1952 9.83859 27.5429C10.4584 27.9885 10.7899 28.7227 10.7037 29.459L10.0714 34.8579C10.0291 35.2187 10.3108 35.5363 10.6756 35.5363C10.9796 35.5363 11.2421 35.3086 11.2784 34.9993L11.9106 29.6004C12.0482 28.4259 11.526 27.2594 10.548 26.5562C10.1279 26.2543 9.86328 25.8316 9.82211 25.3967C9.78923 25.0498 9.88583 24.3131 10.4864 24.0079C10.9794 23.7574 11.6038 23.8744 12.0399 24.299C12.3569 24.6078 12.8902 24.4846 13.0373 24.0646C13.3191 23.2594 14.0516 22.8918 14.5966 23.0017Z" fill="#5F5F5F"/>
<path d="M10.1519 19.8693C10.2392 18.2333 9.09172 16.2 7.64838 16.2537C6.23725 16.3075 5.49925 17.9814 5.39383 19.6164C5.28864 21.2477 5.80358 22.9985 7.19086 23.2321C8.62607 23.4738 10.0618 21.5571 10.1519 19.8693ZM7.39266 22.0338C6.87286 21.9463 6.52752 20.9187 6.60643 19.6945C6.68557 18.4663 7.1636 17.4882 7.69456 17.468C8.13256 17.4516 9.00346 18.5844 8.9383 19.8046C8.87124 21.0632 7.83096 22.1066 7.39266 22.0338Z" fill="#5F5F5F"/>
<path d="M5.68076 13.4863C9.77639 8.98296 15.6544 5.42566 23.8109 1.1457C24.1081 0.989778 24.2225 0.622488 24.0667 0.325375C23.9107 0.0282626 23.5435 -0.0861926 23.2463 0.0696548C14.9724 4.41121 8.99761 8.03322 4.78183 12.6688C2.78771 14.8615 2.01083 17.8856 2.70386 20.7583C3.8409 25.4717 4.20135 30.3779 3.7752 35.3405C3.74474 35.6953 4.02439 36.0001 4.38127 36.0001C4.69327 36.0001 4.95879 35.7611 4.9859 35.4444C5.42322 30.3512 5.05289 25.3143 3.8851 20.4734C3.28669 17.9926 3.95793 15.3807 5.68076 13.4863Z" fill="#5F5F5F"/>
<path d="M20.5104 22.2356C20.3797 21.9266 20.0231 21.7819 19.7142 21.9127C19.4051 22.0434 19.2605 22.3999 19.3912 22.7089C21.0621 26.6602 21.2524 31.0274 19.968 35.0761C19.8437 35.4681 20.1371 35.8676 20.5473 35.8676C20.805 35.8676 21.0442 35.7023 21.1263 35.4435C22.4951 31.1286 22.2981 26.4631 20.5104 22.2356Z" fill="#5F5F5F"/>
<path d="M33.3278 11.2073C33.0709 10.9915 32.6876 11.0248 32.4718 11.2818C29.8729 14.3756 26.8078 17.2116 23.3138 19.6404C23.0382 19.832 22.9701 20.2106 23.1616 20.4861C23.3532 20.7617 23.7319 20.8297 24.0073 20.6382C27.4115 18.272 30.5945 15.4059 33.4022 12.0634C33.6181 11.8065 33.5848 11.4232 33.3278 11.2073Z" fill="#5F5F5F"/>
</g>
<defs>
<clipPath id="clip0_102_11460">
<rect width="36" height="36" fill="white"/>
</clipPath>
</defs>
</svg>
