<svg width="36" height="36" viewBox="0 0 36 36" fill="none" xmlns="http://www.w3.org/2000/svg">
<path d="M28.4582 7H18.3111C11.5227 7 6 12.5012 6 19.263V26.0398C6 27.4739 7.16677 28.6406 8.60087 28.6406C9.47245 28.6406 10.2814 28.2077 10.7649 27.4825C11.9605 25.6892 13.9842 24.5197 16.147 24.338V26.4766C16.147 27.6698 17.1178 28.6406 18.3111 28.6406C19.5044 28.6406 20.4752 27.6698 20.4752 26.4766V23.2184C21.8121 22.3223 22.785 20.9456 23.1713 19.3825C23.3628 18.6073 23.9359 17.8844 24.744 17.3988L27.4654 15.7947L27.4703 15.7918C28.4298 15.2161 29.2283 14.3972 29.7796 13.4235C30.3308 12.4498 30.6222 11.3437 30.6222 10.2248V9.16406C30.6222 7.9708 29.6514 7 28.4582 7ZM18.3111 27.1979C17.9134 27.1979 17.5898 26.8743 17.5898 26.4766V18.4176C17.8155 18.4977 18.0582 18.5417 18.3111 18.5417C18.564 18.5417 18.8067 18.4977 19.0325 18.4176V26.4766C19.0325 26.8743 18.7089 27.1979 18.3111 27.1979ZM29.1795 10.2248C29.1795 11.9874 28.2412 13.6457 26.7303 14.5533L24.009 16.1573L24.0041 16.1602C22.8511 16.852 22.0579 17.8735 21.7706 19.0364C21.5543 19.912 21.1008 20.7125 20.4752 21.3524V13.4922C20.4752 13.2706 20.5749 13.0644 20.749 12.9264C20.8384 12.8554 20.9886 12.7708 21.1965 12.7708H23.4847C23.7824 13.6104 24.5842 14.2135 25.5247 14.2135V12.7708C25.1269 12.7708 24.8033 12.4472 24.8033 12.0495C24.8033 11.6517 25.1269 11.3281 25.5247 11.3281V9.88542C24.5842 9.88542 23.7824 10.4886 23.4847 11.3281H21.1965C20.7101 11.3281 20.2327 11.4944 19.8524 11.7961C19.3313 12.2094 19.0325 12.8276 19.0325 13.4922V16.3776C19.0325 16.7754 18.7089 17.099 18.3111 17.099C17.9134 17.099 17.5898 16.7754 17.5898 16.3776C17.5898 15.1843 16.619 14.2135 15.4257 14.2135H13.1376C12.8398 13.374 12.038 12.7708 11.0976 12.7708V14.2135C11.4953 14.2135 11.8189 14.5371 11.8189 14.9349C11.8189 15.3327 11.4953 15.6562 11.0976 15.6562V17.099C12.038 17.099 12.8398 16.4958 13.1376 15.6562H15.4257C15.8234 15.6562 16.147 15.9798 16.147 16.3776V22.8909C13.4206 23.0794 10.9987 24.531 9.56455 26.6821C9.34925 27.0051 8.98896 27.1979 8.60087 27.1979C7.96228 27.1979 7.44271 26.6783 7.44271 26.0398V19.263C7.44271 13.2967 12.3182 8.44271 18.3111 8.44271H28.4582C28.8559 8.44271 29.1795 8.76631 29.1795 9.16406V10.2248Z" fill="#5F5F5F"/>
</svg>
