<svg width="36" height="36" viewBox="0 0 36 36" fill="none" xmlns="http://www.w3.org/2000/svg">
<path d="M4.8883 28.7165C5.11329 28.6546 5.24559 28.4219 5.18351 28.1967C4.62435 26.1657 4.75291 23.0645 5.57647 18.716C6.11759 15.8587 6.98936 13.3865 8.16779 11.3678C9.01468 9.91704 9.99719 8.73068 11.0882 7.8413C11.7826 7.27509 12.7659 7.26584 13.4796 7.81906C14.0144 8.23337 14.2891 8.88522 14.2143 9.56238C14.0606 10.9566 14.1251 12.9889 15.2558 14.9037C15.1026 15.0926 14.9313 15.2963 14.7402 15.5144C14.7398 15.5149 14.7393 15.5155 14.7389 15.516C14.3257 15.991 13.8869 16.441 13.4418 16.8861C13.3328 16.9951 12.0414 18.2365 12.0095 18.2046C11.7015 17.8929 11.3418 17.4962 10.987 17.0303C10.992 16.6288 11.0312 15.4292 11.3075 14.631C11.3839 14.4104 11.2668 14.1696 11.0462 14.0934C10.8256 14.017 10.585 14.1339 10.5086 14.3545C10.3505 14.8108 10.2603 15.3594 10.2087 15.851C9.91485 15.326 9.66323 14.7518 9.50054 14.1416C9.44022 13.9162 9.20863 13.7819 8.9832 13.8422C8.75756 13.9023 8.62349 14.1339 8.68359 14.3595C8.89801 15.164 9.24848 15.9074 9.64914 16.5674C9.09702 16.5132 8.40444 16.5273 7.77131 16.7794C7.55447 16.8657 7.44858 17.1116 7.53509 17.3284C7.61963 17.5413 7.87147 17.6496 8.08413 17.5648C8.92222 17.2311 9.96637 17.4515 10.3146 17.5413C10.677 18.0172 11.0427 18.4249 11.3608 18.7508C11.2003 18.8826 11.044 19.0211 10.8923 19.1664C10.279 19.7542 9.73962 20.4509 9.27798 21.2512C8.68623 20.7561 7.93862 19.9933 7.65089 19.1164C7.57802 18.8947 7.33917 18.7739 7.11726 18.8467C6.89557 18.9196 6.77472 19.1585 6.84758 19.3802C6.96866 19.7489 7.14918 20.0958 7.36426 20.4179C6.99926 20.4696 6.55919 20.5729 6.12771 20.7761C5.91637 20.8754 5.82567 21.1272 5.92518 21.3383C6.02292 21.5464 6.27961 21.6388 6.48765 21.5409C7.08028 21.2622 7.71297 21.2186 8.00334 21.2146C8.28865 21.518 8.59069 21.7866 8.87709 22.0162C8.69305 22.3997 8.52376 22.8023 8.37142 23.2256C8.16515 23.7985 8.0051 24.3592 7.88072 24.8864C7.74137 24.8446 7.59497 24.8054 7.44329 24.7708C7.32309 24.5566 7.10603 24.1102 7.05738 23.6032C7.03515 23.3709 6.82887 23.2003 6.5964 23.2228C6.36393 23.245 6.19353 23.4515 6.21577 23.6838C6.24989 24.0402 6.34411 24.3675 6.44868 24.6383C6.15831 24.6297 5.86486 24.65 5.57933 24.7131C5.35126 24.7638 5.20751 24.9894 5.25792 25.2173C5.30856 25.4453 5.5342 25.5891 5.76205 25.5387C6.40289 25.3967 7.12761 25.5354 7.70769 25.7174C7.60884 26.2603 7.54742 26.7462 7.51022 27.1424C7.45188 27.7597 7.91528 28.3409 8.53807 28.3902C9.08557 28.4336 9.61436 28.0415 9.72883 27.5035C9.76273 27.3443 9.80676 27.1543 9.86224 26.9399C10.3118 27.3417 10.8163 27.9035 11.0239 28.5355C11.0955 28.7539 11.3394 28.877 11.5573 28.8054C11.7793 28.7325 11.8999 28.4937 11.827 28.2718C11.7359 27.9944 11.6053 27.7318 11.4499 27.4854C11.7357 27.4374 12.0646 27.3514 12.3877 27.1992C12.5991 27.1 12.6896 26.8481 12.5903 26.6368C12.4908 26.4254 12.2389 26.335 12.0278 26.4342C11.5675 26.6511 11.0755 26.6922 10.8289 26.698C10.5975 26.4545 10.3543 26.2383 10.1229 26.0525C10.4888 24.9375 11.1028 23.5202 12.1011 22.246C12.2334 22.4479 12.3847 22.6588 12.5555 22.8723C12.4969 23.3502 12.3921 24.6147 12.7567 25.6259C12.8346 25.842 13.0821 25.9578 13.2978 25.8801C13.5173 25.8009 13.6313 25.5587 13.5521 25.3392C13.3683 24.8292 13.3319 24.2145 13.3427 23.7194C13.6527 24.0056 14.0029 24.2797 14.3985 24.524C14.5912 24.6429 14.858 24.5846 14.9804 24.3862C15.103 24.1877 15.0414 23.9272 14.8426 23.8046C13.8028 23.1627 13.1078 22.2812 12.6774 21.5761C12.8571 21.3861 13.0457 21.2012 13.2461 21.024C14.3213 20.0727 15.2128 19.4376 15.9292 18.9271C15.9963 18.8793 16.0617 18.8327 16.1262 18.7864C16.3481 19.8568 16.6229 21.6362 16.6229 24.8232C16.6229 27.8216 16.2253 29.5554 15.3341 30.4453C14.3494 31.4286 12.6647 31.426 10.3331 31.4227C8.61424 31.4227 6.79739 31.1968 5.79309 29.6219C5.66761 29.4251 5.4063 29.3672 5.20949 29.4927C5.01268 29.6182 4.95478 29.8797 5.08027 30.0765C6.0205 31.5508 7.59806 32.2676 9.90297 32.2676C10.1821 32.2676 10.4613 32.2685 10.7404 32.2685C13.0649 32.2685 14.766 32.2073 15.9316 31.0436C16.9943 29.9823 17.4684 28.064 17.4684 24.8232C17.4684 21.1459 17.1083 19.284 16.8712 18.2332C17.3304 17.8686 17.6853 17.516 17.9307 17.0759C18.0272 16.9033 18.2055 16.7961 18.3961 16.7961H18.4556C18.6464 16.7961 18.8248 16.9033 18.921 17.0759C19.1664 17.516 19.5213 17.8686 19.9805 18.2332C19.7436 19.284 19.3835 21.1459 19.3835 24.8232C19.3835 28.064 19.8574 29.9823 20.9203 31.0436C22.0857 32.2075 23.7866 32.2685 26.1113 32.2685C26.3904 32.2685 26.6696 32.2676 26.9487 32.2676C29.0049 32.2676 30.4721 31.7032 31.434 30.5419C32.2639 29.5403 32.7203 28.1014 32.829 26.143C32.9382 24.1846 32.7015 21.7036 32.1058 18.5586C31.5361 15.5499 30.6066 12.9471 29.3437 10.8225C29.2244 10.6217 28.9648 10.5559 28.7643 10.6752C28.5635 10.7945 28.4977 11.0539 28.6168 11.2546C29.8295 13.2943 30.7238 15.8046 31.2752 18.7158C32.3997 24.6533 32.2432 28.2399 30.783 30.0028C29.7342 31.2686 28.0499 31.4203 26.5188 31.4227C24.1872 31.426 22.5023 31.4286 21.5176 30.4453C20.6264 29.5554 20.2291 27.8216 20.2291 24.8232C20.2291 21.6362 20.5038 19.8568 20.7257 18.7864C20.7902 18.8327 20.8556 18.8793 20.9227 18.9271C21.8473 19.586 22.7548 20.2711 23.6056 21.024C23.806 21.2012 23.9948 21.3861 24.1743 21.5761C23.7441 22.281 23.0491 23.1627 22.0091 23.8046C21.8106 23.9272 21.7489 24.1877 21.8715 24.3862C21.9924 24.5822 22.2575 24.6449 22.4532 24.524C22.8492 24.2797 23.1995 24.0052 23.5099 23.7188C23.5206 24.213 23.4843 24.8272 23.2998 25.339C23.2025 25.6089 23.411 25.9052 23.6974 25.9052C23.8707 25.9052 24.0329 25.798 24.0952 25.6259C24.4596 24.6147 24.355 23.3502 24.2964 22.8723C24.4673 22.6585 24.6185 22.4476 24.7506 22.246C25.7492 23.5202 26.3631 24.9375 26.729 26.0525C26.4977 26.2383 26.2544 26.4545 26.023 26.698C25.7765 26.6922 25.2847 26.6511 24.8241 26.4342C24.6128 26.335 24.3612 26.4256 24.2617 26.6368C24.1624 26.8481 24.2528 27.1 24.4642 27.1992C24.7874 27.3514 25.1165 27.4374 25.402 27.4854C25.2466 27.7318 25.116 27.9944 25.0249 28.2718C24.952 28.4937 25.0727 28.7325 25.2946 28.8054C25.5092 28.8759 25.7553 28.757 25.828 28.5355C26.0356 27.9035 26.5401 27.3417 26.9897 26.9399C27.0452 27.1543 27.0892 27.3443 27.1231 27.5035C27.1231 27.5041 27.1233 27.5046 27.1235 27.5052C27.238 28.04 27.7686 28.4331 28.3138 28.3902C28.9664 28.3387 29.3983 27.7194 29.3369 27.0944C29.2992 26.707 29.2391 26.239 29.1442 25.7174C29.7241 25.5354 30.449 25.3967 31.0899 25.5387C31.3177 25.5891 31.5434 25.4451 31.5938 25.2173C31.6444 24.9894 31.5004 24.7638 31.2726 24.7131C30.9871 24.65 30.6936 24.6297 30.4032 24.6383C30.5078 24.3675 30.602 24.0402 30.6361 23.6838C30.6584 23.4515 30.488 23.245 30.2555 23.2228C30.0228 23.2003 29.8168 23.3709 29.7945 23.6032C29.7459 24.1113 29.5293 24.5564 29.4086 24.7708C29.2569 24.8054 29.1105 24.8446 28.9712 24.8862C28.8468 24.3592 28.6868 23.7982 28.4805 23.2256C28.442 23.1186 27.9601 22.0278 27.9748 22.0162C28.2615 21.7863 28.5635 21.5175 28.849 21.2142C29.1376 21.217 29.7664 21.2597 30.3643 21.5409C30.5686 21.6371 30.8275 21.5495 30.9267 21.3383C31.026 21.1272 30.9355 20.8754 30.7242 20.7759C30.2927 20.5729 29.8527 20.4696 29.4877 20.4179C29.7027 20.0958 29.8833 19.7489 30.0041 19.3802C30.077 19.1585 29.9563 18.9196 29.7344 18.8467C29.5128 18.7739 29.2739 18.8945 29.201 19.1164C28.9131 19.9933 28.1657 20.7561 27.5737 21.2514C26.998 20.253 26.3013 19.4163 25.4909 18.7508C25.8093 18.4249 26.1751 18.017 26.5375 17.5409C26.8853 17.4502 27.9246 17.2291 28.7678 17.5648C28.9818 17.65 29.2316 17.5426 29.3168 17.3284C29.4031 17.1116 29.2975 16.8657 29.0804 16.7794C28.4473 16.5273 27.7549 16.5132 27.2028 16.5674C27.6034 15.9076 27.9537 15.164 28.1683 14.3595C28.2284 14.1341 28.0944 13.9023 27.8687 13.8422C27.6433 13.7821 27.4115 13.9162 27.3514 14.1418C27.1887 14.7518 26.9371 15.3262 26.6432 15.851C26.5917 15.3594 26.5014 14.8108 26.3433 14.3545C26.2669 14.1339 26.0263 14.017 25.8055 14.0934C25.5849 14.1698 25.468 14.4104 25.5444 14.6312C25.8207 15.4294 25.8597 16.6288 25.865 17.0303C25.5101 17.4962 25.1504 17.8929 24.8422 18.2048C24.8327 18.1964 24.8228 18.1881 24.8133 18.1799C23.9964 17.4737 23.2578 16.7041 22.4959 15.9419C22.1443 15.56 21.846 15.2115 21.5961 14.904C22.7268 12.9887 22.7913 10.9566 22.6374 9.56238C22.5628 8.88522 22.8375 8.23337 23.3723 7.81906C24.086 7.26584 25.0691 7.27509 25.7637 7.8413C26.4653 8.41323 27.1319 9.12055 27.7452 9.94367C27.8846 10.1308 28.1494 10.1695 28.3365 10.03C28.5239 9.89062 28.5626 9.62579 28.423 9.43844C27.7683 8.55985 27.0533 7.80189 26.298 7.18593C25.2968 6.36985 23.8808 6.35532 22.8543 7.1507C22.0851 7.74685 21.6899 8.68313 21.7971 9.65506C21.9286 10.8463 21.8863 12.5473 21.0339 14.1753C21.0018 14.1313 20.9707 14.0883 20.9421 14.048C20.7057 13.7156 20.5806 13.3255 20.5806 12.9198V5.16236C20.5806 4.52152 20.0591 4 19.4183 4H17.4339C16.793 4 16.2715 4.52152 16.2715 5.16236V12.9198C16.2715 13.3255 16.1465 13.7156 15.91 14.048C15.8814 14.0883 15.8504 14.1313 15.8182 14.1753C14.9661 12.5473 14.9236 10.8463 15.055 9.65506C15.1622 8.68313 14.7671 7.74685 13.9979 7.1507C12.9713 6.35532 11.5554 6.36985 10.5544 7.18593C9.38453 8.13959 8.3362 9.403 7.43801 10.9416C6.21071 13.0437 5.30503 15.6064 4.74609 18.5586C3.89765 23.0368 3.77437 26.263 4.36854 28.4213C4.4304 28.6462 4.66309 28.7786 4.8883 28.7165ZM16.5987 14.5381C16.9377 14.0619 17.1167 13.5023 17.1167 12.9198V5.16236C17.1167 4.98757 17.2589 4.84557 17.4337 4.84557H19.418C19.5928 4.84557 19.735 4.98757 19.735 5.16236V12.9198C19.735 13.5023 19.914 14.0619 20.2528 14.5381C20.9679 15.543 21.7949 16.4683 22.6663 17.3394C23.5477 18.2209 24.552 18.9678 25.441 19.8418C27.7756 22.1377 28.3561 25.7084 28.499 27.2135C28.4992 27.2162 28.4994 27.219 28.4996 27.2217C28.5142 27.3751 28.4059 27.5345 28.2465 27.5473C28.2436 27.5475 28.2408 27.5471 28.2379 27.5473C28.1016 27.5539 27.9781 27.4612 27.9497 27.3276C27.8599 26.9051 27.7637 26.4695 27.6182 26.0622C27.0218 24.4155 26.3612 22.8626 25.2325 21.4973C24.1588 20.1987 22.7755 19.2093 21.413 18.2385C20.7942 17.7973 20.0402 17.3471 19.6591 16.6642C19.1369 15.7277 17.7154 15.7262 17.1924 16.664C16.8107 17.3484 16.0597 17.7956 15.4385 18.2385C14.7061 18.7602 13.7947 19.4099 12.686 20.3906C11.1323 21.7652 10.0694 23.6243 9.39465 25.5682C9.19498 26.1434 9.02877 26.7319 8.90197 27.3276C8.87291 27.4641 8.74545 27.5585 8.60499 27.5473C8.44517 27.5345 8.3373 27.3747 8.35183 27.2217C8.40753 26.6308 8.53125 25.7174 8.80312 24.687C9.13862 23.4156 9.64055 22.174 10.3818 21.083C10.7992 20.4685 11.3004 19.8933 11.9023 19.3997C12.6924 18.7521 13.4537 18.0685 14.1773 17.3473C15.0524 16.4754 15.8819 15.5455 16.5987 14.5381Z" fill="#5F5F5F"/>
</svg>
