<svg width="36" height="36" viewBox="0 0 36 36" fill="none" xmlns="http://www.w3.org/2000/svg">
<path d="M18.5398 15.3523C16.9822 16.9093 15.9827 18.8825 15.6474 21.0594C15.2244 23.8112 14.703 26.5854 14.0989 29.3062L12.7635 35.3154L13.8615 35.5595L15.1969 29.5504C15.8066 26.8059 16.3326 24.0069 16.7589 21.231C17.0576 19.292 17.9481 17.5342 19.3352 16.1477L18.5398 15.3523Z" fill="#5F5F5F"/>
<path d="M15.7273 7.14765L16.5227 6.35227L16.0434 5.87302C15.1586 4.98765 13.9808 4.49996 12.7286 4.49996C11.2987 4.49996 9.94706 4.95165 8.83669 5.76165L9.92569 0.680586L8.82488 0.444336L7.36181 7.27084C7.28138 7.38334 7.19419 7.48909 7.1205 7.60777C6.38756 8.78059 6 10.1323 6 11.5155V15.4963C6 16.8075 6.08212 18.1321 6.24525 19.4338C6.4545 21.11 6.52538 22.8172 6.45506 24.5058L6.00056 35.4138L7.12444 35.4611L7.57894 24.5525C7.6515 22.8015 7.57894 21.0318 7.36125 19.2937C7.20487 18.0382 7.125 16.7608 7.125 15.4963V11.5155C7.125 10.3432 7.4535 9.19852 8.0745 8.20459C9.08363 6.58909 10.8234 5.62496 12.7286 5.62496C13.6804 5.62496 14.5753 5.99565 15.2481 6.6684L15.7273 7.14765Z" fill="#5F5F5F"/>
<path d="M28.455 27.7228C28.4781 27.3392 28.4972 26.9555 28.4994 26.5713L28.806 25.9582C29.3421 24.8867 29.625 23.6868 29.625 22.4893C29.625 20.9092 29.1508 19.3871 28.2542 18.0872L19.0022 4.6721C18.5921 4.07641 18.375 3.38004 18.375 2.65779C18.375 2.10991 18.5044 1.56147 18.7496 1.07154L18.8784 0.814473L17.8721 0.311035L17.7433 0.568098C17.4204 1.21329 17.25 1.9361 17.25 2.65779C17.25 3.60954 17.5358 4.52641 18.0758 5.31054L27.3278 18.7262C28.095 19.8377 28.5 21.1387 28.5 22.4893C28.5 23.513 28.2581 24.539 27.7997 25.4542L27.5179 26.0178L26.5318 26.5112C25.8923 26.8312 25.1762 27 24.4624 27C23.226 27 22.0639 26.519 21.1903 25.6449L19.3358 23.7898L18.5404 24.5852L20.3949 26.4403C21.4806 27.527 22.9256 28.125 24.4624 28.125C25.35 28.125 26.2393 27.9152 27.0352 27.518L27.3446 27.3633C27.3272 27.7498 27.2974 28.1351 27.258 28.5198C26.9717 28.6807 26.6781 28.832 26.3805 28.962L26.8327 29.9925C26.9132 29.957 26.9925 29.9171 27.0724 29.8794C26.961 30.5302 26.8294 31.1777 26.6556 31.8155L25.7077 35.2895L26.7934 35.5848L27.7412 32.1108C28.0922 30.8244 28.3166 29.5076 28.4246 28.1807L28.8847 28.8185C29.2031 28.589 29.5136 28.3393 29.8067 28.0783L29.0574 27.239C28.8651 27.4095 28.6592 27.5658 28.455 27.7228Z" fill="#5F5F5F"/>
</svg>
