<svg width="36" height="36" viewBox="0 0 36 36" fill="none" xmlns="http://www.w3.org/2000/svg">
<path d="M21.3923 30.5734V26.5743L26.1696 26.2916C26.5993 26.2667 26.9328 25.9141 26.929 25.49L26.8814 20.317H28.7788C29.0343 20.317 29.274 20.1985 29.4267 19.9972C29.5792 19.7967 29.6262 19.5363 29.5545 19.2953C29.5434 19.2583 28.4369 15.5789 27.5614 12.6137C27.028 10.804 25.7751 8.97074 24.1267 7.58489C22.7251 6.40564 20.3657 5 17.0975 5C14.3547 5 11.5529 6.13003 9.40848 8.09946C7.24266 10.0901 6 12.7115 6 15.2917C6 17.7066 6.77524 20.1004 8.23975 22.2149C9.01179 23.3281 9.78562 24.0941 10.1994 24.4673V28.9362" stroke="#5F5F5F" stroke-width="1.6" stroke-linecap="round"/>
<path d="M8.72165 13.3151H11.6702L12.5774 15.1131L13.7112 11.0679L14.8453 13.3152H16.4329L17.567 16.6863L19.608 9.49463L21.4225 13.3152H24.1442" stroke="#5F5F5F" stroke-width="1.6" stroke-linecap="round" stroke-linejoin="round"/>
</svg>
