<svg width="36" height="36" viewBox="0 0 36 36" fill="none" xmlns="http://www.w3.org/2000/svg">
<path d="M10.6652 26.7952C10.7631 26.8931 10.861 27.089 11.0568 27.089C11.1548 27.089 11.1548 27.089 11.2527 27.089C11.5465 27.089 11.7423 26.8931 11.8402 26.6973C12.2319 25.2285 13.6028 24.2492 15.0717 24.2492H23.1014C23.3951 24.2492 23.6889 23.9555 23.6889 23.6617C23.6889 23.3679 23.3951 23.0742 23.1014 23.0742H8.90254C7.04201 23.0742 5.47525 21.6053 5.47525 19.7448C5.47525 17.8842 6.94409 16.4154 8.90254 16.4154H26.8224C27.1162 16.4154 27.41 16.1216 27.41 15.8279C27.41 15.5341 27.1162 15.2403 26.8224 15.2403H14.9738C13.1132 15.2403 11.5465 13.7715 11.5465 11.9109C11.5465 10.0504 13.0153 8.58157 14.9738 8.58157H17.6177C17.9114 8.58157 18.2052 8.2878 18.2052 7.99403C18.2052 7.70026 17.9114 7.40649 17.6177 7.40649H14.9738C12.4278 7.40649 10.3714 9.46287 10.3714 12.0089C10.3714 13.2819 10.861 14.5549 11.8402 15.3382H8.90254C6.35655 15.3382 4.30017 17.3946 4.30017 19.9406C4.30017 22.4866 6.35655 24.543 8.90254 24.543H11.9382C11.3506 25.1305 10.861 25.816 10.6652 26.5994C10.5672 26.5014 10.5672 26.5994 10.6652 26.7952Z" fill="#5F5F5F"/>
<path d="M28.0954 11.1276H26.0391C27.0183 10.2463 27.5079 9.07122 27.5079 7.79822V5.25223C27.5079 3.97923 26.4308 3 25.2557 3C24.0806 3 23.0035 4.07715 23.0035 5.25223V6.81899C23.0035 6.91691 22.9055 7.11276 22.7097 7.11276H20.0658C19.772 7.11276 19.4782 7.40653 19.4782 7.7003C19.4782 7.99407 19.772 8.28783 20.0658 8.28783H22.7097C23.4931 8.28783 24.1785 7.60237 24.1785 6.81899V5.25223C24.1785 4.66469 24.6681 4.17507 25.2557 4.17507C25.8432 4.17507 26.3328 4.66469 26.3328 5.25223V7.7003C26.3328 9.56083 24.864 11.0297 22.9055 11.0297H16.4426C16.1489 11.0297 15.8551 11.3234 15.8551 11.6172C15.8551 11.911 16.1489 12.2047 16.4426 12.2047H28.1934C30.0539 12.2047 31.6207 13.6736 31.6207 15.5341C31.6207 17.3947 30.1518 18.8635 28.1934 18.8635H9.97972C9.68595 18.8635 9.39218 19.1573 9.39218 19.451C9.39218 19.7448 9.68595 20.0386 9.97972 20.0386H22.8076C24.6681 20.0386 26.2349 21.5074 26.2349 23.368C26.2349 25.2285 24.7661 26.6973 22.8076 26.6973H14.5821C14.2883 26.6973 13.9946 26.9911 13.9946 27.2849C13.9946 27.5786 14.2883 27.8724 14.5821 27.8724H16.5405C18.4011 27.8724 19.9679 29.3412 19.9679 31.2018V33.6498C19.9679 34.2374 19.4782 34.727 18.8907 34.727C18.3032 34.727 17.8135 34.2374 17.8135 33.6498V32.0831C17.8135 31.2997 17.1281 30.6142 16.3447 30.6142H14.9738C13.5049 30.6142 12.134 29.635 11.7423 28.1662C11.6444 27.8724 11.3506 27.6766 10.9589 27.7745C10.6652 27.8724 10.4693 28.1662 10.5673 28.5579C11.1548 30.5163 12.9174 31.8872 14.9738 31.8872H16.3447C16.4426 31.8872 16.6385 31.9852 16.6385 32.181V33.7478C16.6385 35.0208 17.7156 36 18.8907 36C20.1637 36 21.1429 34.9228 21.1429 33.7478V31.2997C21.1429 30.0267 20.6533 28.7537 19.6741 27.9703H22.8076C25.3536 27.9703 27.41 25.9139 27.41 23.368C27.41 22.095 26.9204 20.822 25.9411 20.0386H27.9975C30.5435 20.0386 32.5999 17.9822 32.5999 15.4362C32.5999 12.8902 30.6414 11.1276 28.0954 11.1276Z" fill="#5F5F5F"/>
</svg>
