<svg width="36" height="36" viewBox="0 0 36 36" fill="none" xmlns="http://www.w3.org/2000/svg">
<path d="M4.12634 14.3046C4.09491 12.7759 4.28299 11.2507 4.68482 9.77546C5.22386 7.94187 6.34265 6.33237 7.8735 5.18819C10.8846 2.82895 13.6988 1.85122 16.9888 2.01817C18.7244 2.13836 20.4488 2.38491 22.1485 2.75587C24.5546 3.23967 26.3026 4.08565 27.4926 5.34234C28.4357 6.34658 29.1639 7.53271 29.6326 8.82814C29.8313 9.39892 29.9931 9.98189 30.117 10.5734L30.1597 10.758C30.272 11.1735 30.4236 11.5773 30.6125 11.964C30.7224 12.2105 30.8328 12.4569 30.9283 12.7108C31.0519 12.9925 31.1013 13.3012 31.0718 13.6074C30.9632 14.0839 30.687 14.5055 30.2935 14.7953C30.0316 15.0354 29.8599 15.2034 29.8583 15.357C29.8791 15.4366 29.9105 15.513 29.9516 15.5842C30.5904 16.9311 31.3734 18.2046 32.2869 19.3826C32.6698 19.8504 33.071 20.3961 32.9894 20.9503C32.8728 21.3709 32.5951 21.7285 32.2165 21.9456C32.04 22.0671 31.8539 22.1742 31.6601 22.2656C31.4302 22.383 31.0446 22.5793 31.02 22.7206C30.9855 22.9002 31.0057 23.0861 31.0782 23.254C31.1576 23.4205 31.2382 23.5645 31.3102 23.6898C31.506 24.036 31.834 24.6164 31.3406 25.0313C31.2254 25.1327 31.028 25.2879 30.8477 25.4261C30.981 25.6604 31.0408 25.9292 31.0195 26.1979C30.9905 26.4067 30.8769 26.5944 30.7053 26.7169C30.5858 26.8017 30.4584 26.8769 30.3319 26.9473C30.0183 27.126 29.8961 27.2098 29.8519 27.3741C29.8231 27.5913 29.8428 27.8123 29.9095 28.0211C29.9404 28.1614 29.9703 28.3011 29.989 28.4409C30.043 28.926 29.9818 29.4171 29.8103 29.8741C29.5345 30.8879 28.5128 31.5078 27.4862 31.2844C25.9632 30.9172 24.461 30.4679 22.9864 29.9387C21.7873 30.647 21.0294 32.7897 20.832 33.5935C20.7736 33.8321 20.5597 33.9999 20.3141 34L6.92565 33.9632C6.75677 33.9627 6.59812 33.8822 6.49792 33.7463C6.39773 33.6103 6.36783 33.435 6.41731 33.2735C6.54955 32.9095 6.73254 32.566 6.96085 32.2531C7.08692 32.0721 7.20096 31.8831 7.30223 31.6872C7.54269 31.1952 7.74423 30.6851 7.90497 30.1616C8.20943 29.1313 8.41974 28.0754 8.53333 27.0071C8.72235 25.412 8.48147 23.7955 7.83563 22.3249C7.44083 21.5105 6.955 20.7436 6.38744 20.0387C6.0674 19.605 5.73295 19.157 5.43318 18.6838C4.59143 17.3774 4.13821 15.8587 4.12634 14.3046ZM7.24356 19.4077C7.85981 20.1771 8.3863 21.0142 8.81283 21.9029C9.53461 23.548 9.80348 25.356 9.5916 27.1399C9.47216 28.2715 9.24969 29.3899 8.92698 30.4811C8.75018 31.0561 8.52904 31.6164 8.26555 32.1571C8.14422 32.3957 8.00682 32.6257 7.8543 32.8457L7.8159 32.9039L19.9108 32.938C20.2661 31.6723 20.9097 30.506 21.7911 29.5306C21.6551 29.4831 21.5244 29.4389 21.4065 29.3962C21.0022 29.2548 20.6965 29.1476 20.544 29.0996C18.2573 28.3817 17.1137 27.3426 17.1446 26.0107C17.1619 25.7206 17.4003 25.4932 17.6908 25.4895C17.8323 25.4929 17.9666 25.5523 18.0643 25.6548C18.1619 25.7572 18.2148 25.8943 18.2114 26.0357C18.1986 26.5852 18.6483 27.3863 20.8646 28.0819C21.0246 28.132 21.3398 28.2419 21.7596 28.3897C22.1399 28.523 22.6067 28.6862 23.1171 28.8607C24.6197 29.4041 26.1504 29.866 27.7028 30.2443C28.2026 30.3406 28.689 30.0243 28.8037 29.5285C28.9189 29.229 28.9629 28.9069 28.9323 28.5876C28.9179 28.4771 28.8928 28.3667 28.8683 28.2558C28.7588 27.8856 28.7416 27.4943 28.8181 27.1159C28.9713 26.6261 29.3305 26.2276 29.8017 26.0245L29.9159 25.9589C29.8588 25.8425 29.7903 25.7319 29.7116 25.6288C29.6229 25.5154 29.5837 25.3711 29.603 25.2284C29.6223 25.0858 29.6984 24.957 29.814 24.8713C29.942 24.7764 30.2471 24.5481 30.4658 24.3726C30.4386 24.323 30.4082 24.2659 30.3799 24.2184C30.2978 24.0739 30.2045 23.9069 30.1132 23.7165C29.9426 23.3435 29.8925 22.9266 29.9698 22.5238C30.094 21.8693 30.7165 21.5504 31.1758 21.3178C31.3306 21.2444 31.4791 21.1582 31.6196 21.0602C31.7301 20.9832 31.835 20.8984 31.9332 20.8063C31.9332 20.7262 31.8479 20.531 31.4377 20.0302C30.4846 18.8013 29.6675 17.4729 29.0006 16.068C28.8721 15.8481 28.8003 15.5998 28.7915 15.3453C28.8458 14.8083 29.1311 14.3216 29.5729 14.0118C29.7863 13.8144 29.9922 13.6277 30.0151 13.4634C30.013 13.3344 29.9839 13.2072 29.9298 13.09C29.8423 12.8585 29.7404 12.6313 29.6385 12.4041C29.4211 11.9553 29.2476 11.4866 29.1206 11.0044L29.0774 10.8183C28.9635 10.2707 28.8145 9.73105 28.6314 9.20259C28.2133 8.04086 27.5623 6.97682 26.7181 6.07578C25.6849 4.98763 24.121 4.24087 21.9383 3.80187C20.29 3.44115 18.6176 3.2012 16.9344 3.08391C13.9164 2.92389 11.3257 3.83815 8.53279 6.02937C7.17568 7.02993 6.18484 8.44861 5.71268 10.0672C5.33846 11.4424 5.1635 12.8642 5.19315 14.2891C5.2025 15.648 5.59821 16.9761 6.3341 18.1184C6.6136 18.5569 6.93471 18.9895 7.24515 19.4077H7.24356Z" fill="#5F5F5F"/>
<path d="M22.2621 11.0685H21.7287C21.4341 11.0685 21.1953 10.8297 21.1953 10.5351C21.1953 10.2405 21.4341 10.0017 21.7287 10.0017H22.2621C23.1458 10.0017 23.8623 10.7181 23.8623 11.6019V12.1353C23.8623 13.0191 23.1458 13.7355 22.2621 13.7355H21.7287C21.4341 13.7355 21.1953 13.4967 21.1953 13.2021C21.1953 12.9075 21.4341 12.6687 21.7287 12.6687H22.2621C22.5567 12.6687 22.7955 12.4299 22.7955 12.1353V11.6019C22.7955 11.3073 22.5567 11.0685 22.2621 11.0685Z" fill="#5F5F5F"/>
<path d="M18.5282 9.46826C18.8228 9.46826 19.0617 9.70707 19.0617 10.0017V11.0685C19.0617 11.3631 19.3005 11.6019 19.5951 11.6019H20.1285C20.4231 11.6019 20.6619 11.8407 20.6619 12.1353C20.6619 12.4299 20.4231 12.6687 20.1285 12.6687H19.5951C18.7113 12.6687 17.9948 11.9522 17.9948 11.0685V10.0017C17.9948 9.70707 18.2337 9.46826 18.5282 9.46826Z" fill="#5F5F5F"/>
<path d="M16.3946 9.46833V8.93493C16.3946 8.05116 17.1111 7.33472 17.9948 7.33472H19.0617C19.9454 7.33472 20.6619 8.05116 20.6619 8.93493V9.46833C20.6619 9.76292 20.4231 10.0017 20.1285 10.0017C19.8339 10.0017 19.5951 9.76292 19.5951 9.46833V8.93493C19.5951 8.64034 19.3562 8.40152 19.0617 8.40152H17.9948C17.7003 8.40152 17.4614 8.64034 17.4614 8.93493V9.46833C17.4614 9.76292 17.2226 10.0017 16.928 10.0017C16.6334 10.0017 16.3946 9.76292 16.3946 9.46833Z" fill="#5F5F5F"/>
<path d="M14.7944 13.202H15.3278C15.6224 13.202 15.8612 12.9632 15.8612 12.6686V12.1352C15.8612 11.8406 16.1 11.6018 16.3946 11.6018C16.6892 11.6018 16.928 11.8406 16.928 12.1352V12.6686C16.928 13.5524 16.2116 14.2688 15.3278 14.2688H14.7944C14.4998 14.2688 14.261 14.03 14.261 13.7354C14.261 13.4408 14.4998 13.202 14.7944 13.202Z" fill="#5F5F5F"/>
<path d="M12.1274 11.6018C12.1274 11.3072 12.3662 11.0684 12.6608 11.0684H13.1942C13.4888 11.0684 13.7276 10.8296 13.7276 10.535C13.7276 10.2404 13.4888 10.0016 13.1942 10.0016H12.6608C12.3662 10.0016 12.1274 9.76281 12.1274 9.46822C12.1274 9.17363 12.3662 8.93481 12.6608 8.93481H13.1942C14.078 8.93481 14.7944 9.65125 14.7944 10.535C14.7944 11.4188 14.078 12.1352 13.1942 12.1352H12.6608C12.3662 12.1352 12.1274 11.8964 12.1274 11.6018Z" fill="#5F5F5F"/>
<path d="M10.5272 11.6018C10.8218 11.6018 11.0606 11.8406 11.0606 12.1352V13.202C11.0606 13.4966 11.2994 13.7354 11.594 13.7354H12.1274C12.422 13.7354 12.6608 13.9742 12.6608 14.2688C12.6608 14.5634 12.422 14.8022 12.1274 14.8022H11.594C10.7102 14.8022 9.99379 14.0858 9.99379 13.202V12.1352C9.99379 11.8406 10.2326 11.6018 10.5272 11.6018Z" fill="#5F5F5F"/>
<path d="M6.28129 13.2021C6.28129 13.1936 6.28555 13.1867 6.28609 13.1781C6.33392 12.225 6.48559 11.2799 6.73841 10.3596C7.15071 8.95976 8.01148 7.7341 9.18834 6.87117C11.6009 4.97866 13.7884 4.13428 16.2831 4.13428C16.4794 4.13428 16.6779 4.13961 16.8811 4.14921C17.063 4.15881 17.2449 4.17962 17.4268 4.19455C17.439 4.19455 17.4492 4.18762 17.4614 4.18762C17.4894 4.19071 17.5171 4.19624 17.5441 4.20415C18.95 4.33976 20.3471 4.55471 21.7287 4.84797C22.3346 4.96731 22.9308 5.13152 23.5124 5.33924C23.5246 5.34404 23.5369 5.3467 23.5486 5.35204C24.4479 5.64785 25.267 6.14665 25.9426 6.80983C26.5965 7.51215 27.1174 8.32746 27.4798 9.21602C27.4962 9.24611 27.5096 9.27773 27.5198 9.31043C27.5556 9.39791 27.5966 9.48058 27.6297 9.56966C27.7935 10.014 28.0511 11.1203 28.0836 11.2595C28.2036 11.8564 28.5013 13.902 27.291 15.1853C26.5229 15.9993 25.3483 16.3002 23.8057 16.0815L23.0878 15.979C19.6655 15.4867 17.9479 15.2397 16.4698 16.6853C16.1855 16.9632 15.8943 17.2469 15.5913 17.5227C15.9268 18.5778 16.3621 20.8298 14.5779 22.1633C12.6608 23.6035 12.6608 23.9934 12.6608 24.937C12.6618 25.1224 12.5665 25.295 12.4091 25.3929C12.2517 25.4908 12.0548 25.5 11.889 25.4171C11.7492 25.3445 10.5272 24.6639 10.5272 22.27C10.5272 20.9605 9.55105 19.8286 8.58719 18.892L8.57119 18.8776C8.04852 18.5188 7.59646 18.0667 7.23768 17.5441C6.85071 16.934 6.57393 16.2608 6.41997 15.555C6.38844 15.4862 6.37207 15.4114 6.37196 15.3358C6.30497 14.9859 6.2675 14.631 6.25995 14.2748C6.25462 13.9169 6.26262 13.5622 6.28182 13.2117C6.28139 13.2086 6.28121 13.2054 6.28129 13.2021ZM11.594 22.27C11.5849 22.7136 11.6484 23.1558 11.7817 23.579C12.0308 22.9554 12.608 22.3095 13.941 21.3093C15.0008 20.5156 14.9262 19.196 14.6973 18.2689C13.698 19.0711 12.4583 19.5146 11.1769 19.5283C10.9691 19.5268 10.7615 19.5147 10.5549 19.492C11.1958 20.2794 11.5608 21.2553 11.594 22.27ZM8.13753 16.9754C8.51084 17.535 9.03884 17.9738 9.6572 18.2385C10.6362 18.5537 11.6917 18.538 12.6608 18.1937V17.4694C12.6608 17.1748 12.422 16.936 12.1274 16.936H10.5272C10.2326 16.936 9.99378 16.6972 9.99378 16.4026C9.99378 16.108 10.2326 15.8692 10.5272 15.8692H12.1274C13.0112 15.8692 13.7276 16.5856 13.7276 17.4694V17.6353C14.444 17.1263 15.1127 16.5532 15.7252 15.923C16.3445 15.2953 17.1331 14.8614 17.9948 14.6743V14.269C17.9948 13.9744 18.2336 13.7355 18.5282 13.7355C18.8228 13.7355 19.0616 13.9744 19.0616 14.269V14.5442C20.4632 14.547 21.8617 14.6739 23.2409 14.9234L23.9567 15.0253C24.2785 15.0727 24.6041 15.0895 24.9291 15.0755V14.8024C24.9291 14.5078 25.1679 14.269 25.4625 14.269C25.7571 14.269 25.9959 14.5078 25.9959 14.8024V14.828C26.1907 14.7359 26.3672 14.6094 26.517 14.4546C26.8227 14.1009 27.0184 13.6656 27.0798 13.2021H26.5293C25.6455 13.2021 24.9291 12.4857 24.9291 11.6019C24.9291 11.3073 25.1679 11.0685 25.4625 11.0685C25.7571 11.0685 25.9959 11.3073 25.9959 11.6019C25.9959 11.8965 26.2347 12.1353 26.5293 12.1353H27.1272C27.1127 11.917 27.0844 11.6998 27.0424 11.4851C26.9726 11.1821 26.7757 10.365 26.6514 10.0017H24.9291C24.6345 10.0017 24.3957 9.76291 24.3957 9.46832C24.3957 9.17373 24.6345 8.93491 24.9291 8.93491H26.1655C25.895 8.42997 25.5603 7.96219 25.1696 7.54326C24.7919 7.1651 24.349 6.85827 23.8623 6.63754V7.3347C23.8623 8.21847 23.1458 8.93491 22.2621 8.93491C21.9675 8.93491 21.7287 8.6961 21.7287 8.40151C21.7287 8.10692 21.9675 7.8681 22.2621 7.8681C22.5567 7.8681 22.7955 7.62929 22.7955 7.3347V6.21989C22.3749 6.08864 21.9475 5.98003 21.5153 5.89451C21.0608 5.80276 20.5957 5.71475 20.1284 5.63101V5.73449C20.1284 6.02908 19.8896 6.26789 19.595 6.26789C19.3005 6.26789 19.0616 6.02908 19.0616 5.73449V5.45339C18.7064 5.40004 18.3506 5.35097 17.9948 5.31203V5.73449C17.9948 6.02908 17.756 6.26789 17.4614 6.26789C17.1668 6.26789 16.928 6.02908 16.928 5.73449V5.22349C16.8944 5.22349 16.8603 5.21709 16.8272 5.21495C16.4976 5.20109 16.177 5.20109 15.8612 5.21442V7.3347C15.8612 7.62929 15.6224 7.8681 15.3278 7.8681H14.261C13.9664 7.8681 13.7276 7.62929 13.7276 7.3347C13.7276 7.04011 13.9664 6.8013 14.261 6.8013H14.7944V5.3307C13.8611 5.48887 12.9587 5.79346 12.1205 6.23322C12.1205 6.24549 12.1274 6.25562 12.1274 6.26789V7.8681C12.1274 8.1627 11.8886 8.40151 11.594 8.40151C11.2994 8.40151 11.0606 8.1627 11.0606 7.8681V6.8493C10.7107 7.076 10.3565 7.3235 9.99378 7.60247V8.93491C9.99378 9.2295 10.2326 9.46832 10.5272 9.46832C10.8218 9.46832 11.0606 9.70713 11.0606 10.0017C11.0606 10.2963 10.8218 10.5351 10.5272 10.5351C9.64341 10.5351 8.92697 9.81868 8.92697 8.93491V8.56953C8.38487 9.16446 7.98716 9.8763 7.76468 10.6498C7.58382 11.3107 7.46173 11.9863 7.39983 12.6687H8.39356C8.68816 12.6687 8.92697 12.9076 8.92697 13.2021C8.92697 13.4967 8.68816 13.7355 8.39356 13.7355H7.33796C7.33422 13.91 7.32569 14.0833 7.32836 14.2593C7.33102 14.445 7.35129 14.6237 7.37156 14.8024H8.39356C8.68816 14.8024 8.92697 15.0412 8.92697 15.3358C8.92697 15.6303 8.68816 15.8692 8.39356 15.8692H7.61266C7.74358 16.2572 7.91975 16.6286 8.13753 16.9754Z" fill="#5F5F5F"/>
</svg>
