<svg width="36" height="36" viewBox="0 0 36 36" fill="none" xmlns="http://www.w3.org/2000/svg">
<g clip-path="url(#clip0_102_11475)">
<path d="M21.3528 27.5073C23.0314 27.5073 24.7101 26.8683 25.9881 25.5904C28.544 23.0345 28.544 18.8756 25.9881 16.3197C24.7499 15.0815 23.1037 14.3997 21.3527 14.3997C19.6017 14.3997 17.9556 15.0815 16.7174 16.3198C15.4792 17.5579 14.7973 19.2041 14.7973 20.9551C14.7973 22.7061 15.4792 24.3523 16.7174 25.5905C17.9954 26.8683 19.6741 27.5073 21.3528 27.5073ZM25.2442 17.0634C27.39 19.2092 27.39 22.7007 25.2442 24.8465C24.1713 25.9194 22.7623 26.4559 21.3527 26.4558C19.9436 26.4557 18.534 25.9192 17.4612 24.8465C17.3389 24.7241 17.2236 24.5967 17.1144 24.4653C18.772 24.035 20.2921 23.1706 21.535 21.9277C23.072 20.3909 24.0309 18.4303 24.3043 16.3096C24.6401 16.5239 24.9557 16.775 25.2442 17.0634ZM17.4612 17.0634C18.2045 16.3202 19.1233 15.8173 20.1237 15.5901C20.0032 16.8124 19.4776 18.0019 18.5434 18.9362C17.7988 19.6807 16.8782 20.1846 15.8757 20.4111C15.999 19.1466 16.551 17.9737 17.4612 17.0634ZM15.8747 21.485C17.1598 21.2438 18.3425 20.6247 19.2872 19.68C20.4609 18.5063 21.0933 16.9947 21.1891 15.4555C21.2436 15.4539 21.2979 15.4515 21.3527 15.4515C22.0289 15.4515 22.6861 15.5741 23.3003 15.8061C23.1249 17.8379 22.2501 19.7249 20.7911 21.1839C19.5929 22.3821 18.1058 23.1853 16.4872 23.5318C16.1518 22.9005 15.9433 22.2077 15.8747 21.485Z" fill="#5F5F5F"/>
<path d="M28.2359 14.0718C26.9705 12.8064 25.4181 11.9324 23.7255 11.5104C23.4971 10.9227 23.2118 10.3565 22.8687 9.81948L24.5662 8.122L24.5202 8.42849C24.4388 8.97032 24.55 9.52972 24.8601 9.98141C25.1961 10.4707 25.7075 10.7904 26.2913 10.8781C26.3959 10.8938 26.5023 10.9017 26.6075 10.9017C27.6447 10.9017 28.5432 10.1272 28.6975 9.10039L29.6963 2.45221C29.7963 1.78691 29.5708 1.10846 29.0926 0.63505C29.0876 0.629707 29.0825 0.624433 29.0773 0.61923C28.5465 0.0885113 27.7779 -0.116801 27.0614 0.0646754C26.8943 0.107003 26.7273 0.150105 26.5578 0.181886L20.9034 1.24241C19.7569 1.45743 18.9991 2.56513 19.2142 3.71157C19.403 4.71845 20.2803 5.42551 21.2679 5.43711L19.8771 6.82789C18.321 5.83375 16.5239 5.31048 14.6519 5.31048C12.0519 5.31048 9.60737 6.32305 7.76876 8.16158C5.94655 9.9838 4.91745 12.4684 4.91766 15.0455C4.91787 17.6453 5.93037 20.0895 7.76876 21.9279C9.03355 23.1927 10.5857 24.0646 12.2775 24.4867C12.5064 25.0753 12.7923 25.6424 13.1359 26.1803L12.1943 27.1219L11.4476 26.3751C10.6227 25.5504 9.28069 25.5504 8.45593 26.3751C7.63116 27.1999 7.63116 28.5419 8.45593 29.3668L9.20265 30.1135L6.92734 32.3888C6.52775 32.7883 6.30774 33.3195 6.30774 33.8846C6.30774 34.4497 6.52782 34.9809 6.92734 35.3805C7.32685 35.78 7.85806 36.0001 8.42316 36.0001C8.98826 36.0001 9.51948 35.78 9.91906 35.3804L10.1472 35.1522C10.3525 34.9468 10.3525 34.6138 10.1471 34.4084C9.94149 34.2029 9.60849 34.2031 9.40318 34.4085L9.17516 34.6366C8.7601 35.0494 8.08433 35.0497 7.67117 34.6366C7.47029 34.4357 7.35969 34.1686 7.35969 33.8846C7.35969 33.6005 7.47029 33.3335 7.67117 33.1326L10.3184 30.4853C10.4171 30.3867 10.4725 30.2529 10.4725 30.1134C10.4725 29.9738 10.4171 29.84 10.3184 29.7414L9.19977 28.6227C8.78513 28.2081 8.78513 27.5334 9.19977 27.1187C9.6144 26.7043 10.289 26.7041 10.7037 27.1187L11.8224 28.2374C12.0278 28.4428 12.3609 28.4428 12.5663 28.2374L14.1856 26.618C14.3665 26.4371 14.3911 26.1522 14.2436 25.943C13.2145 24.4834 12.6705 22.7585 12.6705 20.9549C12.6705 18.6357 13.5736 16.4554 15.2135 14.8155C16.8534 13.1756 19.0336 12.2725 21.3527 12.2725C23.6719 12.2725 25.8522 13.1756 27.4921 14.8155C30.8772 18.2007 30.8772 23.7089 27.4921 27.0941C25.855 28.7312 23.6746 29.6328 21.3527 29.6328C19.5524 29.6328 17.8277 29.0897 16.3651 28.0623C16.156 27.9154 15.8715 27.94 15.6908 28.1207L14.0701 29.7414C13.9715 29.84 13.916 29.9738 13.916 30.1134C13.916 30.2529 13.9715 30.3867 14.0701 30.4853L15.1888 31.604C15.3897 31.8049 15.5003 32.0719 15.5003 32.356C15.5003 32.9384 15.0157 33.4194 14.4368 33.4194C14.1527 33.4194 13.8857 33.3088 13.6848 33.108L12.5661 31.9893C12.3607 31.7839 12.0277 31.7839 11.8223 31.9893L11.1502 32.6613C10.9448 32.8667 10.9448 33.1998 11.1502 33.4052C11.3556 33.6106 11.6887 33.6106 11.8941 33.4052L12.1942 33.105L12.941 33.8517C13.3405 34.2513 13.8717 34.4713 14.4368 34.4713C15.0018 34.4713 15.533 34.2512 15.9326 33.8517C16.3322 33.4522 16.5522 32.921 16.5522 32.3559C16.5522 31.7908 16.3321 31.2596 15.9326 30.8601L15.1858 30.1134L16.1293 29.17C17.6876 30.1625 19.484 30.6849 21.3526 30.6849C23.9556 30.6849 26.4001 29.6738 28.2358 27.838C32.0312 24.0427 32.0312 17.8672 28.2359 14.0718ZM21.3527 11.2207C20.9088 11.2207 20.4697 11.2509 20.0372 11.309C19.8181 10.9925 19.5689 10.6909 19.2873 10.4093C18.0492 9.17113 16.4029 8.48924 14.6519 8.48924C14.1805 8.48924 13.7102 8.5393 13.2541 8.63788C12.9701 8.69926 12.7897 8.97925 12.8512 9.26317C12.9125 9.54702 13.1924 9.7273 13.4765 9.66606C13.8597 9.58316 14.2552 9.54118 14.652 9.54118C16.122 9.54118 17.5041 10.1137 18.5435 11.1531C18.6661 11.2757 18.7812 11.403 18.8895 11.534C17.2322 11.9644 15.7125 12.8291 14.4697 14.0718C12.9328 15.6086 11.9736 17.569 11.7001 19.6897C11.3643 19.4757 11.0489 19.2244 10.7605 18.9361C9.72099 17.8966 9.14858 16.5146 9.14858 15.0445C9.14858 13.5746 9.72106 12.1926 10.7606 11.153C10.988 10.9256 11.2353 10.7174 11.4958 10.5342C11.7334 10.3671 11.7906 10.039 11.6235 9.80141C11.4564 9.56382 11.1284 9.50666 10.8907 9.67372C10.5808 9.89162 10.2867 10.1391 10.0167 10.4092C8.77859 11.6474 8.0967 13.2936 8.0967 15.0445C8.0967 16.7955 8.77859 18.4417 10.0167 19.6798C10.4958 20.1589 11.0361 20.5543 11.6198 20.8594C11.6195 20.8912 11.6186 20.9229 11.6186 20.9548C11.6186 21.7481 11.7136 22.5277 11.8975 23.2814C10.6362 22.861 9.48017 22.1512 8.51267 21.1837C6.90146 19.5725 6.00146 17.4396 5.97052 15.1658C5.93909 12.8566 6.83459 10.6154 8.45171 8.96666C10.0983 7.28788 12.304 6.36214 14.652 6.36214C16.4557 6.36214 18.1806 6.90608 19.6403 7.93525C19.8494 8.08269 20.1344 8.05815 20.3153 7.87724L23.1488 5.04371C23.2966 4.89592 23.3574 4.67514 23.2858 4.47875C23.1961 4.23287 22.9445 4.09344 22.6941 4.14062L21.4895 4.36653C20.9129 4.47446 20.3562 4.09358 20.2482 3.51737C20.14 2.94102 20.5211 2.38421 21.0974 2.27607C21.0974 2.27607 27.0493 1.15754 27.0555 1.15642C27.1536 1.138 27.2507 1.11402 27.3493 1.09827C27.7435 1.03534 28.2169 1.16703 28.4605 1.50299C28.6237 1.72806 28.6974 2.02035 28.6561 2.29562C28.656 2.29597 27.6574 8.94346 27.6572 8.94388C27.5714 9.51517 27.0189 9.92291 26.4477 9.83755C26.1572 9.79389 25.9024 9.63611 25.7335 9.39444C25.5721 9.16361 25.5169 8.8749 25.5587 8.59632C25.6262 8.14738 25.7789 7.13094 25.841 6.71785C25.8715 6.51465 25.7927 6.30477 25.6234 6.18812C25.4107 6.04159 25.1293 6.07098 24.9518 6.24852L21.8191 9.38115C21.6393 9.56094 21.612 9.84486 21.7586 10.0526C22.0358 10.4453 22.2763 10.8578 22.4816 11.2854C22.1094 11.243 21.7328 11.2207 21.3527 11.2207Z" fill="#5F5F5F"/>
</g>
<defs>
<clipPath id="clip0_102_11475">
<rect width="36" height="36" fill="white"/>
</clipPath>
</defs>
</svg>
