<svg width="36" height="36" viewBox="0 0 36 36" fill="none" xmlns="http://www.w3.org/2000/svg">
<g clip-path="url(#clip0_102_13257)">
<path d="M27.8844 9.24505C25.9074 8.02315 23.6728 7.70135 22.1651 8.41562C21.8477 8.50977 21.6386 8.32643 21.5617 8.24058C21.4818 8.15133 21.3128 7.9089 21.4701 7.5854L22.0923 6.30562C22.3116 5.85455 22.1238 5.31108 21.6727 5.09172C21.2214 4.87236 20.6781 5.06023 20.4587 5.51137L19.8366 6.79103C19.4064 7.67549 19.5527 8.72023 20.2089 9.45267C20.8652 10.1851 21.8879 10.4447 22.8139 10.1137C22.8482 10.1014 22.8818 10.0871 22.9145 10.0708C23.6737 9.69134 25.2539 9.75449 26.9294 10.7901C27.9266 11.4065 30.2461 13.2325 30.2461 16.8675C30.2461 20.4123 29.0933 23.0359 26.267 25.9229C23.3424 28.9103 19.6007 30.1952 15.1458 29.7419C11.748 29.3962 9.18783 28.119 9.16331 28.1067C8.88164 27.9636 8.54609 27.977 8.2769 28.1422C8.00783 28.3073 7.84375 28.6005 7.84375 28.9163V34.1836H4.81641V28.3108C4.81641 26.8085 6.03867 25.5862 7.54102 25.5862H9.09132C11.0866 25.5862 12.9174 24.5813 13.9885 22.8981L14.0338 22.827C15.0526 21.2259 15.2251 19.2267 14.4949 17.4789C12.6929 13.1652 12.8498 10.4332 13.2988 8.9009C13.7665 7.30495 14.6162 6.67932 14.6522 6.65346L14.642 6.66055C14.8827 6.49719 15.041 6.22134 15.041 5.90849C15.041 5.40692 14.6344 5.00029 14.1328 5.00029C13.944 5.00029 13.7688 5.05793 13.6236 5.1565C13.4232 5.29219 8.80251 8.56444 12.8189 18.1791C13.3201 19.3788 13.2014 20.7518 12.5015 21.8516L12.4562 21.9227C11.7202 23.0793 10.4623 23.7698 9.09138 23.7698H7.54102C5.0371 23.7698 3 25.8069 3 28.3108V35.0918C3 35.5934 3.40663 36 3.9082 36H8.75195C9.25352 36 9.66016 35.5934 9.66016 35.0918V30.2903C10.8288 30.7326 12.688 31.31 14.8982 31.5423C19.8859 32.0664 24.2665 30.5628 27.565 27.1934C30.7174 23.9733 32.0625 20.8852 32.0625 16.8675C32.0625 13.6644 30.5397 10.8862 27.8844 9.24505Z" fill="#5F5F5F"/>
<line x1="15.1952" y1="-2.24406" x2="20.6863" y2="22.1454" stroke="#5F5F5F" stroke-width="2" stroke-linecap="round"/>
</g>
<defs>
<clipPath id="clip0_102_13257">
<rect width="36" height="36" fill="white"/>
</clipPath>
</defs>
</svg>
