<svg width="36" height="36" viewBox="0 0 36 36" fill="none" xmlns="http://www.w3.org/2000/svg">
<path d="M27.8844 7.24499C25.9074 6.02309 23.6728 5.70129 22.1651 6.41556C21.8477 6.50971 21.6386 6.32637 21.5617 6.24052C21.4818 6.15127 21.3128 5.90884 21.4701 5.58534L22.0923 4.30556C22.3116 3.85449 22.1238 3.31102 21.6727 3.09166C21.2214 2.87229 20.6781 3.06017 20.4587 3.51131L19.8366 4.79096C19.4064 5.67543 19.5527 6.72017 20.2089 7.4526C20.8652 8.18504 21.8879 8.4446 22.8139 8.11366C22.8482 8.10136 22.8818 8.08708 22.9145 8.07079C23.6737 7.69128 25.2539 7.75443 26.9294 8.79002C27.9266 9.40645 30.2461 11.2325 30.2461 14.8674C30.2461 18.4123 29.0933 21.0358 26.267 23.9228C23.3424 26.9102 19.6007 28.1952 15.1458 27.7419C11.748 27.3961 9.18783 26.119 9.16331 26.1066C8.88164 25.9635 8.54609 25.977 8.2769 26.1422C8.00783 26.3073 7.84375 26.6004 7.84375 26.9162V32.1836H4.81641V26.3108C4.81641 24.8084 6.03867 23.5862 7.54102 23.5862H9.09132C11.0866 23.5862 12.9174 22.5812 13.9885 20.898L14.0338 20.8269C15.0526 19.2259 15.2251 17.2266 14.4949 15.4789C12.6929 11.1652 12.8498 8.4331 13.2988 6.90084C13.7665 5.30489 14.6162 4.67926 14.6522 4.6534L14.642 4.66049C14.8827 4.49713 15.041 4.22128 15.041 3.90843C15.041 3.40686 14.6344 3.00023 14.1328 3.00023C13.944 3.00023 13.7688 3.05787 13.6236 3.15644C13.4232 3.29213 8.80251 6.56438 12.8189 16.179C13.3201 17.3788 13.2014 18.7517 12.5015 19.8516L12.4562 19.9227C11.7202 21.0793 10.4623 21.7698 9.09138 21.7698H7.54102C5.0371 21.7698 3 23.8069 3 26.3108V33.0918C3 33.5934 3.40663 34 3.9082 34H8.75195C9.25352 34 9.66016 33.5934 9.66016 33.0918V28.2902C10.8288 28.7326 12.688 29.31 14.8982 29.5423C19.8859 30.0664 24.2665 28.5628 27.565 25.1934C30.7174 21.9733 32.0625 18.8851 32.0625 14.8674C32.0625 11.6644 30.5397 8.88611 27.8844 7.24499Z" fill="#5F5F5F"/>
<path d="M18.0955 13.3674C19.6149 14.2114 20.5586 15.8154 20.5586 17.5533V17.5592L18.2893 20.9632C18.1035 21.2419 18.0862 21.6002 18.2442 21.8955C18.4022 22.1908 18.71 22.3752 19.045 22.3752H23.8887C24.2237 22.3752 24.5314 22.1908 24.6895 21.8955C24.8475 21.6002 24.8302 21.2419 24.6444 20.9632L22.375 17.5592V17.5533C22.375 15.1561 21.0732 12.9438 18.9778 11.7796C17.712 11.0764 16.9258 9.74014 16.9258 8.29222C16.9258 7.56935 17.1224 6.85956 17.4943 6.23974L18.6128 4.37563C18.8709 3.9455 18.7314 3.38768 18.3013 3.12957C17.871 2.87146 17.3133 3.01102 17.0552 3.44109L15.9367 5.3052C15.3955 6.20729 15.1094 7.24022 15.1094 8.29222C15.1094 10.3994 16.2536 12.3441 18.0955 13.3674ZM20.7419 20.5588L21.4668 19.4714L22.1917 20.5587H20.7419V20.5588Z" fill="#5F5F5F"/>
</svg>
