<svg width="36" height="36" viewBox="0 0 36 36" fill="none" xmlns="http://www.w3.org/2000/svg">
<path d="M34.0015 2.53413C34.0017 2.32685 33.8819 2.13831 33.6944 2.0503C33.5067 1.96254 33.2854 1.99118 33.1262 2.12399C32.988 2.23961 29.735 5.0327 29.735 12.1336C29.7621 12.5274 29.9163 12.9016 30.1743 13.2003L30.0975 13.2263C29.8801 13.2997 29.7342 13.5042 29.735 13.7336V31.866C29.735 33.0441 30.6899 33.9992 31.8682 33.9992C33.0463 33.9992 34.0015 33.0441 34.0015 31.866V12.667C34.0015 12.5404 33.9564 12.4177 33.8744 12.3214C33.9543 12.0891 33.997 11.8459 34.0015 11.6003V2.53413ZM32.9349 3.99812V11.6003C32.9335 11.7746 32.8974 11.9467 32.8281 12.1063L32.7213 12.3529L31.8453 12.6446L31.243 12.8446C30.8245 12.3347 30.8016 12.1336 30.8016 12.1336C30.8016 7.89323 32.0464 5.30717 32.9349 3.99812ZM31.8682 32.9326C31.2792 32.9326 30.8016 32.455 30.8016 31.866V14.1164L31.2089 13.9789C31.2217 13.9757 31.2347 13.9718 31.2469 13.9677L32.9349 13.4065V31.866C32.9349 32.455 32.4573 32.9326 31.8682 32.9326Z" fill="#5F5F5F"/>
<path d="M14.4082 7.15577C15.3615 8.3867 17.063 8.75178 18.4374 8.02057C19.8118 7.28936 20.4599 5.67459 19.9719 4.19602C19.4842 2.71745 18.0022 1.80551 16.4625 2.03597C14.9227 2.26643 13.773 3.57261 13.7394 5.12905L12.8387 9.46711H12.1359C11.8414 9.46711 11.6026 9.7059 11.6026 10.0004C11.6026 10.2949 11.8414 10.5337 12.1359 10.5337H12.6158L10.8026 19.2799L9.31622 10.5337H10.0026C10.2972 10.5337 10.5359 10.2949 10.5359 10.0004C10.5359 9.7059 10.2972 9.46711 10.0026 9.46711H9.13498L8.39934 5.13504C8.36731 3.58563 7.2296 2.28179 5.69869 2.0404C4.16778 1.799 2.684 2.68932 2.17673 4.15383C1.66947 5.61834 2.28454 7.23571 3.63681 7.99297C4.98883 8.75022 6.68953 8.42966 7.67307 7.23207L10.2063 22.1501L7.88061 33.3591C7.82072 33.6477 8.00613 33.9297 8.29439 33.9896C8.33007 33.9964 8.36627 33.9995 8.40272 33.9992C8.65558 33.9987 8.87353 33.8206 8.92431 33.5724L10.6958 25.0395L12.1421 33.5571C12.1866 33.813 12.4093 34 12.6692 33.9992C12.6991 33.999 12.7291 33.9966 12.7588 33.9917C13.0491 33.9425 13.2447 33.6672 13.1955 33.3769L11.2922 22.1693L14.4082 7.15577ZM16.9356 3.06743C18.1137 3.06743 19.0689 4.02259 19.0689 5.20066C19.0689 6.37872 18.1137 7.33388 16.9356 7.33388C15.7573 7.33388 14.8024 6.37872 14.8024 5.20066C14.8024 4.02259 15.7573 3.06743 16.9356 3.06743ZM5.20288 7.33388C4.02456 7.33388 3.06966 6.37872 3.06966 5.20066C3.06966 4.02259 4.02456 3.06743 5.20288 3.06743C6.38095 3.06743 7.33611 4.02259 7.33611 5.20066C7.33611 6.37872 6.38095 7.33388 5.20288 7.33388Z" fill="#5F5F5F"/>
<path d="M25.4685 19.5962V15.8669C25.4685 15.8573 25.4635 15.8492 25.463 15.8396C25.4625 15.8302 25.4669 15.8227 25.463 15.8135L24.3964 5.1474C24.3691 4.87476 24.1397 4.66748 23.8657 4.66748C23.592 4.66748 23.3626 4.87476 23.3353 5.1474L22.2687 15.8135C22.2687 15.8227 22.2718 15.8312 22.2687 15.8396C22.2653 15.8482 22.2687 15.8573 22.2687 15.8669V19.5615C22.2687 19.5738 22.2616 19.5839 22.2611 19.5962C22.1752 20.863 21.6564 22.0619 20.7919 22.9918C19.2037 24.8995 18.697 27.3729 19.3258 30.1456C19.6146 31.4117 20.0945 32.6265 20.7492 33.7481C20.9049 33.9986 21.2341 34.0751 21.4843 33.9197C21.7346 33.7639 21.8114 33.4348 21.6559 33.1843C21.6215 33.1312 18.2918 27.6624 21.6132 23.6746C22.3715 22.8116 22.9131 21.7804 23.1939 20.6667H24.5357C24.8172 21.7804 25.3596 22.8116 26.1179 23.6746C29.4399 27.6632 26.1179 33.1296 26.0817 33.1843C25.926 33.4348 26.0028 33.7639 26.2531 33.9197C26.5036 34.0751 26.8327 33.9986 26.9882 33.7481C27.6421 32.6262 28.1207 31.4112 28.4079 30.1451C29.0352 27.3718 28.5264 24.8995 26.9382 22.9918C26.0739 22.0617 25.5552 20.863 25.4685 19.5962ZM23.8686 10.5604L24.3485 15.3336H23.3939L23.8686 10.5604ZM23.3353 16.4002H24.4019V19.6001H23.3353V16.4002Z" fill="#5F5F5F"/>
<path d="M16.2461 10.69C16.0367 10.4879 15.7042 10.4908 15.4984 10.6965C15.2927 10.9022 15.2899 11.2347 15.4919 11.4441L16.7148 12.667L15.4919 13.8898C15.3919 13.9898 15.3357 14.1255 15.3357 14.2669V16.9334H14.8024C14.5079 16.9334 14.2691 17.1722 14.2691 17.4667V29.1995C14.2691 29.494 14.5079 29.7328 14.8024 29.7328H15.3357V32.3993C15.3357 32.5407 15.3919 32.6764 15.4919 32.7764L16.5585 33.843C16.7676 34.0451 17.1004 34.0422 17.3062 33.8365C17.5119 33.6308 17.5147 33.298 17.3127 33.0889L16.4023 32.1785V29.7328H16.9356C17.2301 29.7328 17.4689 29.494 17.4689 29.1995V17.4667C17.4689 17.1722 17.2301 16.9334 16.9356 16.9334H16.4023V14.4877L17.846 13.044C18.054 12.8357 18.054 12.4982 17.846 12.2899L16.2461 10.69ZM16.4023 28.6662H15.3357V18H16.4023V28.6662Z" fill="#5F5F5F"/>
</svg>
