<svg width="36" height="36" viewBox="0 0 36 36" fill="none" xmlns="http://www.w3.org/2000/svg">
<g clip-path="url(#clip0_102_11485)">
<path d="M35.9564 20.0682C35.6904 18.2252 34.2425 16.7773 32.3995 16.5113V15.4205C32.3995 12.411 30.1118 9.96063 27.2996 9.96063C24.5684 9.96063 22.2819 12.3366 22.1997 15.2573H22.2345L22.1997 15.2633V27.0874C22.1997 30.8673 19.3737 33.9369 15.8998 33.9369C12.4258 33.9369 9.59986 30.8631 9.59986 27.0874V26.0632C10.4698 26.0632 11.3998 25.4326 11.3998 23.6632V22.1542C15.2506 21.1697 17.9997 17.8631 17.9997 14.1144V12.8634H16.7998L16.7746 5.0545C16.7659 3.60904 15.7286 2.37486 14.3062 2.11754C13.9994 1.17758 12.9886 0.664286 12.0486 0.971182C11.1086 1.278 10.5953 2.28876 10.9022 3.2288C11.209 4.16876 12.2198 4.68205 13.1598 4.37516C13.6631 4.21083 14.0679 3.83217 14.2654 3.34092C15.0341 3.55962 15.5665 4.25891 15.5728 5.0581L15.5998 12.8634H14.3998V14.1318C14.3519 16.2188 12.9528 18.0324 10.9462 18.6083C9.87263 18.9489 8.7199 18.9489 7.64629 18.6083C5.64209 18.0304 4.24606 16.2171 4.19994 14.1318V12.8634H2.39996V5.0635C2.40341 4.25253 2.94881 3.54394 3.73195 3.33312C4.09711 4.26273 5.14672 4.72023 6.07634 4.35506C7.00595 3.98989 7.46344 2.9402 7.09827 2.01067C6.7331 1.08113 5.68342 0.623562 4.75388 0.988732C4.25019 1.18665 3.86154 1.59967 3.69475 2.11454C2.25679 2.36024 1.20396 3.60469 1.19998 5.0635V12.8634H0V14.1114C0 17.8643 2.75096 21.1721 6.5999 22.1542V23.6632C6.5999 25.4326 7.52989 26.0632 8.39988 26.0632V27.0874C8.39988 31.5273 11.764 35.1369 15.8998 35.1369C20.0355 35.1369 23.3997 31.5231 23.3997 27.0874V15.2921C23.4597 13.0152 25.2104 11.1624 27.2996 11.1624C29.45 11.1624 31.1995 13.0728 31.1995 15.4223V16.5113C28.9038 16.8427 27.3113 18.9724 27.6426 21.2682C27.974 23.564 30.1037 25.1565 32.3995 24.8251C34.6953 24.4938 36.2878 22.3639 35.9564 20.0682ZM12.5998 3.26352C12.2685 3.26352 11.9998 2.99488 11.9998 2.66353C11.9998 2.33219 12.2685 2.06354 12.5998 2.06354C12.9312 2.06354 13.1998 2.33219 13.1998 2.66353C13.1998 2.99488 12.9312 3.26352 12.5998 3.26352ZM5.39992 2.06354C5.73127 2.06354 5.99991 2.33219 5.99991 2.66353C5.99991 2.99488 5.73127 3.26352 5.39992 3.26352C5.06858 3.26352 4.79993 2.99488 4.79993 2.66353C4.79993 2.33219 5.06858 2.06354 5.39992 2.06354ZM1.19998 14.1114V14.0634H2.99996V14.1318C3.04496 16.7396 4.7799 19.0154 7.28269 19.7495C8.5942 20.1647 10.0019 20.1647 11.3134 19.7495C13.8174 19.0164 15.5539 16.7404 15.5998 14.1318V14.0634H16.7998V14.1114C16.7998 17.4491 14.227 20.3861 10.6798 21.0965C9.8469 21.2633 8.99372 21.3051 8.14848 21.2207C7.87023 21.1937 7.59364 21.1518 7.31989 21.0953C3.77274 20.3861 1.19998 17.4491 1.19998 14.1114ZM8.39988 24.8632C7.85988 24.8632 7.79989 24.0232 7.79989 23.6632V22.39C7.84789 22.396 7.89708 22.3984 7.94568 22.4032C8.00568 22.4098 8.06568 22.4146 8.12568 22.42C8.40948 22.4452 8.69567 22.462 8.98427 22.4626H9.01427C9.30226 22.4626 9.58786 22.4452 9.86986 22.42C9.92985 22.4146 9.99345 22.4098 10.0553 22.4032C10.1027 22.3978 10.1519 22.396 10.1993 22.39V23.6632C10.1993 24.0232 10.1393 24.8632 9.59926 24.8632H8.39988ZM31.7995 23.6632C30.1427 23.6632 28.7996 22.3201 28.7996 20.6633C28.7996 19.0065 30.1427 17.6633 31.7995 17.6633C33.4563 17.6633 34.7995 19.0065 34.7995 20.6633C34.7975 22.3193 33.4555 23.6613 31.7995 23.6632Z" fill="#5F5F5F"/>
<path d="M31.7995 18.8633C30.8054 18.8633 29.9996 19.6691 29.9996 20.6633C29.9996 21.6574 30.8054 22.4632 31.7995 22.4632C32.7936 22.4632 33.5995 21.6574 33.5995 20.6633C33.5995 19.6691 32.7936 18.8633 31.7995 18.8633ZM31.7995 21.2632C31.4682 21.2632 31.1995 20.9946 31.1995 20.6633C31.1995 20.3319 31.4682 20.0633 31.7995 20.0633C32.1309 20.0633 32.3995 20.3319 32.3995 20.6633C32.3995 20.9946 32.1309 21.2632 31.7995 21.2632Z" fill="#5F5F5F"/>
</g>
<defs>
<clipPath id="clip0_102_11485">
<rect width="36" height="36" fill="white"/>
</clipPath>
</defs>
</svg>
