<svg width="36" height="36" viewBox="0 0 36 36" fill="none" xmlns="http://www.w3.org/2000/svg">
<path d="M33.2141 23.9419C33.0388 24.0637 32.8536 24.1707 32.6605 24.2619C32.4301 24.3797 32.0435 24.5771 32.0163 24.7152C31.9827 24.8975 32.0047 25.0857 32.0792 25.2555C32.1587 25.4261 32.2419 25.5728 32.3139 25.6992C32.5091 26.0443 32.836 26.6224 32.3432 27.0251C32.228 27.1317 32.0291 27.2859 31.8477 27.4251C31.9812 27.6585 32.0416 27.9266 32.0211 28.1947C31.9928 28.4058 31.8783 28.5958 31.7048 28.7195C31.5864 28.8027 31.46 28.8752 31.3357 28.9461C31.02 29.1253 30.8968 29.2091 30.8557 29.3765C30.8261 29.5912 30.8443 29.8097 30.9091 30.0165C30.9405 30.1589 30.9709 30.3019 30.9891 30.4432C31.042 30.9293 30.982 31.421 30.8136 31.88C30.5737 32.7274 29.8072 33.3177 28.9267 33.3333C28.7797 33.3329 28.6331 33.3174 28.4893 33.2869C26.9657 32.9258 25.4643 32.4765 23.9928 31.9413C22.7912 32.6464 22.0323 34.7904 21.8344 35.5952C21.7753 35.8331 21.5617 36.0001 21.3165 36L7.92986 35.9627C7.76021 35.9623 7.60083 35.8813 7.5006 35.7444C7.40036 35.6076 7.37123 35.4312 7.42212 35.2693C7.55399 34.908 7.73584 34.5669 7.96239 34.256C8.09028 34.0716 8.20556 33.8788 8.30746 33.6789C8.54903 33.1902 8.7504 32.6825 8.90959 32.1611C9.21416 31.1308 9.42533 30.0751 9.54052 29.0069C9.67974 27.7716 9.56171 26.5208 9.19386 25.3333H7.86586C6.9822 25.3333 6.26586 24.617 6.26586 23.7333V16.8C6.26586 16.5054 6.50464 16.2667 6.79919 16.2667H8.95172C8.93919 16.1783 8.93278 16.0892 8.93252 16C8.93252 14.9691 9.76826 14.1333 10.7992 14.1333C11.8301 14.1333 12.6659 14.9691 12.6659 16C12.6656 16.0892 12.6592 16.1783 12.6467 16.2667H14.2659V14.648C13.9712 14.69 13.6707 14.6616 13.3891 14.5653C12.7802 14.358 12.3225 13.8496 12.18 13.2224C12.0404 12.6217 12.2065 11.9909 12.6238 11.5369C13.041 11.0828 13.6556 10.8641 14.2659 10.9525V8.8C14.2659 8.50545 14.5046 8.26667 14.7992 8.26667H21.7325C22.6162 8.26667 23.3325 8.98301 23.3325 9.86667V23.7333C23.3325 24.617 22.6162 25.3333 21.7325 25.3333H10.3139C10.6495 26.5713 10.746 27.8619 10.5981 29.136C10.4751 30.2685 10.2506 31.3877 9.92719 32.48C9.7517 33.0533 9.53036 33.6115 9.26532 34.1493C9.14364 34.3909 9.00554 34.6238 8.85199 34.8464L8.81626 34.8997L20.9133 34.9333C21.2674 33.6682 21.91 32.5023 22.7907 31.5275L22.3107 31.3595C21.9533 31.2347 21.684 31.1408 21.5459 31.0965C19.2611 30.3739 18.1187 29.3333 18.1496 28.0032C18.1565 27.7086 18.4009 27.4755 18.6955 27.4824C18.99 27.4893 19.2232 27.7337 19.2163 28.0283C19.2035 28.5771 19.6531 29.3776 21.8701 30.0789C22.0147 30.1253 22.2931 30.2224 22.6627 30.3515C23.0589 30.4901 23.5629 30.6661 24.1187 30.8549H24.1224C25.6233 31.4051 27.1547 31.8681 28.7091 32.2416C29.2054 32.3358 29.6878 32.0224 29.8035 31.5307C29.9174 31.2273 29.9603 30.9018 29.9288 30.5792C29.9149 30.4672 29.8893 30.3563 29.8648 30.2448C29.7561 29.8761 29.7402 29.4862 29.8184 29.1099C29.9735 28.6199 30.334 28.2217 30.8061 28.0187L30.9165 27.9557C30.8589 27.8395 30.7902 27.7291 30.7112 27.6261C30.6217 27.5128 30.582 27.368 30.6012 27.2248C30.6204 27.0817 30.6969 26.9525 30.8131 26.8667C30.9411 26.7728 31.2429 26.5467 31.4637 26.3685C31.4381 26.3221 31.4104 26.2709 31.3837 26.2245C31.3 26.0779 31.2045 25.9072 31.1112 25.7099C30.9424 25.336 30.8927 24.9193 30.9688 24.5163C31.0968 23.8656 31.7203 23.5467 32.1747 23.3141C32.3281 23.2412 32.4753 23.1558 32.6147 23.0587C32.7281 22.982 32.8344 22.8955 32.9325 22.8C32.9325 22.7189 32.8456 22.5227 32.4392 22.0283C31.484 20.7985 30.6649 19.4688 29.9965 18.0624C29.8715 17.8421 29.8011 17.595 29.7912 17.3419C29.8463 16.8058 30.1304 16.3197 30.5704 16.0085C30.7837 15.8107 30.9891 15.624 31.0131 15.4501C31.0095 15.3243 30.9812 15.2003 30.9299 15.0853C30.8429 14.8565 30.7427 14.6325 30.6419 14.408C30.4232 13.9571 30.2485 13.4861 30.1203 13.0016L30.0669 12.7744C29.9543 12.2412 29.8092 11.7154 29.6323 11.2C29.2118 10.0396 28.5609 8.9763 27.7187 8.07413C26.6984 6.99467 25.0925 6.23093 22.9379 5.80267C21.2903 5.4409 19.6184 5.20008 17.9357 5.08213C15.5056 4.96074 13.0998 5.615 11.0659 6.9504V7.46667C11.0659 7.66868 10.9517 7.85335 10.771 7.94369C10.5904 8.03404 10.3741 8.01454 10.2125 7.89333C9.86401 7.64744 9.38534 7.70881 9.11012 8.03467C8.95511 8.22845 8.89823 8.48293 8.95599 8.72427C9.0186 8.98688 9.21083 9.19942 9.46586 9.288C9.71929 9.37727 10.0005 9.33426 10.2157 9.17333C10.3773 9.05402 10.5922 9.03561 10.7718 9.12571C10.9513 9.21581 11.065 9.39914 11.0659 9.6V12C11.0659 12.5891 10.5883 13.0667 9.99919 13.0667H7.59919C7.39718 13.0667 7.2125 12.9525 7.12216 12.7718C7.03182 12.5912 7.05132 12.3749 7.17252 12.2133C7.42006 11.8833 7.37602 11.4191 7.07083 11.1415C6.76564 10.8639 6.2994 10.8639 5.99422 11.1415C5.68903 11.4191 5.64499 11.8833 5.89252 12.2133C6.01373 12.3749 6.03323 12.5912 5.94288 12.7718C5.85254 12.9525 5.66787 13.0667 5.46586 13.0667H2.53252C2.23797 13.0667 1.99919 12.8279 1.99919 12.5333V5.6C1.99919 4.71634 2.71553 4 3.59919 4H10.5325C10.8271 4 11.0659 4.23878 11.0659 4.53333V5.67307C13.1673 4.4686 15.5706 3.89359 17.9896 4.01653C19.725 4.1369 21.4493 4.38432 23.1485 4.7568C25.5533 5.2368 27.3011 6.08 28.4941 7.3408C29.4352 8.34782 30.1629 9.53483 30.6333 10.8304C30.8254 11.3879 30.9832 11.9566 31.1059 12.5333L31.1592 12.7584C31.273 13.1767 31.4257 13.5834 31.6152 13.9733C31.7219 14.2165 31.8328 14.4597 31.9283 14.7115C32.051 14.9917 32.0995 15.2988 32.0691 15.6032C31.9617 16.0812 31.6859 16.5045 31.292 16.7957C31.0312 17.0347 30.86 17.2032 30.8579 17.3499C30.8769 17.4309 30.9075 17.5089 30.9485 17.5813C31.5872 18.926 32.3695 20.1976 33.2819 21.3739C33.6685 21.8443 34.0739 22.3931 33.9885 22.9424C33.8754 23.3662 33.5962 23.7265 33.2141 23.9419ZM22.2659 9.86667C22.2659 9.57212 22.0271 9.33333 21.7325 9.33333H15.3325V11.7333C15.3325 11.9353 15.2184 12.12 15.0377 12.2104C14.857 12.3007 14.6408 12.2812 14.4792 12.16C14.1307 11.9141 13.652 11.9755 13.3768 12.3013C13.2218 12.4951 13.1649 12.7496 13.2227 12.9909C13.2853 13.2535 13.4775 13.4661 13.7325 13.5547C13.9868 13.6439 14.2688 13.6001 14.484 13.4379C14.6459 13.3193 14.8606 13.3016 15.0397 13.3921C15.2188 13.4826 15.332 13.666 15.3325 13.8667V16.2667H16.9507C16.9094 15.9723 16.9379 15.6723 17.0339 15.3909C17.2407 14.7817 17.7489 14.3234 18.3763 14.1803C18.9312 14.0512 19.5146 14.1826 19.9606 14.5371C20.4066 14.8915 20.6663 15.4303 20.6659 16C20.6656 16.0892 20.6592 16.1783 20.6467 16.2667H22.2659V9.86667ZM22.2659 23.7333V17.3333H19.8659C19.6638 17.3333 19.4792 17.2192 19.3888 17.0385C19.2985 16.8578 19.318 16.6416 19.4392 16.48C19.697 16.1344 19.6345 15.6465 19.2979 15.3771C19.1038 15.2222 18.8491 15.1655 18.6077 15.2235C18.345 15.2857 18.1325 15.4781 18.0445 15.7333C17.9546 15.9874 17.9987 16.2697 18.1619 16.4843C18.2808 16.6462 18.2987 16.8613 18.208 17.0407C18.1173 17.22 17.9335 17.3331 17.7325 17.3333H15.3325V18.9525C16.0561 18.8479 16.7742 19.1754 17.1697 19.7904C17.5651 20.4054 17.5651 21.1946 17.1697 21.8096C16.7742 22.4246 16.0561 22.7521 15.3325 22.6475V24.2667H21.7325C22.0271 24.2667 22.2659 24.0279 22.2659 23.7333ZM14.5619 21.3867C14.7435 21.2975 14.9598 21.3182 15.1213 21.44C15.4514 21.6875 15.9155 21.6435 16.1931 21.3383C16.4707 21.0331 16.4707 20.5669 16.1931 20.2617C15.9155 19.9565 15.4514 19.9125 15.1213 20.16C14.9597 20.2812 14.7435 20.3007 14.5628 20.2104C14.3821 20.12 14.268 19.9353 14.268 19.7333V17.3333H11.868C11.666 17.3333 11.4813 17.2192 11.391 17.0385C11.3006 16.8578 11.3201 16.6416 11.4413 16.48C11.6889 16.15 11.6448 15.6858 11.3396 15.4082C11.0344 15.1306 10.5682 15.1306 10.263 15.4082C9.95783 15.6858 9.91379 16.15 10.1613 16.48C10.2825 16.6416 10.302 16.8578 10.2117 17.0385C10.1213 17.2192 9.93667 17.3333 9.73466 17.3333H7.33252V23.7333C7.33252 24.0279 7.5713 24.2667 7.86586 24.2667H14.2659V21.8667C14.2649 21.6633 14.3798 21.4772 14.5619 21.3867ZM9.99919 5.06667H3.59919C3.30464 5.06667 3.06586 5.30545 3.06586 5.6V12H4.68506C4.67252 11.9117 4.66611 11.8226 4.66586 11.7333C4.66586 10.7024 5.50159 9.86667 6.53252 9.86667C7.56345 9.86667 8.39919 10.7024 8.39919 11.7333C8.39894 11.8226 8.39252 11.9117 8.37999 12H9.99919V10.3813C9.70449 10.4233 9.40404 10.395 9.12239 10.2987C8.51354 10.0913 8.05585 9.58294 7.91332 8.95573C7.77375 8.35508 7.93984 7.72426 8.35709 7.2702C8.77434 6.81614 9.38891 6.59745 9.99919 6.68587V5.06667Z" fill="#5F5F5F"/>
<path d="M28.044 13.4886L27.9906 13.2571C27.896 12.8114 27.776 12.3714 27.6312 11.9393C27.3103 11.0478 26.8111 10.2312 26.164 9.53926C25.7489 9.12188 25.2561 8.78993 24.7133 8.56219C24.5334 8.48818 24.4081 8.3221 24.3863 8.12882C24.3645 7.93553 24.4496 7.74569 24.6084 7.63343C24.7673 7.52117 24.9747 7.5043 25.1496 7.58939C25.8207 7.87364 26.4292 8.2876 26.94 8.80753C27.6868 9.60463 28.263 10.5458 28.6333 11.5734C28.7943 12.0472 28.9273 12.5299 29.0317 13.0193L29.085 13.2539C29.1169 13.3922 29.0923 13.5375 29.0167 13.6576C28.9412 13.7777 28.8208 13.8628 28.6824 13.8939C28.6437 13.9028 28.6042 13.9073 28.5645 13.9073C28.3143 13.9071 28.0978 13.733 28.044 13.4886Z" fill="#5F5F5F"/>
<path d="M29.1992 15.7332C28.9046 15.7332 28.6659 15.4944 28.6659 15.1998C28.6659 14.9053 28.9046 14.6665 29.1992 14.6665C29.4937 14.6665 29.7325 14.9053 29.7325 15.1998C29.7325 15.4944 29.4937 15.7332 29.1992 15.7332Z" fill="#5F5F5F"/>
</svg>
