<svg width="36" height="36" viewBox="0 0 36 36" fill="none" xmlns="http://www.w3.org/2000/svg">
<path d="M12.4699 24.5962C13.0307 24.5962 13.4852 24.1416 13.4852 23.5809C13.4852 23.0201 13.0307 22.5656 12.4699 22.5656C11.9092 22.5656 11.4546 23.0201 11.4546 23.5809C11.4546 24.1416 11.9092 24.5962 12.4699 24.5962Z" fill="#5F5F5F"/>
<path d="M19.3517 11.4241C18.165 10.2392 16.2338 10.2391 15.0474 11.4237L13.4472 13.0197C12.7176 13.7481 12.4083 14.7856 12.6199 15.7952C12.7238 16.2912 12.6021 16.7885 12.286 17.1595L8.28138 21.8601C7.77763 22.453 7.45334 23.1733 7.3436 23.9433L7.3338 24.0124C7.19812 24.9645 7.39047 25.9004 7.86802 26.6961L5 29.5641L6.43584 31L9.30523 28.1306C9.93695 28.5094 10.6539 28.709 11.3951 28.709C11.6379 28.709 11.8833 28.6876 12.1291 28.6443C12.8473 28.5176 13.5209 28.2015 14.0782 27.7293L18.9029 23.6294C19.2595 23.3265 19.7311 23.1991 20.1972 23.2801C21.1727 23.4494 22.1728 23.1335 22.8721 22.4354L24.4724 20.8394C25.0479 20.2648 25.3647 19.5008 25.3647 18.6881C25.3647 17.8753 25.0479 17.1114 24.4724 16.5368L19.3517 11.4241ZM20.5447 21.2793C19.4831 21.095 18.4054 21.3875 17.5881 22.0821L12.7644 26.181C12.4824 26.42 12.1406 26.5802 11.7761 26.6446C11.1079 26.7624 10.4452 26.5598 9.95802 26.0885C9.47271 25.619 9.24897 24.9666 9.34413 24.2986L9.35393 24.2295C9.40948 23.8399 9.57366 23.4753 9.82792 23.176L13.8317 18.4764C14.5583 17.6234 14.841 16.4944 14.6073 15.3788C14.5878 15.2858 14.5821 15.1921 14.5885 15.1001L20.7807 21.2923C20.7027 21.297 20.6234 21.293 20.5447 21.2793ZM23.0381 19.4019L22.3993 20.039L15.8507 13.4905L16.4818 12.861C16.6797 12.6635 16.9395 12.5648 17.1994 12.5648C17.4592 12.5648 17.7192 12.6635 17.917 12.861L23.0377 17.9738C23.2288 18.1646 23.3341 18.4183 23.3341 18.688C23.3341 18.9578 23.2289 19.2114 23.0381 19.4019Z" fill="#5F5F5F"/>
<path d="M21.9634 9.06146V11.0922C23.587 11.0922 24.9079 12.4131 24.9079 14.0367H26.9386C26.9385 11.2932 24.7067 9.06146 21.9634 9.06146Z" fill="#5F5F5F"/>
<path d="M21.9634 5V7.03069C25.8264 7.03069 28.9692 10.1735 28.9692 14.0365H30.9999C30.9999 9.05381 26.9461 5 21.9634 5Z" fill="#5F5F5F"/>
</svg>
