<svg width="36" height="36" viewBox="0 0 36 36" fill="none" xmlns="http://www.w3.org/2000/svg">
<path d="M32.4516 4.17724C31.3047 2.79358 29.7895 2 28.2948 2H27.7654C26.019 2 24.5785 3.39853 24.5543 5.11766C24.5432 5.90532 24.8187 6.65403 25.3331 7.24234C25.1014 7.50748 24.9187 7.80595 24.7881 8.12573C22.9028 8.74127 21.3475 10.2278 20.5988 12.1461C20.5039 12.3892 20.624 12.6633 20.8673 12.7582C20.9238 12.7803 20.9818 12.7907 21.039 12.7907C21.2281 12.7907 21.4066 12.6765 21.4795 12.4898C22.0543 11.0169 23.1761 9.84032 24.5561 9.22654C24.5446 9.61653 24.602 9.98326 24.7188 10.3309C23.01 11.2346 21.9392 13.2014 22.185 15.0994C22.3102 16.0653 22.7263 16.966 23.1669 17.9196C23.5238 18.6921 23.8928 19.4908 24.1074 20.3462C24.4479 21.7027 24.347 23.199 23.8391 24.5755C23.6191 24.2921 23.3306 24.0357 22.9805 23.8099C23.6748 21.533 22.9149 19.8965 22.1776 18.3116C21.7351 17.3604 21.2777 16.3769 21.1297 15.2367C21.0975 14.9864 21.0828 14.7336 21.0863 14.485C21.09 14.2239 20.8812 14.0094 20.6202 14.0058C20.618 14.0057 20.6158 14.0057 20.6136 14.0057C20.3556 14.0057 20.1447 14.2131 20.1411 14.4718C20.1371 14.765 20.1542 15.063 20.1923 15.3579C20.359 16.6432 20.8478 17.694 21.3205 18.7102C22.0194 20.2126 22.6297 21.527 22.1244 23.3689C21.0806 22.9379 19.7166 22.697 18.1338 22.697C16.551 22.697 15.1869 22.938 14.1431 23.3691C13.9754 22.7564 13.922 22.168 13.9808 21.5829C14.0069 21.3232 13.8175 21.0915 13.5578 21.0653C13.2984 21.0397 13.0663 21.2287 13.0402 21.4884C12.9633 22.2535 13.0442 23.0166 13.2866 23.8102C12.9367 24.036 12.6484 24.2923 12.4285 24.5756C11.9208 23.199 11.8199 21.7027 12.1602 20.3462C12.3748 19.4909 12.7439 18.6921 13.1008 17.9196C13.5414 16.966 13.9575 16.0653 14.0827 15.0994C14.3286 13.2015 13.2577 11.2346 11.5489 10.3309C11.6675 9.97809 11.7231 9.61086 11.7116 9.22585C13.9912 10.2383 15.4616 12.7376 15.1379 15.2362C14.9897 16.3774 14.532 17.3613 14.0894 18.3128C13.9534 18.6052 13.8127 18.9076 13.6836 19.2094C13.5808 19.4494 13.6921 19.7272 13.932 19.83C14.172 19.9327 14.4498 19.8215 14.5526 19.5815C14.676 19.2932 14.8074 19.0107 14.9466 18.7115C15.4195 17.695 15.9084 16.6439 16.0755 15.3578C16.4804 12.231 14.4745 9.10403 11.4795 8.12573C11.349 7.80608 11.1663 7.5076 10.9346 7.24247C11.449 6.65403 11.7246 5.90532 11.7135 5.11785C11.6893 3.39879 10.2488 2.00013 8.50241 2.00013H7.97302C6.47826 2.00013 4.96313 2.79371 3.81618 4.17737C2.64491 5.59002 2 7.41691 2 9.32146C2 11.226 2.64491 13.0528 3.81599 14.4654C4.96294 15.8489 6.478 16.6423 7.97284 16.6423H8.50222C10.2486 16.6423 11.6891 15.2437 11.7133 13.5246C11.7244 12.7372 11.4489 11.9885 10.9345 11.3999C10.999 11.3261 11.0597 11.2496 11.1167 11.1708C12.484 11.8953 13.341 13.4649 13.145 14.9777C13.0385 15.8 12.6518 16.6369 12.2425 17.5229C11.8673 18.335 11.4793 19.1747 11.2432 20.116C10.7804 21.9603 11.0337 24.0258 11.9363 25.8072C11.8675 26.6734 12.2943 27.7097 13.1261 28.6807C14.001 29.702 15.2117 30.5059 16.4478 30.8863C16.5199 30.9084 16.5702 30.9784 16.5702 31.0564V32.4055C16.5702 33.2592 17.224 33.9588 18.0588 33.9981C18.9664 34.0419 19.6974 33.313 19.6974 32.4364V31.0564C19.6974 30.9784 19.7477 30.9084 19.8198 30.8862C21.0558 30.5059 22.2665 29.7021 23.1414 28.6807C23.9733 27.7097 24.4 26.6734 24.3313 25.8072C25.2339 24.0258 25.4871 21.9602 25.0243 20.1159C24.5259 18.1293 23.3244 16.5367 23.1224 14.9777C22.9265 13.4649 23.7836 11.8953 25.1508 11.1708C25.2078 11.2496 25.2685 11.3261 25.333 11.4C24.8186 11.9884 24.5431 12.7371 24.5542 13.5246C24.5785 15.2437 26.0189 16.6423 27.7653 16.6423H28.2947C29.7895 16.6423 31.3046 15.8489 32.4515 14.4654C33.6226 13.0528 34.2675 11.226 34.2675 9.32146C34.2675 7.41691 33.6226 5.59002 32.4516 4.17724ZM10.1505 11.9433C10.5571 12.3666 10.7764 12.9235 10.7681 13.5114C10.7511 14.7166 9.73469 15.6971 8.50229 15.6971H7.9729C6.76041 15.6971 5.51061 15.0283 4.54384 13.8622C3.51298 12.6187 2.94534 11.0062 2.94534 9.32146C2.94534 7.63674 3.51298 6.02412 4.54378 4.78056C5.51054 3.6142 6.76034 2.94534 7.97284 2.94534H8.50222C9.73463 2.94534 10.7511 3.92584 10.7681 5.13102C10.7763 5.7189 10.557 6.27576 10.1505 6.69909C9.85784 7.00368 9.85797 7.48107 10.1508 7.78591C10.9744 8.64371 10.9745 9.99845 10.1508 10.8565C9.85809 11.1614 9.85797 11.6388 10.1505 11.9433ZM22.4235 28.0658C21.6618 28.9549 20.6114 29.6536 19.5418 29.9827C19.0693 30.1281 18.752 30.5596 18.752 31.0565V32.4364C18.752 32.7872 18.4614 33.0697 18.1033 33.054C17.7791 33.0387 17.5155 32.7479 17.5155 32.4056V31.0565C17.5155 30.5596 17.1981 30.1282 16.7257 29.9828C15.656 29.6537 14.6057 28.9549 13.844 28.0658C13.16 27.2674 12.7942 26.3955 12.8892 25.7902C13.0875 24.5256 15.2442 23.6423 18.1338 23.6423C21.0234 23.6423 23.18 24.5256 23.3784 25.7902C23.4734 26.3954 23.1074 27.2674 22.4235 28.0658ZM31.7238 13.8621C30.7571 15.0282 29.5072 15.697 28.2948 15.697H27.7653C26.5329 15.697 25.5165 14.7165 25.4995 13.5113C25.4912 12.9234 25.7106 12.3665 26.1173 11.9431C26.4096 11.6386 26.4095 11.1613 26.1168 10.8564C25.2917 9.99718 25.2946 8.64207 26.1168 7.78585C26.4095 7.48101 26.4096 7.00368 26.1172 6.69896C25.7106 6.27576 25.4912 5.7189 25.4995 5.1309C25.5165 3.92578 26.5329 2.94528 27.7654 2.94528H28.2948C29.5072 2.94528 30.757 3.61413 31.7238 4.78049C32.7545 6.02412 33.3222 7.63674 33.3222 9.32146C33.3222 11.0062 32.7545 12.6187 31.7238 13.8621Z" fill="#5F5F5F"/>
</svg>
