<svg width="16" height="16" fill="none" xmlns="http://www.w3.org/2000/svg"><path d="M14.942 7.791c-1.498-2.769-4.124-4.444-7.03-4.444-2.908 0-5.539 1.675-7.023 4.444L.764 8l.116.213c1.498 2.77 4.124 4.445 7.031 4.445s5.538-1.653 7.031-4.445L15.058 8l-.116-.209zm-7.03 3.956c-2.503 0-4.8-1.396-6.134-3.747C3.11 5.649 5.408 4.253 7.91 4.253s4.774 1.4 6.129 3.747c-1.355 2.351-3.631 3.747-6.129 3.747z" fill="#8D8D8D"/><path d="M8.04 4.964a3.049 3.049 0 10.044 6.098 3.049 3.049 0 00-.044-6.098zm0 5.21a2.16 2.16 0 11.044-4.32 2.16 2.16 0 01-.044 4.32z" fill="#8D8D8D"/></svg>