<svg viewBox="0 0 70 85" xmlns="http://www.w3.org/2000/svg" xmlns:xlink="http://www.w3.org/1999/xlink"><style>:root&gt;svg{display:none}:root&gt;svg:target{display:block}</style><svg viewBox="0 0 36 36" id="analyses" xmlns="http://www.w3.org/2000/svg"><path d="M28.233 11.17a1.518 1.518 0 000 3.033 1.516 1.516 0 100-3.032zm-5.687-.758a1.138 1.138 0 10-.002-2.276 1.138 1.138 0 00.002 2.276zm4.55-1.137a1.139 1.139 0 000-2.275 1.139 1.139 0 000 2.275zM10.412 24.442a.38.38 0 11-.758 0 .38.38 0 01.758 0zm.758 3.412a.38.38 0 11-.757 0 .38.38 0 01.758 0zm3.413-3.412a.38.38 0 11-.758 0 .38.38 0 01.758 0zm11.172-7.251l-6.197-6.196a.694.694 0 00-.98.98l4.615 4.615-.536.537-3.903-3.903-.601.601 1.628 1.628-.537.536-1.627-1.628-.602.602.87.869-.536.536-.87-.87-.601.602 1.628 1.628-.537.536-1.627-1.628-.602.602.87.869-.536.536-.87-.87-.601.602 1.628 1.628-.537.536-1.627-1.628-.602.602.87.869-.536.536-.87-.87-1.36 1.36h9.545l3.948-3.948.713.712a.694.694 0 00.98-.98z"/><path d="M7.988 23.99A3.353 3.353 0 007 26.376a3.378 3.378 0 003.374 3.374 3.35 3.35 0 002.386-.988l6.595-6.595H9.811L7.988 23.99zm6.216-.686a1.139 1.139 0 010 2.275 1.138 1.138 0 010-2.275zm-2.275 4.55c0 .627-.51 1.138-1.137 1.138s-1.138-.51-1.138-1.138a1.139 1.139 0 012.275 0zm-.758-3.412a1.139 1.139 0 01-2.275 0c0-.627.51-1.138 1.137-1.138s1.138.51 1.138 1.138z"/></svg><svg fill="none" viewBox="0 0 70 85" id="ben-diag" xmlns="http://www.w3.org/2000/svg"><path d="M0 24C0 10.745 10.745 0 24 0h2c13.255 0 24 10.745 24 24v61H0V24z" fill="#F0EEE0"/><path d="M28.248 35.334h9.68a3.457 3.457 0 003.457-3.457v-2.42A3.457 3.457 0 0037.928 26h-9.68a3.457 3.457 0 00-3.457 3.457v2.42a3.457 3.457 0 003.457 3.457z" fill="#5F8D6E"/><path d="M48.99 30.725h-4.148v1.152a6.922 6.922 0 01-6.914 6.914h-9.68a6.922 6.922 0 01-6.914-6.914v-1.152h-4.148A5.192 5.192 0 0012 35.91v41.024a5.192 5.192 0 005.186 5.185h29.017l.002-7.428c-.5-.263-.984-.554-1.45-.869h-27.34a1.73 1.73 0 010-3.457h23.67a15.414 15.414 0 01-2.172-3.918H17.416a1.73 1.73 0 010-3.457h20.638a15.423 15.423 0 01-.004-3.918H17.416a1.73 1.73 0 010-3.457h21.49c2.313-6.161 8.383-10.357 15.27-10.004v-9.7a5.192 5.192 0 00-5.186-5.186zM23.87 48.932h-1.038v1.037a1.73 1.73 0 01-3.457 0v-1.037h-1.037a1.729 1.729 0 010-3.457h1.037v-1.038a1.73 1.73 0 013.457 0v1.038h1.037a1.73 1.73 0 010 3.457zm15.671 0h-8.297a1.73 1.73 0 010-3.457h8.297a1.73 1.73 0 010 3.457zm10.121 27.073v5.308a3.688 3.688 0 007.375 0V76.01c-2.35.577-4.901.606-7.375-.005z" fill="#5F8D6E"/><path d="M53.36 72.996c6.613 0 11.974-5.36 11.974-11.974s-5.36-11.975-11.974-11.975-11.975 5.361-11.975 11.975c0 6.613 5.361 11.974 11.975 11.974z" fill="#5F8D6E"/></svg><svg fill="none" viewBox="0 0 70 85" id="ben-lab" xmlns="http://www.w3.org/2000/svg"><path d="M0 24C0 10.745 10.745 0 24 0h2c13.255 0 24 10.745 24 24v61H0V24z" fill="#F0EEE0"/><g clip-path="url(#cclip0_167_116)"><path d="M38.787 38.174a3.413 3.413 0 01-3.404 3.404 3.413 3.413 0 01-3.405-3.404 3.413 3.413 0 013.405-3.404 3.405 3.405 0 013.404 3.404zM61.62 69.688v3.828c0 .601-.492 1.093-1.094 1.093h-1.244l-.97 9.434c-.069.56-.534.984-1.094.984h-44.68c-.56 0-1.039-.423-1.094-.984l-.97-9.434H9.229a1.097 1.097 0 01-1.094-1.093v-3.829c0-.601.492-1.093 1.094-1.093h23.68v-1.531H14.601a1.097 1.097 0 01-1.094-1.094v-2.953c0-.602.492-1.094 1.094-1.094H32.88v-1.367a2.547 2.547 0 012.543-2.543h9.42c1.162 0 2.146.793 2.447 1.86 4.566-1.546 6.672-6.085 6.316-9.9-.355-3.841-3.39-7.97-10.814-8.216-1.34 2.762-4.156 4.662-7.424 4.662a8.91 8.91 0 01-1.053-.068l-1.257 4.703c-.15.574-.766.93-1.34.765l-.875-.232-.643 2.42c-.137.588-.765.943-1.34.78l-.437-.124-.643 2.42c-.136.588-.765.943-1.34.78l-5.974-1.6a1.094 1.094 0 01-.78-1.34l.67-2.434-.437-.123c-.588-.136-.943-.765-.78-1.34l.657-2.42-.889-.232c-.601-.137-.916-.752-.78-1.34l6.522-24.377c.15-.588.752-.93 1.34-.779l2.106.56.369-1.367-1.695-.45a1.094 1.094 0 01-.78-1.34l.944-3.487c.136-.601.752-.916 1.34-.78l12.03 3.227c.589.15.93.752.78 1.34l-.93 3.487c-.136.587-.765.943-1.34.779l-1.695-.451-.369 1.367 2.105.56c.588.15.93.752.78 1.34l-1.053 3.91a8.25 8.25 0 013.623 2.953c9.994.206 18.922 5.715 19.62 16.393.587 9.078-5.442 16.816-14.425 18.389v.273h13.112a1.12 1.12 0 011.107 1.108zM41.426 38.174a6.045 6.045 0 00-6.043-6.043 6.045 6.045 0 00-6.043 6.043 6.045 6.045 0 006.043 6.043c3.336 0 6.056-2.707 6.043-6.043z" fill="#5F8D6E"/></g><defs><clipPath id="cclip0_167_116"><path fill="#fff" transform="translate(0 15)" d="M0 0h70v70H0z"/></clipPath></defs></svg><svg fill="none" viewBox="0 0 70 85" id="ben-oborud" xmlns="http://www.w3.org/2000/svg"><path d="M0 24C0 10.745 10.745 0 24 0h2c13.255 0 24 10.745 24 24v61H0V24z" fill="#F0EEE0"/><path d="M28.652 41.99c-4.924 0-8.93 4.006-8.93 8.93 0 4.923 4.006 8.93 8.93 8.93 4.924 0 8.93-4.006 8.93-8.93 0-4.924-4.006-8.93-8.93-8.93zm3.58 10.721h-1.787V54.5a1.787 1.787 0 11-3.574 0v-1.789h-1.787a1.787 1.787 0 110-3.574h1.787V47.35a1.787 1.787 0 113.574 0v1.788h1.787a1.787 1.787 0 010 3.574z" fill="#5F8D6E"/><path d="M41.156 74.158v-3.574h1.787a5.367 5.367 0 005.361-5.361V36.629a5.367 5.367 0 00-5.36-5.361h-8.936V29.36A5.367 5.367 0 0028.646 24a5.367 5.367 0 00-5.361 5.361v1.907h-8.924A5.367 5.367 0 009 36.628v28.595a5.367 5.367 0 005.361 5.361h1.776v3.574c0 .987.8 1.787 1.787 1.787h7.148c.987 0 1.787-.8 1.787-1.787v-3.574h3.592v3.574c0 .987.8 1.787 1.787 1.787h7.13c.988 0 1.788-.8 1.788-1.787zM26.86 29.361a1.79 1.79 0 011.787-1.787 1.79 1.79 0 011.787 1.787v1.907H26.86V29.36zm1.793 34.063c-6.894 0-12.504-5.61-12.504-12.504 0-6.895 5.61-12.504 12.504-12.504 6.895 0 12.504 5.61 12.504 12.504 0 6.894-5.61 12.504-12.504 12.504zm30.38-7.256H69.75v10.953H59.033V56.168z" fill="#5F8D6E"/><path d="M62.601 36.629v15.965h3.575V36.629a5.368 5.368 0 00-5.362-5.361H57.24a5.368 5.368 0 00-5.361 5.36v43.01a1.79 1.79 0 01-1.787 1.788H39.38a1.79 1.79 0 01-1.787-1.787v-.12h-3.575v.12A5.368 5.368 0 0039.382 85h10.71a5.368 5.368 0 005.362-5.361v-43.01a1.79 1.79 0 011.787-1.787h3.574a1.79 1.79 0 011.787 1.787zm.012 39.316a1.787 1.787 0 103.575 0v-5.25h-3.575v5.25z" fill="#5F8D6E"/></svg><svg fill="none" viewBox="0 0 70 85" id="ben-prof" xmlns="http://www.w3.org/2000/svg"><path d="M0 24C0 10.745 10.745 0 24 0h2c13.255 0 24 10.745 24 24v61H0V24z" fill="#F0EEE0"/><g clip-path="url(#eclip0_167_93)" fill="#5F8D6E"><path d="M28 22c-7.962 0-14.438 6.476-14.438 14.438v7.218a4.599 4.599 0 004.594 4.594H28a9.174 9.174 0 01-9.188-9.187c6.125 0 9.188-4.594 9.188-9.188 0 4.594 3.064 9.188 9.188 9.188A9.174 9.174 0 0128 48.25h9.844a4.599 4.599 0 004.594-4.594v-7.218C42.438 28.476 35.962 22 28 22zm40.142 40.41l-9.804-.554-3.555-9.687c-.63-1.714-3.068-1.714-3.696 0l-3.554 9.687-9.805.554c-1.771.102-2.512 2.318-1.168 3.462l7.697 6.57-2.56 10.107c-.443 1.748 1.515 3.126 3.017 2.11l8.221-5.594 8.222 5.594c1.488 1.01 3.462-.352 3.016-2.11l-2.56-10.107 7.697-6.57c1.344-1.147.604-3.363-1.168-3.462z"/><path d="M39.842 73.847c-5.292-4.52-9.185-6.634-7.597-11.359 1.627-4.809 6.376-4.076 12.484-4.423l.796-2.168c-1.722-1.473-3.927-2.397-6.368-2.397H16.844C11.415 53.5 7 57.916 7 63.344v9.188A1.97 1.97 0 008.969 74.5h30.707l.166-.653z"/></g><defs><clipPath id="eclip0_167_93"><path fill="#fff" transform="translate(0 15)" d="M0 0h70v70H0z"/></clipPath></defs></svg><svg fill="none" viewBox="0 0 70 85" id="ben-scince" xmlns="http://www.w3.org/2000/svg"><path d="M0 24C0 10.745 10.745 0 24 0h2c13.255 0 24 10.745 24 24v61H0V24z" fill="#F0EEE0"/><g clip-path="url(#fclip0_167_160)" fill="#5F8D6E"><path d="M49.096 28.563a2.188 2.188 0 100-4.376 2.188 2.188 0 000 4.375zM26.688 43.72c.514-3.98 1.385-7.764 2.54-11.049-7.234-1.613-12.824-.818-15.08 2.19-2.535 3.378-.735 9.48 4.68 16.092a63.636 63.636 0 017.86-7.234zm2.539 28.859c-1.155-3.286-2.026-7.069-2.54-11.05a63.537 63.537 0 01-7.86-7.232 38.4 38.4 0 00-.557.693 4.373 4.373 0 01-4.344 7.291c-.982 2.557-1.55 5.745.221 8.108 2.257 3.008 7.847 3.803 15.08 2.19z"/><path d="M15.19 60.281a2.187 2.187 0 100-4.375 2.187 2.187 0 000 4.375zm5.074-7.656a59.048 59.048 0 006.102 5.834 71.698 71.698 0 010-11.67 59.1 59.1 0 00-6.102 5.836zM32 39.916a77.526 77.526 0 016.895-4.021 56.468 56.468 0 00-7.536-2.692 50.38 50.38 0 00-2.187 8.653A79.475 79.475 0 0132 39.916zM56.193 61.53c-.514 3.98-1.384 7.764-2.54 11.048.419.094.832.18 1.242.258a4.375 4.375 0 018.228.381c2.574-.382 4.503-1.35 5.61-2.828 2.535-3.378.735-9.48-4.68-16.091a63.617 63.617 0 01-7.86 7.233z"/><path d="M58.94 76.688a2.187 2.187 0 100-4.375 2.187 2.187 0 000 4.374zm-8.06-11.354a77.527 77.527 0 01-6.895 4.021 56.453 56.453 0 007.536 2.692 50.376 50.376 0 002.188-8.653 79.34 79.34 0 01-2.829 1.94zm-9.44 2.847a74.48 74.48 0 008.243-4.678 75.262 75.262 0 004.448-3.143c.29-2.568.435-5.15.434-7.735a68.556 68.556 0 00-.434-7.735 75.276 75.276 0 00-4.448-3.143 74.48 74.48 0 00-8.243-4.678 74.488 74.488 0 00-8.243 4.678 75.229 75.229 0 00-4.448 3.143 69.106 69.106 0 000 15.47 75.243 75.243 0 004.448 3.143 74.472 74.472 0 008.243 4.678zm0-24.306a8.75 8.75 0 11-8.75 8.75 8.76 8.76 0 018.75-8.75zm21.177 8.75a59.04 59.04 0 00-6.103-5.834 71.658 71.658 0 010 11.67 59.12 59.12 0 006.102-5.836zM32.16 74.095c2.494 5.836 5.84 9.155 9.28 9.155 3.44 0 6.787-3.319 9.28-9.155a60.735 60.735 0 01-9.28-3.49 60.698 60.698 0 01-9.28 3.49zm31.893-23.143c5.416-6.61 7.215-12.713 4.68-16.09-2.255-3.009-7.846-3.804-15.08-2.19 1.156 3.285 2.026 7.068 2.54 11.049a63.542 63.542 0 017.86 7.231zM50.718 31.155a29.31 29.31 0 00-.273-.619 4.372 4.372 0 01-4.798-6.848C44.283 22.568 42.87 22 41.44 22c-3.44 0-6.786 3.319-9.28 9.155a60.734 60.734 0 019.28 3.49 60.724 60.724 0 019.278-3.49zm.162 8.761c.96.628 1.904 1.275 2.829 1.94a50.372 50.372 0 00-2.188-8.653 56.468 56.468 0 00-7.535 2.692 77.497 77.497 0 016.894 4.021z"/><path d="M41.44 59.188a6.562 6.562 0 100-13.125 6.562 6.562 0 000 13.124zM32 65.334a77.066 77.066 0 01-2.828-1.94 50.368 50.368 0 002.187 8.653 56.467 56.467 0 007.536-2.692A77.507 77.507 0 0132 65.334z"/></g><defs><clipPath id="fclip0_167_160"><path fill="#fff" transform="translate(0 13)" d="M0 0h70v70H0z"/></clipPath></defs></svg><svg fill="none" viewBox="0 0 70 85" id="ben-service" xmlns="http://www.w3.org/2000/svg"><path d="M0 24C0 10.745 10.745 0 24 0h2c13.255 0 24 10.745 24 24v61H0V24z" fill="#F0EEE0"/><path d="M22.73 69.977l5.413-5.413a3.905 3.905 0 01-1.373-1.374l-5.413 5.413a3.905 3.905 0 011.373 1.374zM39.881 49.5h-9.762a1.952 1.952 0 00-1.952 1.952v9.762c0 1.078.874 1.953 1.952 1.953h9.762a1.952 1.952 0 001.952-1.953v-9.762a1.952 1.952 0 00-1.952-1.952zM22.73 42.69a3.905 3.905 0 01-1.373 1.374l5.413 5.413a3.905 3.905 0 011.373-1.374L22.73 42.69zM19.381 70H9.619a1.952 1.952 0 00-1.952 1.953v9.761c0 1.079.874 1.953 1.952 1.953h9.762a1.952 1.952 0 001.952-1.953v-9.761A1.952 1.952 0 0019.381 70zm29.262-1.397L43.23 63.19a3.905 3.905 0 01-1.373 1.374l5.413 5.413a3.905 3.905 0 011.373-1.374zm-14.619-3.484h1.952v6.833h-1.952V65.12zM60.38 51.452h-5.856a1.952 1.952 0 00-1.953 1.953v5.857c0 1.078.875 1.952 1.953 1.952h5.857a1.952 1.952 0 001.952-1.952v-5.857a1.952 1.952 0 00-1.952-1.953zm-17.15-1.975l5.413-5.413a3.905 3.905 0 01-1.373-1.374l-5.413 5.413a3.905 3.905 0 011.373 1.373zm.556 5.88h6.833v1.952h-6.833v-1.952zM60.381 29h-9.762a1.952 1.952 0 00-1.952 1.952v9.762c0 1.078.874 1.953 1.952 1.953h9.762a1.952 1.952 0 001.952-1.953v-9.762A1.952 1.952 0 0060.381 29zm-41 26.357h6.833v1.952h-6.833v-1.952zm-3.905-3.905H9.62a1.952 1.952 0 00-1.952 1.953v5.857c0 1.078.874 1.952 1.952 1.952h5.857a1.952 1.952 0 001.953-1.952v-5.857a1.952 1.952 0 00-1.953-1.953zM19.381 29H9.619a1.952 1.952 0 00-1.952 1.952v9.762c0 1.078.874 1.953 1.952 1.953h9.762a1.952 1.952 0 001.952-1.953v-9.762A1.952 1.952 0 0019.381 29zm41 41h-9.762a1.952 1.952 0 00-1.952 1.953v9.761c0 1.079.874 1.953 1.952 1.953h9.762a1.952 1.952 0 001.952-1.953v-9.761A1.952 1.952 0 0060.381 70zm-22.452 3.905H32.07a1.952 1.952 0 00-1.952 1.952v5.857c0 1.079.874 1.953 1.953 1.953h5.857a1.952 1.952 0 001.952-1.953v-5.857a1.952 1.952 0 00-1.952-1.952zm0-44.905H32.07a1.952 1.952 0 00-1.952 1.952v5.857c0 1.079.874 1.953 1.953 1.953h5.857a1.952 1.952 0 001.952-1.953v-5.857A1.952 1.952 0 0037.929 29zm-3.905 11.714h1.952v6.834h-1.952v-6.834z" fill="#5F8D6E"/></svg><svg fill="none" viewBox="0 0 10 8" id="chevron-down" xmlns="http://www.w3.org/2000/svg"><path d="M8.077 1L4.752 4.325 1.428 1 0 2.428 4.752 7.18l4.753-4.752L8.077 1z" fill="#5F8D6E"/></svg><svg viewBox="0 0 36 36" id="diagnostics" xmlns="http://www.w3.org/2000/svg"><path d="M14.508 11.164h3.281c.647 0 1.172-.525 1.172-1.172v-.82c0-.647-.525-1.172-1.172-1.172h-3.281c-.647 0-1.172.525-1.172 1.172v.82c0 .647.525 1.172 1.172 1.172z"/><path d="M21.54 9.602h-1.407v.39a2.347 2.347 0 01-2.344 2.344h-3.281a2.347 2.347 0 01-2.344-2.344v-.39h-1.406A1.76 1.76 0 009 11.359v13.907a1.76 1.76 0 001.758 1.757h9.836v-2.517a5.244 5.244 0 01-.49-.295h-9.268a.586.586 0 010-1.172h8.024a5.225 5.225 0 01-.737-1.328h-7.287a.586.586 0 010-1.172h6.996a5.23 5.23 0 01-.002-1.328h-6.994a.586.586 0 010-1.172h7.285a5.239 5.239 0 015.176-3.391v-3.289a1.76 1.76 0 00-1.758-1.757zm-8.517 6.171h-.351v.352a.586.586 0 01-1.172 0v-.352h-.352a.586.586 0 010-1.171h.352v-.352a.586.586 0 011.172 0v.352h.351a.586.586 0 010 1.171zm5.313 0h-2.813a.586.586 0 010-1.171h2.813a.586.586 0 010 1.171zm3.431 9.177v1.8a1.25 1.25 0 002.5 0v-1.797a5.249 5.249 0 01-2.5-.002z"/><path d="M23.02 23.931a4.06 4.06 0 100-8.119 4.06 4.06 0 000 8.119z"/></svg><svg viewBox="0 0 36 36" id="doc" xmlns="http://www.w3.org/2000/svg"><path d="M13.529 29.2l1.05-.002h6.775l1.05.002c3.135 0 5.53-.16 5.53-3.438a6.58 6.58 0 00-5.973-6.552c-.027 1.2-3.993 4.162-3.993 4.162S14 20.41 13.973 19.21A6.58 6.58 0 008 25.762c0 3.278 2.394 3.438 5.529 3.438zm7.398-4.475c0-.098.088-.177.198-.177h1.071v-1.07c0-.11.078-.198.176-.198h1.058c.097 0 .175.088.175.197v1.072h1.071c.109 0 .198.078.198.176v1.057c0 .098-.088.176-.198.176h-1.07v1.071c0 .11-.08.198-.177.198h-1.057c-.098 0-.177-.088-.177-.198v-1.071h-1.07c-.11 0-.198-.079-.198-.176v-1.057z"/><path d="M17.969 20.071c3.03 0 5.486-4.556 5.486-7.586a5.486 5.486 0 00-10.972 0c0 3.03 2.457 7.586 5.486 7.586z"/></svg><svg viewBox="0 0 24 24" id="fa_clock" xmlns="http://www.w3.org/2000/svg"><path d="M12 2C6.5 2 2 6.5 2 12s4.5 10 10 10 10-4.5 10-10S17.5 2 12 2zm3 11h-3c-.6 0-1-.4-1-1V7c0-.6.4-1 1-1s1 .4 1 1v4h2c.6 0 1 .4 1 1s-.4 1-1 1z"/></svg><svg fill="none" viewBox="0 0 24 24" id="fa_eye" xmlns="http://www.w3.org/2000/svg"><path d="M21.429 11.5c-1.244-2.049-2.804-3.58-4.678-4.596.5.902.749 1.879.749 2.93 0 1.605-.538 2.979-1.614 4.12-1.077 1.142-2.372 1.713-3.886 1.713-1.514 0-2.81-.571-3.886-1.713C7.038 12.813 6.5 11.44 6.5 9.834c0-1.051.25-2.028.749-2.93C5.375 7.919 3.815 9.45 2.57 11.5c1.089 1.78 2.454 3.197 4.095 4.251 1.64 1.055 3.419 1.582 5.334 1.582 1.915 0 3.693-.527 5.334-1.582 1.641-1.054 3.006-2.471 4.095-4.251zm-8.84-5a.622.622 0 00-.172-.443.552.552 0 00-.417-.182c-1.023 0-1.9.388-2.633 1.165-.733.777-1.1 1.708-1.1 2.793a.62.62 0 00.173.443.552.552 0 00.417.182c.164 0 .303-.06.418-.182a.622.622 0 00.171-.443c0-.746.25-1.384.75-1.914.499-.53 1.1-.794 1.804-.794.164 0 .303-.06.417-.182a.622.622 0 00.172-.443zM23 11.5c0 .295-.082.595-.245.898a13.422 13.422 0 01-4.623 4.799C16.197 18.399 14.152 19 12 19c-2.153 0-4.197-.603-6.132-1.81a13.509 13.509 0 01-4.622-4.792A1.884 1.884 0 011 11.5c0-.295.082-.595.246-.898A13.509 13.509 0 015.868 5.81C7.803 4.603 9.848 4 12 4c2.152 0 4.197.603 6.132 1.81a13.51 13.51 0 014.622 4.792c.164.303.246.603.246.898z" fill="#8D8D8D"/></svg><svg viewBox="0 0 24 24" id="fa_mail" xmlns="http://www.w3.org/2000/svg"><path d="M6 4.5a3 3 0 00-3 3v.301l9 4.847 9-4.845V7.5a3 3 0 00-3-3H6zm15 5.005l-8.645 4.655a.75.75 0 01-.71 0L3 9.505V16.5a3 3 0 003 3h12a3 3 0 003-3V9.505z"/></svg><svg viewBox="0 0 24 24" id="fa_map" xmlns="http://www.w3.org/2000/svg"><path d="M12 1.5a8.26 8.26 0 00-8.25 8.25 8.167 8.167 0 001.662 4.95s.225.296.262.339L12 22.5l6.33-7.465.258-.335v-.002A8.164 8.164 0 0020.25 9.75 8.26 8.26 0 0012 1.5zm0 11.25a3 3 0 110-5.999 3 3 0 010 5.999z"/></svg><svg fill="none" viewBox="0 0 24 24" id="fa_search" xmlns="http://www.w3.org/2000/svg"><path d="M18.814 17.82l-2.598-2.577a6.301 6.301 0 10-.973.973l2.577 2.577a.702.702 0 00.994 0 .7.7 0 000-.973zm-7.498-1.604a4.9 4.9 0 110-9.8 4.9 4.9 0 010 9.8z" fill="#8D8D8D"/></svg><svg fill="none" viewBox="0 0 36 36" id="services" xmlns="http://www.w3.org/2000/svg"><path d="M19.508 19.107a.415.415 0 01-.415-.415v-1.897h-2.017v1.897c0 .23-.186.415-.415.415h-1.897v2.013h1.897c.229 0 .415.185.415.415v1.896h2.012v-1.896c0-.23.186-.415.415-.415h1.901v-2.013h-1.896z" fill="#5F5F5F"/><path d="M25.305 12.857H10.863c-1.32 0-2.863.751-2.863 2.864v9.017c0 2.113 1.544 2.864 2.863 2.864h14.442c1.32 0 2.863-.751 2.863-2.864v-9.017c0-2.113-1.54-2.864-2.863-2.864zm-3.07 8.474a.618.618 0 01-.62.619h-1.692v1.693a.618.618 0 01-.619.618h-2.44a.618.618 0 01-.618-.618V21.95h-1.69a.618.618 0 01-.622-.615v-2.44c0-.341.277-.618.619-.618h1.693v-1.693c0-.342.277-.619.618-.619H19.3c.342 0 .618.277.618.619v1.693h1.694a.618.618 0 01.622.614v2.44zM20.752 9.002a1.199 1.199 0 00-.136 0h-5.063a1.208 1.208 0 00-1.274 1.274v1.867h.83l.004-1.867c0-.12 0-.444.444-.444h5.059c.444 0 .444.32.444.444v1.867h.83v-1.867a1.208 1.208 0 00-1.138-1.274z" fill="#5F5F5F"/></svg><svg viewBox="0 0 24 24" id="telegram" xmlns="http://www.w3.org/2000/svg"><path d="M12 24c6.629 0 12-5.371 12-12S18.629 0 12 0 0 5.371 0 12s5.371 12 12 12zM5.491 11.74l11.57-4.461c.537-.194 1.006.131.832.943l.001-.001-1.97 9.281c-.146.658-.537.818-1.084.508l-3-2.211-1.447 1.394c-.16.16-.295.295-.605.295l.213-3.053 5.56-5.023c.242-.213-.054-.333-.373-.121l-6.871 4.326-2.962-.924c-.643-.204-.657-.643.136-.953z"/></svg><svg viewBox="0 0 24 24" id="viber" xmlns="http://www.w3.org/2000/svg"><path d="M6.813 6.311c-1.48 1.833-1.666 7.76 0 9.425.372.372.94.66 1.624.867l-.005 2.959a.154.154 0 00.27.102l2.33-2.659c2.335.104 4.894-.356 6.023-1.269 1.833-1.48 1.666-7.759 0-9.425-1.81-1.81-8.633-1.991-10.242 0zm5.11.342c2.246.149 3.78 1.814 3.886 4.22a.188.188 0 01-.179.2.187.187 0 01-.196-.182c-.096-2.237-1.461-3.729-3.535-3.864a.188.188 0 01-.179-.2.188.188 0 01.204-.174zm.326 1.648a.187.187 0 01-.148-.276.187.187 0 01.186-.097c1.32.123 2.223 1.106 2.315 2.521a.187.187 0 01-.184.197.187.187 0 01-.19-.176c-.08-1.236-.837-2.065-1.979-2.17zm1.148 2.165h-.003a.186.186 0 01-.187-.163c-.06-.508-.372-.854-.836-.93a.188.188 0 01-.16-.19V9.18a.187.187 0 01.218-.179c.634.102 1.071.58 1.15 1.26a.185.185 0 01-.182.206zm2.42 3.88c-.329.65-1.032 1.307-1.641 1.085-.938-.34-2.243-1.024-3.238-1.826-2.112-1.698-2.775-3.949-3.137-4.652-.282-.941 1.056-1.668 1.056-1.668.288-.154.567-.103.754.125.175.24.524.557 1.039 1.475.192.347.074.703-.118.853-.255.207-.57.384-.545.759 0 0 .562 2.16 2.666 2.709.37.023.545-.304.746-.557.167-.231.542-.278.842-.12.406.213 1.06.681 1.453 1.059.223.184.272.462.122.759z"/><path d="M12 .281C5.528.281.281 5.528.281 12c0 6.472 5.247 11.719 11.719 11.719 6.472 0 11.719-5.247 11.719-11.719C23.719 5.528 18.472.281 12 .281zm7.52 11.69c-.067 1.28-.382 3.589-1.728 4.677-1.409 1.138-4.08 1.544-6.11 1.544-.249 0-.573-.007-.943-.03l-1.614 1.892c-.404.474-1.18.177-1.165-.446l.047-1.916c-.77-.242-1.495-.6-2.022-1.127-1.418-1.418-1.538-4.314-1.524-5.493.01-.885.146-3.895 1.44-5.497 1.359-1.68 4.513-1.862 5.806-1.862 2.13 0 4.872.465 6.177 1.77.618.618 1.077 1.596 1.363 2.907.24 1.1.338 2.372.273 3.582z"/></svg><svg viewBox="0 0 24 24" id="whatsapp" xmlns="http://www.w3.org/2000/svg"><path d="M12.003 0h-.006C5.38 0 0 5.382 0 12c0 2.625.846 5.058 2.284 7.034L.79 23.49l4.613-1.474a11.896 11.896 0 006.6 1.984C18.619 24 24 18.616 24 12c0-6.617-5.38-12-11.997-12zm6.982 16.945c-.289.818-1.438 1.496-2.354 1.694-.628.134-1.447.24-4.204-.903-3.526-1.461-5.797-5.045-5.974-5.277-.17-.232-1.425-1.897-1.425-3.62 0-1.722.875-2.56 1.227-2.92.29-.295.768-.43 1.227-.43.148 0 .282.007.402.013.352.015.53.036.762.593.29.697.994 2.419 1.079 2.596.085.177.17.417.05.65-.112.24-.211.346-.388.55-.177.204-.345.36-.522.579-.162.19-.345.394-.141.747.204.345.909 1.495 1.947 2.42 1.34 1.192 2.426 1.573 2.814 1.735.29.12.635.091.846-.133.269-.29.6-.77.938-1.243.24-.338.543-.38.86-.26.324.112 2.039.96 2.391 1.135.353.177.585.261.671.41.084.148.084.845-.206 1.664z"/></svg></svg>