<?xml version="1.0" encoding="utf-8"?><svg viewBox="0 0 24 24" xmlns="http://www.w3.org/2000/svg" xmlns:xlink="http://www.w3.org/1999/xlink"><style>:root>svg{display:none}:root>svg:target{display:block}</style><svg fill="none" viewBox="0 0 24 24" id="fa_eye" xmlns="http://www.w3.org/2000/svg"><path d="M21.429 11.5c-1.244-2.049-2.804-3.58-4.678-4.596.5.902.749 1.879.749 2.93 0 1.605-.538 2.979-1.614 4.12-1.077 1.142-2.372 1.713-3.886 1.713-1.514 0-2.81-.571-3.886-1.713C7.038 12.813 6.5 11.44 6.5 9.834c0-1.051.25-2.028.749-2.93C5.375 7.919 3.815 9.45 2.57 11.5c1.089 1.78 2.454 3.197 4.095 4.251 1.64 1.055 3.419 1.582 5.334 1.582 1.915 0 3.693-.527 5.334-1.582 1.641-1.054 3.006-2.471 4.095-4.251zm-8.84-5a.622.622 0 00-.172-.443.552.552 0 00-.417-.182c-1.023 0-1.9.388-2.633 1.165-.733.777-1.1 1.708-1.1 2.793a.62.62 0 00.173.443.552.552 0 00.417.182c.164 0 .303-.06.418-.182a.622.622 0 00.171-.443c0-.746.25-1.384.75-1.914.499-.53 1.1-.794 1.804-.794.164 0 .303-.06.417-.182a.622.622 0 00.172-.443zM23 11.5c0 .295-.082.595-.245.898a13.422 13.422 0 01-4.623 4.799C16.197 18.399 14.152 19 12 19c-2.153 0-4.197-.603-6.132-1.81a13.509 13.509 0 01-4.622-4.792A1.884 1.884 0 011 11.5c0-.295.082-.595.246-.898A13.509 13.509 0 015.868 5.81C7.803 4.603 9.848 4 12 4c2.152 0 4.197.603 6.132 1.81a13.51 13.51 0 014.622 4.792c.164.303.246.603.246.898z" fill="#8D8D8D"/></svg><svg fill="none" viewBox="0 0 24 24" id="fa_mail" xmlns="http://www.w3.org/2000/svg"><path d="M6 4.5a3 3 0 00-3 3v.301l9 4.847 9-4.845V7.5a3 3 0 00-3-3H6zm15 5.005l-8.645 4.655a.75.75 0 01-.71 0L3 9.505V16.5a3 3 0 003 3h12a3 3 0 003-3V9.505z" fill="#5F8D6E"/></svg><svg fill="none" viewBox="0 0 24 24" id="fa_map" xmlns="http://www.w3.org/2000/svg"><path d="M12 1.5a8.26 8.26 0 00-8.25 8.25 8.167 8.167 0 001.662 4.95s.225.296.262.339L12 22.5l6.33-7.465.258-.335v-.002A8.164 8.164 0 0020.25 9.75 8.26 8.26 0 0012 1.5zm0 11.25a3 3 0 110-5.999 3 3 0 010 5.999z" fill="#5F8D6E"/></svg><svg fill="none" viewBox="0 0 24 24" id="fa_search" xmlns="http://www.w3.org/2000/svg"><path d="M18.814 17.82l-2.598-2.577a6.301 6.301 0 10-.973.973l2.577 2.577a.702.702 0 00.994 0 .7.7 0 000-.973zm-7.498-1.604a4.9 4.9 0 110-9.8 4.9 4.9 0 010 9.8z" fill="#8D8D8D"/></svg><svg fill="none" viewBox="0 0 24 24" id="telegram" xmlns="http://www.w3.org/2000/svg"><path d="M12 24c6.629 0 12-5.371 12-12S18.629 0 12 0 0 5.371 0 12s5.371 12 12 12zM5.491 11.74l11.57-4.461c.537-.194 1.006.131.832.943l.001-.001-1.97 9.281c-.146.658-.537.818-1.084.508l-3-2.211-1.447 1.394c-.16.16-.295.295-.605.295l.213-3.053 5.56-5.023c.242-.213-.054-.333-.373-.121l-6.871 4.326-2.962-.924c-.643-.204-.657-.643.136-.953z" fill="#8D8D8D"/></svg><svg fill="none" viewBox="0 0 24 24" id="viber" xmlns="http://www.w3.org/2000/svg"><path d="M6.813 6.311c-1.48 1.833-1.666 7.76 0 9.425.372.372.94.66 1.624.867l-.005 2.959a.154.154 0 00.27.102l2.33-2.659c2.335.104 4.894-.356 6.023-1.269 1.833-1.48 1.666-7.759 0-9.425-1.81-1.81-8.633-1.991-10.242 0zm5.11.342c2.246.149 3.78 1.814 3.886 4.22a.188.188 0 01-.179.2.187.187 0 01-.196-.182c-.096-2.237-1.461-3.729-3.535-3.864a.188.188 0 01-.179-.2.188.188 0 01.204-.174zm.326 1.648a.187.187 0 01-.148-.276.187.187 0 01.186-.097c1.32.123 2.223 1.106 2.315 2.521a.187.187 0 01-.184.197.187.187 0 01-.19-.176c-.08-1.236-.837-2.065-1.979-2.17zm1.148 2.165h-.003a.186.186 0 01-.187-.163c-.06-.508-.372-.854-.836-.93a.188.188 0 01-.16-.19V9.18a.187.187 0 01.218-.179c.634.102 1.071.58 1.15 1.26a.185.185 0 01-.182.206zm2.42 3.88c-.329.65-1.032 1.307-1.641 1.085-.938-.34-2.243-1.024-3.238-1.826-2.112-1.698-2.775-3.949-3.137-4.652-.282-.941 1.056-1.668 1.056-1.668.288-.154.567-.103.754.125.175.24.524.557 1.039 1.475.192.347.074.703-.118.853-.255.207-.57.384-.545.759 0 0 .562 2.16 2.666 2.709.37.023.545-.304.746-.557.167-.231.542-.278.842-.12.406.213 1.06.681 1.453 1.059.223.184.272.462.122.759z" fill="#8D8D8D"/><path d="M12 .281C5.528.281.281 5.528.281 12c0 6.472 5.247 11.719 11.719 11.719 6.472 0 11.719-5.247 11.719-11.719C23.719 5.528 18.472.281 12 .281zm7.52 11.69c-.067 1.28-.382 3.589-1.728 4.677-1.409 1.138-4.08 1.544-6.11 1.544-.249 0-.573-.007-.943-.03l-1.614 1.892c-.404.474-1.18.177-1.165-.446l.047-1.916c-.77-.242-1.495-.6-2.022-1.127-1.418-1.418-1.538-4.314-1.524-5.493.01-.885.146-3.895 1.44-5.497 1.359-1.68 4.513-1.862 5.806-1.862 2.13 0 4.872.465 6.177 1.77.618.618 1.077 1.596 1.363 2.907.24 1.1.338 2.372.273 3.582z" fill="#8D8D8D"/></svg><svg fill="none" viewBox="0 0 24 24" id="whatsapp" xmlns="http://www.w3.org/2000/svg"><path d="M12.003 0h-.006C5.38 0 0 5.382 0 12c0 2.625.846 5.058 2.284 7.034L.79 23.49l4.613-1.474a11.896 11.896 0 006.6 1.984C18.619 24 24 18.616 24 12c0-6.617-5.38-12-11.997-12zm6.982 16.945c-.289.818-1.438 1.496-2.354 1.694-.628.134-1.447.24-4.204-.903-3.526-1.461-5.797-5.045-5.974-5.277-.17-.232-1.425-1.897-1.425-3.62 0-1.722.875-2.56 1.227-2.92.29-.295.768-.43 1.227-.43.148 0 .282.007.402.013.352.015.53.036.762.593.29.697.994 2.419 1.079 2.596.085.177.17.417.05.65-.112.24-.211.346-.388.55-.177.204-.345.36-.522.579-.162.19-.345.394-.141.747.204.345.909 1.495 1.947 2.42 1.34 1.192 2.426 1.573 2.814 1.735.29.12.635.091.846-.133.269-.29.6-.77.938-1.243.24-.338.543-.38.86-.26.324.112 2.039.96 2.391 1.135.353.177.585.261.671.41.084.148.084.845-.206 1.664z" fill="#8D8D8D"/></svg></svg>