<svg width="36" height="36" viewBox="0 0 36 36" xmlns="http://www.w3.org/2000/svg">
<path d="M28.2333 11.1709C27.3968 11.1709 26.7167 11.851 26.7167 12.6876C26.7167 13.5241 27.3968 14.2042 28.2333 14.2042C29.0699 14.2042 29.75 13.5241 29.75 12.6876C29.75 11.851 29.0699 11.1709 28.2333 11.1709Z" />
<path d="M22.5458 10.4125C23.1729 10.4125 23.6833 9.90206 23.6833 9.27495C23.6833 8.64785 23.1729 8.13745 22.5458 8.13745C21.9187 8.13745 21.4083 8.64785 21.4083 9.27495C21.4083 9.90206 21.9187 10.4125 22.5458 10.4125Z" />
<path d="M27.0958 9.275C27.7229 9.275 28.2333 8.76461 28.2333 8.1375C28.2333 7.51039 27.7229 7 27.0958 7C26.4687 7 25.9583 7.51039 25.9583 8.1375C25.9583 8.76461 26.4687 9.275 27.0958 9.275Z" />
<path d="M10.4125 24.4417C10.4125 24.6511 10.2428 24.8208 10.0333 24.8208C9.82391 24.8208 9.65417 24.6511 9.65417 24.4417C9.65417 24.2322 9.82391 24.0625 10.0333 24.0625C10.2428 24.0625 10.4125 24.2322 10.4125 24.4417Z" />
<path d="M11.1708 27.8543C11.1708 28.0637 11.0011 28.2334 10.7917 28.2334C10.5822 28.2334 10.4125 28.0637 10.4125 27.8543C10.4125 27.6448 10.5822 27.4751 10.7917 27.4751C11.0011 27.4751 11.1708 27.6448 11.1708 27.8543Z" />
<path d="M14.5833 24.4417C14.5833 24.6511 14.4136 24.8208 14.2042 24.8208C13.9947 24.8208 13.825 24.6511 13.825 24.4417C13.825 24.2322 13.9947 24.0625 14.2042 24.0625C14.4136 24.0625 14.5833 24.2322 14.5833 24.4417Z" />
<path d="M25.7554 17.1914L19.5584 10.995C19.429 10.8657 19.2509 10.7917 19.0682 10.7917C18.6859 10.7917 18.375 11.1026 18.375 11.4852C18.375 11.6702 18.447 11.8447 18.5779 11.9755L23.1931 16.5903L22.6569 17.1265L18.7542 13.224L18.1528 13.8251L19.7806 15.4528L19.2444 15.989L17.6167 14.3612L17.0153 14.9626L17.8847 15.832L17.3486 16.3682L16.4792 15.4987L15.8778 16.1001L17.5056 17.7278L16.9694 18.264L15.3417 16.6362L14.7403 17.2376L15.6097 18.107L15.0736 18.6432L14.2042 17.7737L13.6028 18.3751L15.2306 20.0028L14.6944 20.539L13.0667 18.9112L12.4653 19.5126L13.3347 20.382L12.7986 20.9182L11.9292 20.0487L10.5695 21.4084H20.1138L24.0625 17.4597L24.7749 18.1719C24.9044 18.3012 25.0824 18.3751 25.2652 18.3751C25.6474 18.3751 25.9583 18.0642 25.9583 17.6816C25.9583 17.4966 25.8863 17.3226 25.7554 17.1914Z" />
<path d="M7.98806 23.9899C7.35103 24.627 7 25.4747 7 26.3759C7 28.2364 8.5137 29.7501 10.3741 29.7501C11.2754 29.7501 12.123 29.3991 12.7602 28.762L19.3555 22.1667H9.81117L7.98806 23.9899ZM14.2042 23.3042C14.8313 23.3042 15.3417 23.8146 15.3417 24.4417C15.3417 25.0689 14.8313 25.5792 14.2042 25.5792C13.5771 25.5792 13.0667 25.0689 13.0667 24.4417C13.0667 23.8146 13.5771 23.3042 14.2042 23.3042ZM11.9292 27.8542C11.9292 28.4814 11.4188 28.9917 10.7917 28.9917C10.1646 28.9917 9.65417 28.4814 9.65417 27.8542C9.65417 27.2271 10.1646 26.7167 10.7917 26.7167C11.4188 26.7167 11.9292 27.2271 11.9292 27.8542ZM11.1708 24.4417C11.1708 25.0689 10.6604 25.5792 10.0333 25.5792C9.40623 25.5792 8.89583 25.0689 8.89583 24.4417C8.89583 23.8146 9.40623 23.3042 10.0333 23.3042C10.6604 23.3042 11.1708 23.8146 11.1708 24.4417Z" />
</svg>
