<svg width="24" height="24" viewBox="0 0 24 24" fill="none" xmlns="http://www.w3.org/2000/svg">
<path d="M7.40022 13.0999L6.30022 17.1999C6.20022 17.4999 6.30022 17.7999 6.50022 18.0999C6.60022 18.1999 6.90022 18.2999 7.10022 18.2999C7.20022 18.2999 7.20022 18.2999 7.30022 18.2999L11.2002 17.1999H11.3002L21.6002 6.4999C21.9002 6.1999 22.1002 5.6999 22.1002 5.1999C22.1002 4.5999 21.9002 4.0999 21.4002 3.5999L20.4002 2.5999C20.0002 2.1999 19.4002 1.8999 18.9002 1.8999C18.4002 1.8999 17.9002 2.0999 17.6002 2.3999L7.40022 13.0999ZM18.0002 4.6999L18.9002 3.7999C18.9002 3.7999 19.0002 3.6999 19.1002 3.6999C19.2002 3.6999 19.3002 3.6999 19.3002 3.7999L20.3002 4.7999C20.4002 4.8999 20.4002 4.9999 20.4002 5.0999V5.1999L19.5002 6.0999L18.0002 4.6999ZM9.60022 13.3999L16.7002 5.9999L18.1002 7.4999L11.0002 14.7999L9.60022 13.3999ZM8.50022 15.3999L8.70022 14.6999L9.70022 15.7999L9.00022 15.9999C8.90022 15.6999 8.70022 15.4999 8.50022 15.3999Z" fill="#E8A05E"/>
<path d="M22.1001 9.6001C21.9001 9.4001 21.7001 9.4001 21.5001 9.4001C21.0001 9.4001 20.6001 9.8001 20.6001 10.3001V18.9001C20.6001 20.1001 19.5001 20.7001 18.8001 20.7001H5.1001C4.4001 20.7001 3.5001 20.0001 3.3001 18.4001V5.2001C3.3001 4.6001 3.5001 4.1001 3.8001 3.8001C4.2001 3.4001 4.8001 3.4001 5.1001 3.4001H14.3001C14.8001 3.4001 15.2001 3.0001 15.2001 2.5001C15.2001 2.0001 14.8001 1.6001 14.3001 1.6001H5.0001C3.9001 1.6001 1.6001 2.3001 1.6001 4.6001V18.5001C1.6001 21.5001 3.4001 22.6001 5.0001 22.6001H19.0001C20.7001 22.6001 22.4001 21.5001 22.4001 19.1001V10.4001C22.4001 10.0001 22.3001 9.7001 22.1001 9.6001Z" fill="#E8A05E"/>
</svg>
