<svg width="70" height="85" viewBox="0 0 70 85" fill="none" xmlns="http://www.w3.org/2000/svg">
<path d="M0 24C0 10.7452 10.7452 0 24 0H26C39.2548 0 50 10.7452 50 24V85H0V24Z" fill="#F0EEE0"/>
<g clip-path="url(#clip0_167_116)">
<path d="M38.7871 38.1739C38.7871 40.0469 37.2559 41.5782 35.3828 41.5782C33.5098 41.5782 31.9785 40.0469 31.9785 38.1739C31.9785 36.3008 33.5098 34.7696 35.3828 34.7696C37.2695 34.7696 38.7871 36.3008 38.7871 38.1739ZM61.6191 69.6875V73.5157C61.6191 74.1172 61.127 74.6094 60.5254 74.6094H59.2812L58.3105 84.043C58.2422 84.6036 57.7773 85.0274 57.2168 85.0274H12.5371C11.9766 85.0274 11.498 84.6036 11.4434 84.043L10.4727 74.6094H9.22852C8.62695 74.6094 8.13477 74.1172 8.13477 73.5157V69.6875C8.13477 69.086 8.62695 68.5938 9.22852 68.5938H32.9082V67.0625H14.6016C14 67.0625 13.5078 66.5704 13.5078 65.9688V63.0157C13.5078 62.4141 14 61.9219 14.6016 61.9219H32.8809V60.5547C32.8809 59.1465 34.0293 58.0118 35.4238 58.0118H44.8438C46.0059 58.0118 46.9902 58.8047 47.291 59.8711C51.8574 58.3262 53.9629 53.7872 53.6074 49.9727C53.252 46.1309 50.2168 42.002 42.793 41.7559C41.4531 44.5176 38.6367 46.418 35.3691 46.418C35.0137 46.418 34.6582 46.3907 34.3164 46.3497L33.0586 51.0528C32.9082 51.627 32.293 51.9825 31.7188 51.8184L30.8438 51.586L30.2012 54.0059C30.0645 54.5938 29.4355 54.9493 28.8613 54.7852L28.4238 54.6622L27.7812 57.0821C27.6445 57.67 27.0156 58.0254 26.4414 57.8614L20.4668 56.2618C19.8789 56.1114 19.5371 55.5098 19.6875 54.9219L20.3574 52.4883L19.9199 52.3653C19.332 52.2286 18.9766 51.5997 19.1406 51.0254L19.7969 48.6055L18.9082 48.3731C18.3066 48.2364 17.9922 47.6211 18.1289 47.0333L24.6504 22.6563C24.8008 22.0684 25.4023 21.7266 25.9902 21.877L28.0957 22.4376L28.4648 21.0704L26.7695 20.6192C26.1816 20.4688 25.8398 19.8672 25.9902 19.2793L26.9336 15.793C27.0703 15.1915 27.6855 14.877 28.2734 15.0137L40.3047 18.2403C40.8926 18.3907 41.2344 18.9922 41.084 19.5801L40.1543 23.0665C40.0176 23.6543 39.3887 24.0098 38.8145 23.8458L37.1191 23.3946L36.75 24.7618L38.8555 25.3223C39.4434 25.4727 39.7852 26.0743 39.6348 26.6622L38.582 30.5723C40.0586 31.1876 41.3164 32.2266 42.2051 33.5254C52.1992 33.7305 61.127 39.2403 61.8242 49.918C62.4121 58.9961 56.3828 66.7344 47.4004 68.3067V68.5801H60.5117C61.1133 68.5801 61.6055 69.0723 61.6191 69.6875ZM41.4258 38.1739C41.4258 34.8379 38.7187 32.1309 35.3828 32.1309C32.0469 32.1309 29.3398 34.8379 29.3398 38.1739C29.3398 41.5098 32.0469 44.2168 35.3828 44.2168C38.7187 44.2168 41.4395 41.5098 41.4258 38.1739Z" fill="#5F8D6E"/>
</g>
<defs>
<clipPath id="clip0_167_116">
<rect width="70" height="70" fill="white" transform="translate(0 15)"/>
</clipPath>
</defs>
</svg>
