<svg width="70" height="85" viewBox="0 0 70 85" fill="none" xmlns="http://www.w3.org/2000/svg">
<path d="M0 24C0 10.7452 10.7452 0 24 0H26C39.2548 0 50 10.7452 50 24V85H0V24Z" fill="#F0EEE0"/>
<g clip-path="url(#clip0_167_93)">
<path d="M28.0001 22C20.0384 22 13.5625 28.4759 13.5625 36.4376V43.6564C13.5625 46.1896 15.6231 48.2502 18.1563 48.2502H28.0001C22.9155 48.2502 18.8125 44.1473 18.8125 39.0626C24.9367 39.0626 28.0001 34.4689 28.0001 29.8751C28.0001 34.4689 31.0635 39.0626 37.1877 39.0626C37.1877 44.1473 33.0848 48.2502 28.0001 48.2502H37.8439C40.3771 48.2502 42.4377 46.1896 42.4377 43.6564V36.4376C42.4377 28.4759 35.9618 22 28.0001 22Z" fill="#5F8D6E"/>
<path d="M68.142 62.4096L58.3375 61.8557L54.7832 52.1694C54.1532 50.4553 51.7146 50.4553 51.0872 52.1694L47.5329 61.8557L37.7285 62.4096C35.9566 62.512 35.2163 64.7275 36.5603 65.872L44.2569 72.4424L41.6975 82.5488C41.2539 84.297 43.2121 85.6752 44.7136 84.6593L52.9352 79.0654L61.1568 84.6593C62.6452 85.6699 64.6192 84.3075 64.1729 82.5488L61.6135 72.4424L69.3101 65.872C70.6541 64.7249 69.9139 62.5094 68.142 62.4096Z" fill="#5F8D6E"/>
<path d="M39.8416 73.8468C34.5496 69.3265 30.6567 67.2134 32.2448 62.4883C33.8723 57.6793 38.621 58.4117 44.7294 58.0652L45.5248 55.8969C43.8028 54.4243 41.5978 53.5002 39.1565 53.5002H16.8438C11.4153 53.5002 7 57.9155 7 63.3441V72.5317C7 73.6184 7.88201 74.5004 8.96877 74.5004H39.6763L39.8416 73.8468Z" fill="#5F8D6E"/>
</g>
<defs>
<clipPath id="clip0_167_93">
<rect width="70" height="70" fill="white" transform="translate(0 15)"/>
</clipPath>
</defs>
</svg>
