<svg width="70" height="85" viewBox="0 0 70 85" fill="none" xmlns="http://www.w3.org/2000/svg">
<path d="M0 24C0 10.7452 10.7452 0 24 0H26C39.2548 0 50 10.7452 50 24V85H0V24Z" fill="#F0EEE0"/>
<path d="M28.6522 41.9902C23.7284 41.9902 19.7227 45.9961 19.7227 50.9198C19.7227 55.8435 23.7284 59.8494 28.6522 59.8494C33.5761 59.8494 37.5818 55.8437 37.5818 50.9198C37.5818 45.996 33.5761 41.9902 28.6522 41.9902ZM32.2324 52.7113H30.4453V54.5C30.4453 55.487 29.6452 56.2871 28.6582 56.2871C27.6712 56.2871 26.8711 55.487 26.8711 54.5V52.7113H25.084C24.097 52.7113 23.2969 51.9112 23.2969 50.9242C23.2969 49.9373 24.097 49.1371 25.084 49.1371H26.8711V47.3486C26.8711 46.3616 27.6712 45.5615 28.6582 45.5615C29.6452 45.5615 30.4453 46.3616 30.4453 47.3486V49.1371H32.2324C33.2194 49.1371 34.0195 49.9373 34.0195 50.9242C34.0195 51.9112 33.2194 52.7113 32.2324 52.7113Z" fill="#5F8D6E"/>
<path d="M41.1561 74.1582V70.584H42.9432C45.8994 70.584 48.3045 68.1789 48.3045 65.2227V36.6289C48.3045 33.6727 45.8994 31.2676 42.9432 31.2676H34.0076V29.3613C34.0076 26.4051 31.6025 24 28.6463 24C25.6901 24 23.285 26.4051 23.285 29.3613V31.2676H14.3613C11.4051 31.2676 9 33.6727 9 36.6289V65.2227C9 68.1789 11.4051 70.584 14.3613 70.584H16.1365V74.1582C16.1365 75.1452 16.9367 75.9453 17.9236 75.9453H25.0721C26.059 75.9453 26.8592 75.1452 26.8592 74.1582V70.584H30.4513V74.1582C30.4513 75.1452 31.2514 75.9453 32.2384 75.9453H39.3689C40.3559 75.9453 41.1561 75.1452 41.1561 74.1582ZM26.8592 29.3613C26.8592 28.3759 27.6609 27.5742 28.6463 27.5742C29.6317 27.5742 30.4334 28.3759 30.4334 29.3613V31.2676H26.8592V29.3613ZM28.6522 63.4236C21.7576 63.4236 16.1484 57.8145 16.1484 50.9198C16.1484 44.0252 21.7576 38.416 28.6522 38.416C35.5469 38.416 41.1561 44.0253 41.1561 50.9198C41.1561 57.8144 35.5469 63.4236 28.6522 63.4236Z" fill="#5F8D6E"/>
<path d="M59.0331 56.168H69.7498V67.1213H59.0331V56.168Z" fill="#5F8D6E"/>
<path d="M62.6014 36.6289V52.5938H66.1756V36.6289C66.1756 33.673 63.7701 31.2676 60.8143 31.2676H57.24C54.2842 31.2676 51.8787 33.673 51.8787 36.6289V79.6387C51.8787 80.624 51.0769 81.4258 50.0916 81.4258H39.3809C38.3956 81.4258 37.5938 80.624 37.5938 79.6387V79.5195H34.0195V79.6387C34.0195 82.5946 36.425 85 39.3809 85H50.0916C53.0475 85 55.4529 82.5946 55.4529 79.6387V36.6289C55.4529 35.6436 56.2547 34.8418 57.24 34.8418H60.8143C61.7996 34.8418 62.6014 35.6436 62.6014 36.6289Z" fill="#5F8D6E"/>
<path d="M62.6133 75.9452C62.6133 76.9322 63.4134 77.7324 64.4004 77.7324C65.3874 77.7324 66.1875 76.9322 66.1875 75.9452V70.6954H62.6133V75.9452Z" fill="#5F8D6E"/>
</svg>
