<svg width="70" height="85" viewBox="0 0 70 85" fill="none" xmlns="http://www.w3.org/2000/svg">
<path d="M0 24C0 10.7452 10.7452 0 24 0H26C39.2548 0 50 10.7452 50 24V85H0V24Z" fill="#F0EEE0"/>
<g clip-path="url(#clip0_167_160)">
<path d="M49.0965 28.5625C50.3046 28.5625 51.284 27.5831 51.284 26.375C51.284 25.1669 50.3046 24.1875 49.0965 24.1875C47.8884 24.1875 46.909 25.1669 46.909 26.375C46.909 27.5831 47.8884 28.5625 49.0965 28.5625Z" fill="#5F8D6E"/>
<path d="M26.6883 43.7192C27.2021 39.7391 28.0726 35.9559 29.2278 32.6714C21.9941 31.0581 16.4043 31.8527 14.1478 34.8611C11.6134 38.2394 13.4128 44.3414 18.8278 50.9529C21.2406 48.3256 23.87 45.9059 26.6883 43.7192Z" fill="#5F8D6E"/>
<path d="M29.2272 72.5785C28.0716 69.2934 27.2011 65.5101 26.6875 61.5293C23.8689 59.3434 21.2394 56.9241 18.8268 54.2969C18.6374 54.5277 18.452 54.7587 18.2705 54.9898C18.9636 55.6771 19.4069 56.5766 19.5297 57.5449C19.6524 58.5133 19.4477 59.4949 18.9481 60.3335C18.4484 61.1721 17.6826 61.8194 16.7725 62.1723C15.8624 62.5253 14.8604 62.5636 13.926 62.2812C12.944 64.8379 12.3758 68.0258 14.1472 70.3887C16.4038 73.3972 21.9938 74.1921 29.2272 72.5785Z" fill="#5F8D6E"/>
<path d="M15.1902 60.2812C16.3984 60.2812 17.3777 59.3019 17.3777 58.0938C17.3777 56.8856 16.3984 55.9062 15.1902 55.9062C13.9821 55.9062 13.0027 56.8856 13.0027 58.0938C13.0027 59.3019 13.9821 60.2812 15.1902 60.2812Z" fill="#5F8D6E"/>
<path d="M20.264 52.625C22.1562 54.7129 24.1954 56.6627 26.366 58.4594C26.209 56.5395 26.1277 54.5869 26.1277 52.625C26.1277 50.663 26.209 48.7097 26.3662 46.7898C24.1956 48.5869 22.1564 50.5369 20.264 52.625Z" fill="#5F8D6E"/>
<path d="M32.0001 39.9161C34.2279 38.4581 36.5292 37.1158 38.8951 35.8946C36.45 34.8204 33.9318 33.921 31.3594 33.2032C30.3757 36.0172 29.6436 38.9128 29.1719 41.8562C30.0948 41.1932 31.0375 40.5465 32.0001 39.9161Z" fill="#5F8D6E"/>
<path d="M56.1929 61.5307C55.6791 65.5109 54.8087 69.2939 53.6535 72.5783C54.0716 72.6716 54.4854 72.7575 54.8949 72.836C55.238 72.0023 55.8303 71.295 56.5907 70.8108C57.3512 70.3266 58.2426 70.0891 59.1432 70.1309C60.0437 70.1726 60.9094 70.4915 61.6218 71.044C62.3342 71.5965 62.8585 72.3556 63.123 73.2174C65.6969 72.8346 67.6257 71.8672 68.733 70.3893C71.2678 67.0106 69.4684 60.9085 64.0534 54.2975C61.6406 56.9247 59.0112 59.3443 56.1929 61.5307Z" fill="#5F8D6E"/>
<path d="M58.9402 76.6875C60.1484 76.6875 61.1277 75.7081 61.1277 74.5C61.1277 73.2919 60.1484 72.3125 58.9402 72.3125C57.7321 72.3125 56.7527 73.2919 56.7527 74.5C56.7527 75.7081 57.7321 76.6875 58.9402 76.6875Z" fill="#5F8D6E"/>
<path d="M50.8804 65.3338C48.6526 66.7918 46.3513 68.1342 43.9854 69.3554C46.4305 70.4296 48.9487 71.329 51.5211 72.0467C52.5048 69.2328 53.2369 66.3372 53.7086 63.3938C52.7857 64.0568 51.843 64.7035 50.8804 65.3338Z" fill="#5F8D6E"/>
<path d="M41.4402 68.1814C44.2845 66.7985 47.0377 65.2358 49.6833 63.5029C51.2166 62.5003 52.7102 61.444 54.131 60.36C54.4214 57.7919 54.5664 55.2095 54.5652 52.625C54.5664 50.0406 54.4214 47.4581 54.131 44.89C52.7102 43.806 51.2167 42.7498 49.6833 41.7471C47.0377 40.0142 44.2845 38.4515 41.4402 37.0686C38.596 38.4515 35.8428 40.0142 33.1972 41.7471C31.6639 42.7497 30.1702 43.806 28.7495 44.89C28.1705 50.0304 28.1705 55.2196 28.7495 60.36C30.1702 61.444 31.6638 62.5002 33.1972 63.5029C35.8428 65.2359 38.596 66.7985 41.4402 68.1814ZM41.4402 43.875C43.1708 43.875 44.8626 44.3882 46.3015 45.3497C47.7404 46.3111 48.8619 47.6777 49.5242 49.2765C50.1865 50.8754 50.3597 52.6347 50.0221 54.3321C49.6845 56.0294 48.8511 57.5885 47.6274 58.8122C46.4037 60.0359 44.8446 60.8693 43.1473 61.2069C41.45 61.5445 39.6906 61.3712 38.0918 60.709C36.4929 60.0467 35.1264 58.9252 34.1649 57.4862C33.2034 56.0473 32.6902 54.3556 32.6902 52.625C32.6929 50.3052 33.6156 48.0811 35.2559 46.4407C36.8963 44.8003 39.1204 43.8776 41.4402 43.875Z" fill="#5F8D6E"/>
<path d="M62.6165 52.625C60.7243 50.5371 58.6851 48.5872 56.5144 46.7905C56.6715 48.7105 56.7527 50.6631 56.7527 52.625C56.7527 54.5869 56.6715 56.5402 56.5143 58.4602C58.6849 56.663 60.7241 54.713 62.6165 52.625Z" fill="#5F8D6E"/>
<path d="M32.1602 74.095C34.6538 79.931 37.9996 83.25 41.4402 83.25C44.8809 83.25 48.2267 79.931 50.7203 74.0952C47.537 73.1869 44.4333 72.0199 41.4402 70.6058C38.4472 72.02 35.3435 73.1869 32.1602 74.095Z" fill="#5F8D6E"/>
<path d="M64.0535 50.9522C69.4685 44.3413 71.2679 38.2394 68.7335 34.8612C66.4777 31.8534 60.887 31.058 53.6535 32.6714C54.809 35.9565 55.6795 39.7398 56.1932 43.7206C59.0116 45.9063 61.641 48.3253 64.0535 50.9522Z" fill="#5F8D6E"/>
<path d="M50.7183 31.1555C50.6288 30.9465 50.5377 30.7401 50.4448 30.5363C49.5545 30.8259 48.5947 30.8219 47.7067 30.5251C46.8188 30.2283 46.0495 29.6542 45.5123 28.8874C44.9751 28.1206 44.6982 27.2016 44.7224 26.2657C44.7466 25.3298 45.0706 24.4263 45.6468 23.6883C44.2828 22.5685 42.8714 22 41.4402 22C37.9996 22 34.6538 25.319 32.1602 31.1548C35.3435 32.0631 38.4471 33.2301 41.4402 34.6442C44.4327 33.2304 47.5357 32.0636 50.7183 31.1555Z" fill="#5F8D6E"/>
<path d="M50.8804 39.9163C51.8408 40.5443 52.7837 41.1909 53.709 41.8563C53.2373 38.9129 52.5053 36.0172 51.5215 33.2032C48.9491 33.921 46.4309 34.8204 43.9858 35.8946C46.3515 37.1158 48.6528 38.4582 50.8804 39.9163Z" fill="#5F8D6E"/>
<path d="M41.4402 59.1875C45.0646 59.1875 48.0027 56.2494 48.0027 52.625C48.0027 49.0006 45.0646 46.0625 41.4402 46.0625C37.8159 46.0625 34.8777 49.0006 34.8777 52.625C34.8777 56.2494 37.8159 59.1875 41.4402 59.1875Z" fill="#5F8D6E"/>
<path d="M32.0001 65.3337C31.0396 64.7058 30.0967 64.0591 29.1715 63.3937C29.6432 66.3371 30.3752 69.2328 31.359 72.0467C33.9314 71.3289 36.4496 70.4296 38.8947 69.3554C36.5289 68.1341 34.2277 66.7918 32.0001 65.3337Z" fill="#5F8D6E"/>
</g>
<defs>
<clipPath id="clip0_167_160">
<rect width="70" height="70" fill="white" transform="translate(0 13)"/>
</clipPath>
</defs>
</svg>
