<svg width="70" height="85" viewBox="0 0 70 85" fill="none" xmlns="http://www.w3.org/2000/svg">
<path d="M0 24C0 10.7452 10.7452 0 24 0H26C39.2548 0 50 10.7452 50 24V85H0V24Z" fill="#F0EEE0"/>
<path d="M22.7303 69.9765L28.1433 64.5636C27.5771 64.2287 27.1046 63.7563 26.7698 63.1901L21.3568 68.603C21.923 68.9379 22.3955 69.4103 22.7303 69.9765Z" fill="#5F8D6E"/>
<path d="M39.881 49.5H30.1191C29.0409 49.5 28.1667 50.3741 28.1667 51.4524V61.2143C28.1667 62.2925 29.0409 63.1666 30.1191 63.1666H39.881C40.9593 63.1666 41.8334 62.2925 41.8334 61.2143V51.4524C41.8334 50.3741 40.9593 49.5 39.881 49.5Z" fill="#5F8D6E"/>
<path d="M22.7303 42.6901C22.3955 43.2563 21.923 43.7287 21.3568 44.0636L26.7698 49.4765C27.1046 48.9103 27.5771 48.4379 28.1433 48.103L22.7303 42.6901Z" fill="#5F8D6E"/>
<path d="M19.381 70.0001H9.61913C8.54086 70.0001 7.66675 70.8742 7.66675 71.9525V81.7144C7.66675 82.7927 8.54086 83.6668 9.61913 83.6668H19.381C20.4593 83.6668 21.3334 82.7927 21.3334 81.7144V71.9525C21.3334 70.8742 20.4593 70.0001 19.381 70.0001Z" fill="#5F8D6E"/>
<path d="M48.6433 68.603L43.2303 63.1901C42.8955 63.7563 42.423 64.2287 41.8568 64.5636L47.2698 69.9765C47.6046 69.4103 48.0771 68.9379 48.6433 68.603Z" fill="#5F8D6E"/>
<path d="M34.0239 65.119H35.9762V71.9523H34.0239V65.119Z" fill="#5F8D6E"/>
<path d="M60.3809 51.4523H54.5238C53.4455 51.4523 52.5714 52.3264 52.5714 53.4046V59.2618C52.5714 60.3401 53.4455 61.2142 54.5238 61.2142H60.3809C61.4592 61.2142 62.3333 60.3401 62.3333 59.2618V53.4046C62.3333 52.3264 61.4592 51.4523 60.3809 51.4523Z" fill="#5F8D6E"/>
<path d="M43.2303 49.4765L48.6433 44.0636C48.0771 43.7287 47.6046 43.2563 47.2698 42.6901L41.8568 48.103C42.423 48.4379 42.8955 48.9103 43.2303 49.4765Z" fill="#5F8D6E"/>
<path d="M43.7857 55.3571H50.619V57.3094H43.7857V55.3571Z" fill="#5F8D6E"/>
<path d="M60.381 29H50.6191C49.5408 29 48.6667 29.8741 48.6667 30.9524V40.7143C48.6667 41.7925 49.5408 42.6666 50.6191 42.6666H60.381C61.4592 42.6666 62.3333 41.7925 62.3333 40.7143V30.9524C62.3333 29.8741 61.4592 29 60.381 29Z" fill="#5F8D6E"/>
<path d="M19.381 55.3571H26.2144V57.3094H19.381V55.3571Z" fill="#5F8D6E"/>
<path d="M15.4763 51.4523H9.61913C8.54086 51.4523 7.66675 52.3264 7.66675 53.4046V59.2618C7.66675 60.3401 8.54086 61.2142 9.61913 61.2142H15.4763C16.5545 61.2142 17.4286 60.3401 17.4286 59.2618V53.4046C17.4286 52.3264 16.5545 51.4523 15.4763 51.4523Z" fill="#5F8D6E"/>
<path d="M19.381 29H9.61913C8.54086 29 7.66675 29.8741 7.66675 30.9524V40.7143C7.66675 41.7925 8.54086 42.6666 9.61913 42.6666H19.381C20.4593 42.6666 21.3334 41.7925 21.3334 40.7143V30.9524C21.3334 29.8741 20.4593 29 19.381 29Z" fill="#5F8D6E"/>
<path d="M60.381 70.0001H50.6191C49.5408 70.0001 48.6667 70.8742 48.6667 71.9525V81.7144C48.6667 82.7927 49.5408 83.6668 50.6191 83.6668H60.381C61.4592 83.6668 62.3333 82.7927 62.3333 81.7144V71.9525C62.3333 70.8742 61.4592 70.0001 60.381 70.0001Z" fill="#5F8D6E"/>
<path d="M37.9286 73.9048H32.0715C30.9932 73.9048 30.1191 74.7789 30.1191 75.8572V81.7143C30.1191 82.7926 30.9932 83.6667 32.0715 83.6667H37.9286C39.0069 83.6667 39.881 82.7926 39.881 81.7143V75.8572C39.881 74.7789 39.0069 73.9048 37.9286 73.9048Z" fill="#5F8D6E"/>
<path d="M37.9286 29H32.0715C30.9932 29 30.1191 29.8741 30.1191 30.9524V36.8095C30.1191 37.8878 30.9932 38.7619 32.0715 38.7619H37.9286C39.0069 38.7619 39.881 37.8878 39.881 36.8095V30.9524C39.881 29.8741 39.0069 29 37.9286 29Z" fill="#5F8D6E"/>
<path d="M34.0239 40.7142H35.9762V47.5476H34.0239V40.7142Z" fill="#5F8D6E"/>
</svg>
