<svg width="70" height="85" viewBox="0 0 70 85" fill="none" xmlns="http://www.w3.org/2000/svg">
<path d="M0 24C0 10.7452 10.7452 0 24 0H26C39.2548 0 50 10.7452 50 24V85H0V24Z" fill="#F0EEE0"/>
<path d="M28.248 35.334H37.9277C39.837 35.334 41.3848 33.7863 41.3848 31.877V29.457C41.3848 27.5477 39.837 26 37.9277 26H28.248C26.3387 26 24.791 27.5477 24.791 29.457V31.877C24.791 33.7863 26.3387 35.334 28.248 35.334Z" fill="#5F8D6E"/>
<path d="M48.9902 30.7246H44.8418V31.877C44.8418 35.6889 41.7397 38.791 37.9277 38.791H28.248C24.4361 38.791 21.334 35.6889 21.334 31.877V30.7246H17.1855C14.3266 30.7246 12 33.0512 12 35.9102V76.9336C12 79.7926 14.3266 82.1191 17.1855 82.1191H46.2027L46.205 74.6911C45.7049 74.4284 45.2209 74.1369 44.7542 73.8223H17.416C16.4619 73.8223 15.6875 73.0479 15.6875 72.0938C15.6875 71.1396 16.4619 70.3652 17.416 70.3652H41.0863C40.1829 69.1818 39.4477 67.8635 38.9141 66.4473H17.416C16.4619 66.4473 15.6875 65.6729 15.6875 64.7188C15.6875 63.7646 16.4619 62.9902 17.416 62.9902H38.0545C37.8874 61.6846 37.8839 60.3848 38.0499 59.0723H17.416C16.4619 59.0723 15.6875 58.2979 15.6875 57.3438C15.6875 56.3896 16.4619 55.6152 17.416 55.6152H38.9061C41.2188 49.4537 47.2894 45.258 54.1758 45.6106V35.9102C54.1758 33.0512 51.8492 30.7246 48.9902 30.7246ZM23.8691 48.9316H22.832V49.9688C22.832 50.9229 22.0576 51.6973 21.1035 51.6973C20.1494 51.6973 19.375 50.9229 19.375 49.9688V48.9316H18.3379C17.3837 48.9316 16.6094 48.1573 16.6094 47.2031C16.6094 46.249 17.3837 45.4746 18.3379 45.4746H19.375V44.4375C19.375 43.4834 20.1494 42.709 21.1035 42.709C22.0576 42.709 22.832 43.4834 22.832 44.4375V45.4746H23.8691C24.8233 45.4746 25.5976 46.249 25.5976 47.2031C25.5976 48.1573 24.8233 48.9316 23.8691 48.9316ZM39.541 48.9316H31.2441C30.29 48.9316 29.5156 48.1573 29.5156 47.2031C29.5156 46.249 30.29 45.4746 31.2441 45.4746H39.541C40.4951 45.4746 41.2695 46.249 41.2695 47.2031C41.2695 48.1573 40.4951 48.9316 39.541 48.9316Z" fill="#5F8D6E"/>
<path d="M49.662 76.0048V81.3125C49.662 83.3486 51.3133 85 53.3495 85C55.3869 85 57.037 83.3486 57.037 81.3125V76.0105C54.6868 76.5872 52.136 76.6161 49.662 76.0048Z" fill="#5F8D6E"/>
<path d="M53.3596 72.9965C59.9731 72.9965 65.3344 67.6352 65.3344 61.0217C65.3344 54.4082 59.9731 49.0469 53.3596 49.0469C46.7461 49.0469 41.3848 54.4082 41.3848 61.0217C41.3848 67.6352 46.7461 72.9965 53.3596 72.9965Z" fill="#5F8D6E"/>
</svg>
