<svg width="36" height="36" viewBox="0 0 36 36" xmlns="http://www.w3.org/2000/svg">
<path d="M14.5078 11.1641H17.7891C18.4363 11.1641 18.9609 10.6394 18.9609 9.99219V9.17188C18.9609 8.52465 18.4363 8 17.7891 8H14.5078C13.8606 8 13.3359 8.52465 13.3359 9.17188V9.99219C13.3359 10.6394 13.8606 11.1641 14.5078 11.1641Z" />
<path d="M21.5391 9.60156H20.1328V9.99219C20.1328 11.2844 19.0813 12.3359 17.7891 12.3359H14.5078C13.2156 12.3359 12.1641 11.2844 12.1641 9.99219V9.60156H10.7578C9.78867 9.60156 9 10.3902 9 11.3594V25.2656C9 26.2348 9.78867 27.0234 10.7578 27.0234H20.5941L20.5949 24.5055C20.4254 24.4164 20.2613 24.3176 20.1031 24.2109H10.8359C10.5125 24.2109 10.25 23.9484 10.25 23.625C10.25 23.3016 10.5125 23.0391 10.8359 23.0391H18.8598C18.5535 22.6379 18.3043 22.191 18.1234 21.7109H10.8359C10.5125 21.7109 10.25 21.4484 10.25 21.125C10.25 20.8016 10.5125 20.5391 10.8359 20.5391H17.832C17.7754 20.0965 17.7742 19.6559 17.8305 19.2109H10.8359C10.5125 19.2109 10.25 18.9484 10.25 18.625C10.25 18.3016 10.5125 18.0391 10.8359 18.0391H18.1207C18.9047 15.9504 20.9625 14.5281 23.2969 14.6477V11.3594C23.2969 10.3902 22.5082 9.60156 21.5391 9.60156ZM13.0234 15.7734H12.6719V16.125C12.6719 16.4484 12.4094 16.7109 12.0859 16.7109C11.7625 16.7109 11.5 16.4484 11.5 16.125V15.7734H11.1484C10.825 15.7734 10.5625 15.5109 10.5625 15.1875C10.5625 14.8641 10.825 14.6016 11.1484 14.6016H11.5V14.25C11.5 13.9266 11.7625 13.6641 12.0859 13.6641C12.4094 13.6641 12.6719 13.9266 12.6719 14.25V14.6016H13.0234C13.3469 14.6016 13.6094 14.8641 13.6094 15.1875C13.6094 15.5109 13.3469 15.7734 13.0234 15.7734ZM18.3359 15.7734H15.5234C15.2 15.7734 14.9375 15.5109 14.9375 15.1875C14.9375 14.8641 15.2 14.6016 15.5234 14.6016H18.3359C18.6594 14.6016 18.9219 14.8641 18.9219 15.1875C18.9219 15.5109 18.6594 15.7734 18.3359 15.7734Z" />
<path d="M21.7668 24.9507V26.7499C21.7668 27.4401 22.3265 27.9999 23.0168 27.9999C23.7074 27.9999 24.2668 27.4401 24.2668 26.7499V24.9526C23.4701 25.1481 22.6054 25.1579 21.7668 24.9507Z" />
<path d="M23.0202 23.931C25.2621 23.931 27.0795 22.1136 27.0795 19.8718C27.0795 17.6299 25.2621 15.8125 23.0202 15.8125C20.7783 15.8125 18.9609 17.6299 18.9609 19.8718C18.9609 22.1136 20.7783 23.931 23.0202 23.931Z" />
</svg>
