<svg width="36" height="36" viewBox="0 0 36 36" xmlns="http://www.w3.org/2000/svg">
<path d="M13.5288 29.2C13.8709 29.2 14.2212 29.198 14.5791 29.198H21.3543C21.7117 29.198 22.062 29.2 22.4041 29.2C25.539 29.2 27.9344 29.0396 27.9344 25.7624C27.9344 22.3323 25.3111 19.5163 21.9609 19.2102C21.9342 20.4102 17.9678 23.3717 17.9678 23.3717C17.9678 23.3717 14.0004 20.4105 13.9735 19.2105C10.6238 19.5163 8 22.3323 8 25.7624C8 29.0396 10.3944 29.2 13.5288 29.2ZM20.9271 24.7247C20.9271 24.627 21.0151 24.5483 21.1247 24.5483H22.1962V23.4773C22.1962 23.3688 22.2744 23.2797 22.3721 23.2797H23.4295C23.5267 23.2797 23.6054 23.368 23.6054 23.4773V24.5486H24.6764C24.785 24.5486 24.8738 24.6273 24.8738 24.7249V25.7819C24.8738 25.8796 24.7857 25.9583 24.6764 25.9583H23.6052V27.0293C23.6052 27.1383 23.5262 27.2266 23.4288 27.2266H22.3718C22.2741 27.2266 22.1954 27.1386 22.1954 27.0293V25.958H21.1244C21.0154 25.958 20.9268 25.8793 20.9268 25.7817L20.9271 24.7247Z"/>
<path d="M17.969 20.0714C20.9991 20.0714 23.4552 15.5152 23.4552 12.4854C23.4552 9.45607 20.9991 7 17.969 7C14.9395 7 12.4834 9.45607 12.4834 12.4854C12.4834 15.5152 14.9395 20.0714 17.969 20.0714Z" />
</svg>
