<svg width="24" height="24" viewBox="0 0 24 24" fill="none" xmlns="http://www.w3.org/2000/svg">
<path d="M21.4286 11.5C20.1845 9.45139 18.6254 7.91927 16.7511 6.90365C17.2504 7.80642 17.5 8.78299 17.5 9.83333C17.5 11.4392 16.9619 12.8129 15.8856 13.9544C14.8093 15.0959 13.5141 15.6667 12 15.6667C10.4859 15.6667 9.19066 15.0959 8.1144 13.9544C7.03813 12.8129 6.5 11.4392 6.5 9.83333C6.5 8.78299 6.74963 7.80642 7.24888 6.90365C5.37463 7.91927 3.81548 9.45139 2.57143 11.5C3.65997 13.2795 5.02474 14.6966 6.66574 15.7513C8.30673 16.806 10.0848 17.3333 12 17.3333C13.9152 17.3333 15.6933 16.806 17.3343 15.7513C18.9753 14.6966 20.34 13.2795 21.4286 11.5ZM12.5893 6.5C12.5893 6.32639 12.532 6.17882 12.4174 6.05729C12.3028 5.93576 12.1637 5.875 12 5.875C10.9769 5.875 10.0991 6.26345 9.36663 7.04036C8.63411 7.81727 8.26786 8.74826 8.26786 9.83333C8.26786 10.0069 8.32515 10.1545 8.43973 10.276C8.55432 10.3976 8.69345 10.4583 8.85714 10.4583C9.02083 10.4583 9.15997 10.3976 9.27455 10.276C9.38914 10.1545 9.44643 10.0069 9.44643 9.83333C9.44643 9.08681 9.69606 8.44878 10.1953 7.91927C10.6946 7.38976 11.2961 7.125 12 7.125C12.1637 7.125 12.3028 7.06424 12.4174 6.94271C12.532 6.82118 12.5893 6.67361 12.5893 6.5ZM23 11.5C23 11.7951 22.9182 12.0946 22.7545 12.3984C21.6086 14.395 20.0679 15.9944 18.1323 17.1966C16.1966 18.3989 14.1525 19 12 19C9.84747 19 7.80339 18.3967 5.86775 17.1901C3.93211 15.9835 2.39137 14.3863 1.24554 12.3984C1.08185 12.0946 1 11.7951 1 11.5C1 11.2049 1.08185 10.9054 1.24554 10.6016C2.39137 8.61372 3.93211 7.01649 5.86775 5.8099C7.80339 4.6033 9.84747 4 12 4C14.1525 4 16.1966 4.6033 18.1323 5.8099C20.0679 7.01649 21.6086 8.61372 22.7545 10.6016C22.9182 10.9054 23 11.2049 23 11.5Z" fill="#8D8D8D"/>
</svg>
