<svg width="16" height="16" viewBox="0 0 16 16" fill="none" xmlns="http://www.w3.org/2000/svg">
<path d="M14.9422 7.79112C13.4445 5.02224 10.8178 3.34668 7.91113 3.34668C5.00447 3.34668 2.37335 5.02224 0.88891 7.79112L0.764465 8.00001L0.880021 8.21335C2.3778 10.9822 5.00447 12.6578 7.91113 12.6578C10.8178 12.6578 13.4489 11.0045 14.9422 8.21335L15.0578 8.00001L14.9422 7.79112ZM7.91113 11.7467C5.40891 11.7467 3.11113 10.3511 1.7778 8.00001C3.11113 5.6489 5.40891 4.25335 7.91113 4.25335C10.4134 4.25335 12.6845 5.65335 14.04 8.00001C12.6845 10.3511 10.4089 11.7467 7.91113 11.7467Z" fill="#8D8D8D"/>
<path d="M8.04001 4.96444C7.43739 4.96883 6.8496 5.15172 6.35086 5.48998C5.85212 5.82825 5.46482 6.30673 5.23786 6.86499C5.0109 7.42325 4.95447 8.03624 5.07569 8.62656C5.19692 9.21687 5.49036 9.75801 5.91896 10.1816C6.34755 10.6053 6.89208 10.8924 7.48376 11.0067C8.07545 11.1211 8.68774 11.0575 9.24332 10.8241C9.7989 10.5906 10.2728 10.1978 10.6053 9.69514C10.9377 9.1925 11.1137 8.60262 11.1111 7.99999C11.1094 7.59885 11.0285 7.202 10.8731 6.83218C10.7177 6.46236 10.4909 6.12683 10.2056 5.84484C9.92026 5.56284 9.58212 5.33992 9.21051 5.18884C8.8389 5.03777 8.44114 4.96151 8.04001 4.96444ZM8.04001 10.1733C7.61434 10.1689 7.19946 10.0389 6.84748 9.79946C6.49549 9.56006 6.2221 9.22198 6.06162 8.8277C5.90115 8.43342 5.86076 8.00051 5.94552 7.58335C6.03028 7.16618 6.23642 6.78337 6.53804 6.48298C6.83966 6.18258 7.22331 5.97801 7.64082 5.89495C8.05833 5.8119 8.49106 5.85406 8.88469 6.01614C9.27831 6.17822 9.61527 6.45299 9.85324 6.80595C10.0912 7.15891 10.2196 7.57431 10.2222 7.99999C10.2234 8.28648 10.1677 8.57035 10.0584 8.83515C9.949 9.09995 9.78816 9.3404 9.58517 9.54257C9.38218 9.74473 9.14107 9.90459 8.87583 10.0129C8.61058 10.1211 8.32649 10.1757 8.04001 10.1733Z" fill="#8D8D8D"/>
</svg>
