<svg width="24" height="24" viewBox="0 0 24 24" fill="none" xmlns="http://www.w3.org/2000/svg">
<path d="M18.8139 17.8197L16.2165 15.2433C17.2247 13.9862 17.713 12.3906 17.5809 10.7845C17.4488 9.17843 16.7063 7.68402 15.5062 6.60855C14.3061 5.53307 12.7396 4.95828 11.1287 5.00236C9.5178 5.04644 7.98503 5.70604 6.84553 6.84553C5.70604 7.98503 5.04644 9.5178 5.00236 11.1287C4.95828 12.7396 5.53307 14.3061 6.60855 15.5062C7.68402 16.7063 9.17843 17.4488 10.7845 17.5809C12.3906 17.713 13.9862 17.2247 15.2433 16.2165L17.8197 18.7929C17.8848 18.8585 17.9623 18.9106 18.0476 18.9462C18.1329 18.9817 18.2244 19 18.3168 19C18.4093 19 18.5008 18.9817 18.5861 18.9462C18.6714 18.9106 18.7488 18.8585 18.8139 18.7929C18.9401 18.6624 19.0106 18.4879 19.0106 18.3063C19.0106 18.1248 18.9401 17.9503 18.8139 17.8197ZM11.3157 16.2165C10.3464 16.2165 9.39886 15.9291 8.59293 15.3905C7.787 14.852 7.15885 14.0866 6.78792 13.1911C6.41699 12.2956 6.31993 11.3102 6.50903 10.3596C6.69813 9.40891 7.16489 8.53567 7.85028 7.85028C8.53567 7.16489 9.40891 6.69813 10.3596 6.50903C11.3102 6.31993 12.2956 6.41699 13.1911 6.78792C14.0866 7.15885 14.852 7.787 15.3905 8.59293C15.9291 9.39886 16.2165 10.3464 16.2165 11.3157C16.2165 12.6154 15.7001 13.862 14.7811 14.7811C13.862 15.7001 12.6154 16.2165 11.3157 16.2165Z" fill="#8D8D8D"/>
</svg>
