<svg width="36" height="36" viewBox="0 0 36 36" fill="none" xmlns="http://www.w3.org/2000/svg">
<path d="M19.5076 19.1069C19.2784 19.1069 19.0926 18.9211 19.0926 18.6919V16.7954H17.0758V18.6919C17.0758 18.9211 16.89 19.1069 16.6608 19.1069H14.7643V21.1196H16.6608C16.89 21.1196 17.0758 21.3054 17.0758 21.5346V23.4311H19.0885V21.5346C19.0885 21.3054 19.2743 21.1196 19.5034 21.1196H21.4041V19.1069H19.5076Z" fill="#5F5F5F"/>
<path d="M25.305 12.8572H10.8634C9.54375 12.8572 8 13.6083 8 15.7206V24.7383C8 26.8506 9.54375 27.6017 10.8634 27.6017H25.305C26.6246 27.6017 28.1684 26.8506 28.1684 24.7383V15.7206C28.1684 13.6083 26.6288 12.8572 25.305 12.8572ZM22.2341 21.3312C22.2341 21.6727 21.9572 21.9496 21.6157 21.9496H19.9226V23.6427C19.9226 23.9842 19.6457 24.261 19.3043 24.261H16.8641C16.5226 24.261 16.2458 23.9842 16.2458 23.6427V21.9496H14.5568C14.2153 21.9518 13.9366 21.6769 13.9343 21.3354C13.9343 21.334 13.9343 21.3326 13.9343 21.3312V18.8952C13.9343 18.5538 14.2112 18.2769 14.5527 18.2769H16.2458V16.5838C16.2458 16.2423 16.5226 15.9654 16.8641 15.9654H19.3001C19.6416 15.9654 19.9184 16.2423 19.9184 16.5838V18.2769H21.6116C21.9531 18.2746 22.2318 18.5496 22.2341 18.8911C22.2341 18.8925 22.2341 18.8938 22.2341 18.8952V21.3312Z" fill="#5F5F5F"/>
<path d="M20.7523 9.00197C20.7068 8.99937 20.6611 8.99937 20.6156 9.00197H15.5528C14.8869 8.96425 14.3165 9.47344 14.2787 10.1393C14.2761 10.1848 14.2761 10.2304 14.2787 10.276V12.1434H15.1087L15.1129 10.276C15.1129 10.1556 15.1129 9.83194 15.5569 9.83194H20.6156C21.0596 9.83194 21.0596 10.1515 21.0596 10.276V12.1434H21.8896V10.276C21.9274 9.61008 21.4181 9.03973 20.7523 9.00197Z" fill="#5F5F5F"/>
</svg>
